Amika-Regular v047.ufo
<glyph name="exclam" format="1">
  <advance width="308"/>
  <unicode hex="0021"/>
  <outline>
    <contour>
      <point x="198" y="210" type="line"/>
      <point x="198" y="754" type="line"/>
      <point x="110" y="754" type="line"/>
      <point x="110" y="210" type="line"/>
    </contour>
    <contour>
      <point x="154" y="-12" type="curve" smooth="yes"/>
      <point x="192" y="-12"/>
      <point x="220" y="16"/>
      <point x="220" y="54" type="curve" smooth="yes"/>
      <point x="220" y="93"/>
      <point x="193" y="122"/>
      <point x="154" y="122" type="curve" smooth="yes"/>
      <point x="115" y="122"/>
      <point x="88" y="93"/>
      <point x="88" y="54" type="curve" smooth="yes"/>
      <point x="88" y="16"/>
      <point x="116" y="-12"/>
    </contour>
  </outline>
</glyph>
<glyph name="quotedbl" format="1">
  <advance width="308"/>
  <unicode hex="0022"/>
  <outline>
    <contour>
      <point x="120" y="464" type="line"/>
      <point x="132" y="696" type="line"/>
      <point x="44" y="696" type="line"/>
      <point x="56" y="464" type="line"/>
    </contour>
    <contour>
      <point x="252" y="464" type="line"/>
      <point x="264" y="696" type="line"/>
      <point x="176" y="696" type="line"/>
      <point x="188" y="464" type="line"/>
    </contour>
  </outline>
</glyph>
<glyph name="numbersign" format="1">
  <advance width="726"/>
  <unicode hex="0023"/>
  <outline>
    <contour>
      <point x="132" y="0" type="line"/>
      <point x="214" y="0" type="line"/>
      <point x="302" y="696" type="line"/>
      <point x="220" y="696" type="line"/>
    </contour>
    <contour>
      <point x="424" y="0" type="line"/>
      <point x="506" y="0" type="line"/>
      <point x="594" y="696" type="line"/>
      <point x="512" y="696" type="line"/>
    </contour>
    <contour>
      <point x="66" y="446" type="line"/>
      <point x="695" y="446" type="line"/>
      <point x="704" y="522" type="line"/>
      <point x="76" y="522" type="line"/>
    </contour>
    <contour>
      <point x="22" y="174" type="line"/>
      <point x="651" y="174" type="line"/>
      <point x="660" y="250" type="line"/>
      <point x="32" y="250" type="line"/>
    </contour>
  </outline>
</glyph>
<glyph name="dollar" format="1">
  <advance width="594"/>
  <unicode hex="0024"/>
  <outline>
    <contour>
      <point x="293" y="-12" type="curve" smooth="yes"/>
      <point x="435" y="-12"/>
      <point x="528" y="69"/>
      <point x="528" y="194" type="curve" smooth="yes"/>
      <point x="528" y="438"/>
      <point x="178" y="366"/>
      <point x="178" y="523" type="curve" smooth="yes"/>
      <point x="178" y="588"/>
      <point x="238" y="627"/>
      <point x="328" y="627" type="curve" smooth="yes"/>
      <point x="389" y="627"/>
      <point x="446" y="609"/>
      <point x="506" y="571" type="curve"/>
      <point x="506" y="663" type="line"/>
      <point x="454" y="692"/>
      <point x="394" y="708"/>
      <point x="327" y="708" type="curve" smooth="yes"/>
      <point x="182" y="708"/>
      <point x="87" y="633"/>
      <point x="87" y="513" type="curve" smooth="yes"/>
      <point x="87" y="282"/>
      <point x="436" y="359"/>
      <point x="436" y="184" type="curve" smooth="yes"/>
      <point x="436" y="113"/>
      <point x="378" y="69"/>
      <point x="284" y="69" type="curve" smooth="yes"/>
      <point x="218" y="69"/>
      <point x="149" y="91"/>
      <point x="66" y="139" type="curve"/>
      <point x="66" y="44" type="line"/>
      <point x="136" y="9"/>
      <point x="220" y="-12"/>
    </contour>
    <contour>
      <point x="280" y="-116" type="line"/>
      <point x="346" y="-116" type="line"/>
      <point x="346" y="812" type="line"/>
      <point x="280" y="812" type="line"/>
    </contour>
  </outline>
</glyph>
<glyph name="ampersand" format="1">
  <advance width="682"/>
  <unicode hex="0026"/>
  <outline>
    <contour>
      <point x="546" y="0" type="line"/>
      <point x="660" y="0" type="line"/>
      <point x="333" y="332" type="line" smooth="yes"/>
      <point x="261" y="405"/>
      <point x="229" y="459"/>
      <point x="229" y="518" type="curve" smooth="yes"/>
      <point x="229" y="584"/>
      <point x="268" y="627"/>
      <point x="337" y="627" type="curve" smooth="yes"/>
      <point x="385" y="627"/>
      <point x="437" y="607"/>
      <point x="480" y="571" type="curve"/>
      <point x="480" y="659" type="line"/>
      <point x="434" y="692"/>
      <point x="384" y="708"/>
      <point x="330" y="708" type="curve" smooth="yes"/>
      <point x="215" y="708"/>
      <point x="138" y="634"/>
      <point x="138" y="523" type="curve" smooth="yes"/>
      <point x="138" y="448"/>
      <point x="172" y="378"/>
      <point x="244" y="306" type="curve" smooth="yes"/>
    </contour>
    <contour>
      <point x="265" y="-12" type="curve" smooth="yes"/>
      <point x="404" y="-12"/>
      <point x="520" y="85"/>
      <point x="616" y="276" type="curve"/>
      <point x="561" y="324" type="line"/>
      <point x="557" y="324" type="line"/>
      <point x="465" y="153"/>
      <point x="372" y="64"/>
      <point x="269" y="64" type="curve" smooth="yes"/>
      <point x="189" y="64"/>
      <point x="138" y="117"/>
      <point x="138" y="196" type="curve" smooth="yes"/>
      <point x="138" y="270"/>
      <point x="182" y="315"/>
      <point x="282" y="356" type="curve"/>
      <point x="231" y="421" type="line"/>
      <point x="104" y="361"/>
      <point x="44" y="287"/>
      <point x="44" y="191" type="curve" smooth="yes"/>
      <point x="44" y="73"/>
      <point x="135" y="-12"/>
    </contour>
  </outline>
</glyph>
<glyph name="quotesingle" format="1">
  <advance width="176"/>
  <unicode hex="0027"/>
  <outline>
    <contour>
      <point x="120" y="464" type="line"/>
      <point x="132" y="696" type="line"/>
      <point x="44" y="696" type="line"/>
      <point x="56" y="464" type="line"/>
    </contour>
  </outline>
</glyph>
<glyph name="parenleft" format="1">
  <advance width="352"/>
  <unicode hex="0028"/>
  <outline>
    <contour>
      <point x="264" y="-116" type="curve"/>
      <point x="304" y="-68" type="line"/>
      <point x="190" y="42"/>
      <point x="161" y="189"/>
      <point x="161" y="348" type="curve" smooth="yes"/>
      <point x="161" y="506"/>
      <point x="195" y="650"/>
      <point x="303" y="764" type="curve"/>
      <point x="264" y="812" type="line"/>
      <point x="127" y="692"/>
      <point x="66" y="531"/>
      <point x="66" y="348" type="curve" smooth="yes"/>
      <point x="66" y="164"/>
      <point x="122" y="-1"/>
    </contour>
  </outline>
</glyph>
<glyph name="parenright" format="1">
  <advance width="352"/>
  <unicode hex="0029"/>
  <outline>
    <contour>
      <point x="88" y="-116" type="line"/>
      <point x="230" y="-1"/>
      <point x="286" y="164"/>
      <point x="286" y="348" type="curve" smooth="yes"/>
      <point x="286" y="531"/>
      <point x="225" y="692"/>
      <point x="88" y="812" type="curve"/>
      <point x="49" y="764" type="line"/>
      <point x="157" y="650"/>
      <point x="191" y="506"/>
      <point x="191" y="348" type="curve" smooth="yes"/>
      <point x="191" y="189"/>
      <point x="162" y="42"/>
      <point x="48" y="-68" type="curve"/>
    </contour>
  </outline>
</glyph>
<glyph name="asterisk" format="1">
  <advance width="374"/>
  <unicode hex="002A"/>
  <outline>
    <contour>
      <point x="189" y="616" type="line"/>
      <point x="240" y="505" type="line"/>
      <point x="298" y="546" type="line"/>
      <point x="210" y="628" type="line"/>
      <point x="211" y="631" type="line"/>
      <point x="330" y="645" type="line"/>
      <point x="308" y="713" type="line"/>
      <point x="202" y="654" type="line"/>
      <point x="199" y="656" type="line"/>
      <point x="224" y="774" type="line"/>
      <point x="152" y="774" type="line"/>
      <point x="175" y="657" type="line"/>
      <point x="172" y="655" type="line"/>
      <point x="67" y="714" type="line"/>
      <point x="44" y="646" type="line"/>
      <point x="163" y="632" type="line"/>
      <point x="164" y="629" type="line"/>
      <point x="76" y="547" type="line"/>
      <point x="134" y="506" type="line"/>
      <point x="185" y="616" type="line"/>
    </contour>
  </outline>
</glyph>
<glyph name="plus" format="1">
  <advance width="594"/>
  <unicode hex="002B"/>
  <outline>
    <contour>
      <point x="66" y="308" type="line"/>
      <point x="528" y="308" type="line"/>
      <point x="528" y="384" type="line"/>
      <point x="66" y="384" type="line"/>
    </contour>
    <contour>
      <point x="335" y="100" type="line"/>
      <point x="335" y="592" type="line"/>
      <point x="259" y="592" type="line"/>
      <point x="259" y="100" type="line"/>
    </contour>
  </outline>
</glyph>
<glyph name="period" format="1">
  <advance width="264"/>
  <unicode hex="002E"/>
  <outline>
    <contour>
      <point x="132" y="-12" type="curve" smooth="yes"/>
      <point x="169" y="-12"/>
      <point x="200" y="15"/>
      <point x="200" y="57" type="curve" smooth="yes"/>
      <point x="200" y="99"/>
      <point x="169" y="126"/>
      <point x="132" y="126" type="curve" smooth="yes"/>
      <point x="95" y="126"/>
      <point x="64" y="99"/>
      <point x="64" y="57" type="curve" smooth="yes"/>
      <point x="64" y="15"/>
      <point x="95" y="-12"/>
    </contour>
  </outline>
</glyph>
<glyph name="zero" format="1">
  <advance width="594"/>
  <unicode hex="0030"/>
  <outline>
    <contour>
      <point x="297" y="-12" type="curve" smooth="yes"/>
      <point x="479" y="-12"/>
      <point x="550" y="146"/>
      <point x="550" y="348" type="curve" smooth="yes"/>
      <point x="550" y="550"/>
      <point x="479" y="708"/>
      <point x="297" y="708" type="curve" smooth="yes"/>
      <point x="115" y="708"/>
      <point x="44" y="550"/>
      <point x="44" y="348" type="curve" smooth="yes"/>
      <point x="44" y="146"/>
      <point x="115" y="-12"/>
    </contour>
    <contour>
      <point x="297" y="68" type="curve" smooth="yes"/>
      <point x="166" y="68"/>
      <point x="139" y="196"/>
      <point x="139" y="348" type="curve" smooth="yes"/>
      <point x="139" y="500"/>
      <point x="166" y="628"/>
      <point x="297" y="628" type="curve" smooth="yes"/>
      <point x="428" y="628"/>
      <point x="455" y="500"/>
      <point x="455" y="348" type="curve" smooth="yes"/>
      <point x="455" y="196"/>
      <point x="428" y="68"/>
    </contour>
  </outline>
</glyph>
<glyph name="one" format="1">
  <advance width="594"/>
  <unicode hex="0031"/>
  <outline>
    <contour>
      <point x="374" y="58" type="line"/>
      <point x="374" y="649" type="line"/>
      <point x="286" y="649" type="line"/>
      <point x="286" y="58" type="line"/>
    </contour>
    <contour>
      <point x="528" y="0" type="line"/>
      <point x="528" y="83" type="line"/>
      <point x="66" y="83" type="line"/>
      <point x="66" y="0" type="line"/>
    </contour>
    <contour>
      <point x="374" y="592" type="line"/>
      <point x="374" y="696" type="line"/>
      <point x="308" y="696" type="line"/>
      <point x="110" y="573" type="line"/>
      <point x="110" y="569" type="line"/>
      <point x="130" y="506" type="line"/>
      <point x="134" y="506" type="line"/>
      <point x="308" y="592" type="line"/>
    </contour>
  </outline>
</glyph>
<glyph name="two" format="1">
  <advance width="594"/>
  <unicode hex="0032"/>
  <outline>
    <contour>
      <point x="66" y="67" type="line"/>
      <point x="175" y="67" type="line"/>
      <point x="406" y="306" type="line" smooth="yes"/>
      <point x="472" y="374"/>
      <point x="507" y="447"/>
      <point x="507" y="518" type="curve" smooth="yes"/>
      <point x="507" y="633"/>
      <point x="414" y="708"/>
      <point x="271" y="708" type="curve" smooth="yes"/>
      <point x="204" y="708"/>
      <point x="144" y="692"/>
      <point x="88" y="659" type="curve"/>
      <point x="88" y="571" type="line"/>
      <point x="143" y="608"/>
      <point x="204" y="627"/>
      <point x="267" y="627" type="curve" smooth="yes"/>
      <point x="361" y="627"/>
      <point x="416" y="583"/>
      <point x="416" y="506" type="curve" smooth="yes"/>
      <point x="416" y="456"/>
      <point x="393" y="417"/>
      <point x="316" y="334" type="curve" smooth="yes"/>
    </contour>
    <contour>
      <point x="66" y="0" type="line"/>
      <point x="528" y="0" type="line"/>
      <point x="528" y="84" type="line"/>
      <point x="104" y="84" type="line"/>
      <point x="66" y="67" type="line"/>
    </contour>
  </outline>
</glyph>
<glyph name="three" format="1">
  <advance width="594"/>
  <unicode hex="0033"/>
  <outline>
    <contour>
      <point x="267" y="-12" type="curve" smooth="yes"/>
      <point x="421" y="-12"/>
      <point x="528" y="70"/>
      <point x="528" y="188" type="curve" smooth="yes"/>
      <point x="528" y="303"/>
      <point x="427" y="383"/>
      <point x="283" y="383" type="curve" smooth="yes"/>
      <point x="198" y="383" type="line"/>
      <point x="198" y="323" type="line"/>
      <point x="242" y="323" type="line" smooth="yes"/>
      <point x="361" y="323"/>
      <point x="436" y="273"/>
      <point x="436" y="195" type="curve" smooth="yes"/>
      <point x="436" y="120"/>
      <point x="368" y="69"/>
      <point x="266" y="69" type="curve" smooth="yes"/>
      <point x="199" y="69"/>
      <point x="137" y="91"/>
      <point x="70" y="137" type="curve"/>
      <point x="66" y="137" type="line"/>
      <point x="66" y="45" type="line"/>
      <point x="132" y="6"/>
      <point x="195" y="-12"/>
    </contour>
    <contour>
      <point x="198" y="341" type="line"/>
      <point x="285" y="341" type="line" smooth="yes"/>
      <point x="418" y="341"/>
      <point x="512" y="418"/>
      <point x="512" y="527" type="curve" smooth="yes"/>
      <point x="512" y="636"/>
      <point x="417" y="708"/>
      <point x="274" y="708" type="curve" smooth="yes"/>
      <point x="208" y="708"/>
      <point x="149" y="693"/>
      <point x="87" y="659" type="curve"/>
      <point x="87" y="572" type="line"/>
      <point x="91" y="572" type="line"/>
      <point x="159" y="610"/>
      <point x="211" y="626"/>
      <point x="268" y="626" type="curve" smooth="yes"/>
      <point x="362" y="626"/>
      <point x="422" y="583"/>
      <point x="422" y="514" type="curve" smooth="yes"/>
      <point x="422" y="443"/>
      <point x="356" y="402"/>
      <point x="242" y="402" type="curve" smooth="yes"/>
      <point x="198" y="402" type="line"/>
    </contour>
  </outline>
</glyph>
<glyph name="four" format="1">
  <advance width="594"/>
  <unicode hex="0034"/>
  <outline>
    <contour>
      <point x="462" y="0" type="line"/>
      <point x="462" y="696" type="line"/>
      <point x="374" y="696" type="line"/>
      <point x="374" y="0" type="line"/>
    </contour>
    <contour>
      <point x="572" y="163" type="line"/>
      <point x="572" y="243" type="line"/>
      <point x="117" y="243" type="line"/>
      <point x="44" y="230" type="line"/>
      <point x="44" y="163" type="line"/>
    </contour>
    <contour>
      <point x="44" y="233" type="line"/>
      <point x="121" y="211" type="line"/>
      <point x="435" y="665" type="line"/>
      <point x="374" y="696" type="line"/>
    </contour>
  </outline>
</glyph>
<glyph name="five" format="1">
  <advance width="594"/>
  <unicode hex="0035"/>
  <outline>
    <contour>
      <point x="277" y="-11" type="curve" smooth="yes"/>
      <point x="428" y="-11"/>
      <point x="528" y="78"/>
      <point x="528" y="213" type="curve" smooth="yes"/>
      <point x="528" y="341"/>
      <point x="438" y="437"/>
      <point x="313" y="437" type="curve" smooth="yes"/>
      <point x="234" y="437"/>
      <point x="154" y="399"/>
      <point x="88" y="331" type="curve"/>
      <point x="153" y="304" type="line"/>
      <point x="157" y="304" type="line"/>
      <point x="200" y="339"/>
      <point x="248" y="357"/>
      <point x="295" y="357" type="curve" smooth="yes"/>
      <point x="379" y="357"/>
      <point x="437" y="298"/>
      <point x="437" y="216" type="curve" smooth="yes"/>
      <point x="437" y="128"/>
      <point x="371" y="69"/>
      <point x="276" y="69" type="curve" smooth="yes"/>
      <point x="206" y="69"/>
      <point x="124" y="101"/>
      <point x="70" y="148" type="curve"/>
      <point x="66" y="148" type="line"/>
      <point x="66" y="53" type="line"/>
      <point x="123" y="12"/>
      <point x="200" y="-11"/>
    </contour>
    <contour>
      <point x="88" y="331" type="line"/>
      <point x="168" y="331" type="line"/>
      <point x="212" y="696" type="line"/>
      <point x="132" y="696" type="line"/>
      <point x="88" y="336" type="line"/>
    </contour>
    <contour>
      <point x="132" y="614" type="line"/>
      <point x="495" y="614" type="line"/>
      <point x="495" y="696" type="line"/>
      <point x="132" y="696" type="line"/>
    </contour>
  </outline>
</glyph>
<glyph name="six" format="1">
  <advance width="594"/>
  <unicode hex="0036"/>
  <outline>
    <contour>
      <point x="304" y="-12" type="curve" smooth="yes"/>
      <point x="447" y="-12"/>
      <point x="550" y="82"/>
      <point x="550" y="217" type="curve" smooth="yes"/>
      <point x="550" y="345"/>
      <point x="458" y="429"/>
      <point x="318" y="429" type="curve" smooth="yes"/>
      <point x="241" y="429"/>
      <point x="182" y="404"/>
      <point x="120" y="345" type="curve"/>
      <point x="120" y="273" type="line"/>
      <point x="184" y="323"/>
      <point x="248" y="349"/>
      <point x="309" y="349" type="curve" smooth="yes"/>
      <point x="397" y="349"/>
      <point x="456" y="296"/>
      <point x="456" y="215" type="curve" smooth="yes"/>
      <point x="456" y="130"/>
      <point x="390" y="67"/>
      <point x="302" y="67" type="curve" smooth="yes"/>
      <point x="195" y="67"/>
      <point x="139" y="159"/>
      <point x="139" y="328" type="curve" smooth="yes"/>
      <point x="139" y="520"/>
      <point x="211" y="629"/>
      <point x="341" y="629" type="curve" smooth="yes"/>
      <point x="398" y="629"/>
      <point x="459" y="608"/>
      <point x="513" y="570" type="curve"/>
      <point x="517" y="570" type="line"/>
      <point x="517" y="658" type="line"/>
      <point x="463" y="690"/>
      <point x="399" y="708"/>
      <point x="335" y="708" type="curve" smooth="yes"/>
      <point x="155" y="708"/>
      <point x="44" y="565"/>
      <point x="44" y="330" type="curve" smooth="yes"/>
      <point x="44" y="114"/>
      <point x="138" y="-12"/>
    </contour>
  </outline>
</glyph>
<glyph name="seven" format="1">
  <advance width="594"/>
  <unicode hex="0037"/>
  <outline>
    <contour>
      <point x="495" y="614" type="line"/>
      <point x="550" y="629" type="line"/>
      <point x="550" y="696" type="line"/>
      <point x="66" y="696" type="line"/>
      <point x="66" y="614" type="line"/>
    </contour>
    <contour>
      <point x="143" y="0" type="line"/>
      <point x="244" y="0" type="line"/>
      <point x="550" y="629" type="line"/>
      <point x="476" y="659" type="line"/>
      <point x="143" y="4" type="line"/>
    </contour>
  </outline>
</glyph>
<glyph name="eight" format="1">
  <advance width="594"/>
  <unicode hex="0038"/>
  <outline>
    <contour>
      <point x="298" y="-12" type="curve" smooth="yes"/>
      <point x="444" y="-12"/>
      <point x="550" y="72"/>
      <point x="550" y="191" type="curve" smooth="yes"/>
      <point x="550" y="265"/>
      <point x="509" y="332"/>
      <point x="434" y="358" type="curve"/>
      <point x="500" y="381"/>
      <point x="537" y="449"/>
      <point x="537" y="518" type="curve" smooth="yes"/>
      <point x="537" y="633"/>
      <point x="436" y="708"/>
      <point x="297" y="708" type="curve" smooth="yes"/>
      <point x="158" y="708"/>
      <point x="57" y="633"/>
      <point x="57" y="518" type="curve" smooth="yes"/>
      <point x="57" y="445"/>
      <point x="97" y="379"/>
      <point x="159" y="358" type="curve"/>
      <point x="92" y="334"/>
      <point x="44" y="271"/>
      <point x="44" y="191" type="curve" smooth="yes"/>
      <point x="44" y="73"/>
      <point x="150" y="-12"/>
    </contour>
    <contour>
      <point x="296" y="66" type="curve" smooth="yes"/>
      <point x="193" y="66"/>
      <point x="136" y="111"/>
      <point x="136" y="191" type="curve" smooth="yes"/>
      <point x="136" y="272"/>
      <point x="195" y="318"/>
      <point x="297" y="318" type="curve" smooth="yes"/>
      <point x="399" y="318"/>
      <point x="458" y="272"/>
      <point x="458" y="191" type="curve" smooth="yes"/>
      <point x="458" y="111"/>
      <point x="400" y="66"/>
    </contour>
    <contour>
      <point x="298" y="400" type="curve" smooth="yes"/>
      <point x="202" y="400"/>
      <point x="147" y="442"/>
      <point x="147" y="516" type="curve" smooth="yes"/>
      <point x="147" y="590"/>
      <point x="201" y="631"/>
      <point x="297" y="631" type="curve" smooth="yes"/>
      <point x="393" y="631"/>
      <point x="447" y="590"/>
      <point x="447" y="516" type="curve" smooth="yes"/>
      <point x="447" y="442"/>
      <point x="393" y="400"/>
    </contour>
  </outline>
</glyph>
<glyph name="nine" format="1">
  <advance width="594"/>
  <unicode hex="0039"/>
  <outline>
    <contour>
      <point x="253" y="-12" type="curve" smooth="yes"/>
      <point x="447" y="-12"/>
      <point x="550" y="118"/>
      <point x="550" y="365" type="curve" smooth="yes"/>
      <point x="550" y="590"/>
      <point x="464" y="708"/>
      <point x="292" y="708" type="curve" smooth="yes"/>
      <point x="142" y="708"/>
      <point x="44" y="618"/>
      <point x="44" y="479" type="curve" smooth="yes"/>
      <point x="44" y="348"/>
      <point x="131" y="267"/>
      <point x="276" y="267" type="curve" smooth="yes"/>
      <point x="354" y="267"/>
      <point x="417" y="291"/>
      <point x="474" y="344" type="curve"/>
      <point x="474" y="423" type="line"/>
      <point x="414" y="372"/>
      <point x="352" y="347"/>
      <point x="288" y="347" type="curve" smooth="yes"/>
      <point x="195" y="347"/>
      <point x="138" y="398"/>
      <point x="138" y="483" type="curve" smooth="yes"/>
      <point x="138" y="570"/>
      <point x="199" y="627"/>
      <point x="293" y="627" type="curve" smooth="yes"/>
      <point x="405" y="627"/>
      <point x="455" y="546"/>
      <point x="455" y="364" type="curve" smooth="yes"/>
      <point x="455" y="162"/>
      <point x="394" y="70"/>
      <point x="260" y="70" type="curve" smooth="yes"/>
      <point x="196" y="70"/>
      <point x="135" y="91"/>
      <point x="81" y="132" type="curve"/>
      <point x="77" y="132" type="line"/>
      <point x="77" y="42" type="line"/>
      <point x="134" y="4"/>
      <point x="185" y="-12"/>
    </contour>
  </outline>
</glyph>
<glyph name="colon" format="1">
  <advance width="264"/>
  <unicode hex="003A"/>
  <outline>
    <contour>
      <point x="132" y="-12" type="curve" smooth="yes"/>
      <point x="169" y="-12"/>
      <point x="200" y="15"/>
      <point x="200" y="57" type="curve" smooth="yes"/>
      <point x="200" y="99"/>
      <point x="169" y="126"/>
      <point x="132" y="126" type="curve" smooth="yes"/>
      <point x="95" y="126"/>
      <point x="64" y="99"/>
      <point x="64" y="57" type="curve" smooth="yes"/>
      <point x="64" y="15"/>
      <point x="95" y="-12"/>
    </contour>
    <contour>
      <point x="132" y="348" type="curve" smooth="yes"/>
      <point x="169" y="348"/>
      <point x="200" y="375"/>
      <point x="200" y="417" type="curve" smooth="yes"/>
      <point x="200" y="459"/>
      <point x="169" y="486"/>
      <point x="132" y="486" type="curve" smooth="yes"/>
      <point x="95" y="486"/>
      <point x="64" y="459"/>
      <point x="64" y="417" type="curve" smooth="yes"/>
      <point x="64" y="375"/>
      <point x="95" y="348"/>
    </contour>
  </outline>
</glyph>
<glyph name="semicolon" format="1">
  <advance width="264"/>
  <unicode hex="003B"/>
  <outline>
    <contour>
      <point x="132" y="348" type="curve" smooth="yes"/>
      <point x="169" y="348"/>
      <point x="200" y="375"/>
      <point x="200" y="417" type="curve" smooth="yes"/>
      <point x="200" y="459"/>
      <point x="169" y="486"/>
      <point x="132" y="486" type="curve" smooth="yes"/>
      <point x="95" y="486"/>
      <point x="64" y="459"/>
      <point x="64" y="417" type="curve" smooth="yes"/>
      <point x="64" y="375"/>
      <point x="95" y="348"/>
    </contour>
    <contour>
      <point x="120" y="-155" type="line"/>
      <point x="172" y="-99"/>
      <point x="203" y="-30"/>
      <point x="203" y="33" type="curve" smooth="yes"/>
      <point x="203" y="92"/>
      <point x="176" y="126"/>
      <point x="129" y="126" type="curve" smooth="yes"/>
      <point x="86" y="126"/>
      <point x="57" y="97"/>
      <point x="57" y="55" type="curve" smooth="yes"/>
      <point x="57" y="16"/>
      <point x="82" y="-12"/>
      <point x="118" y="-12" type="curve" smooth="yes"/>
      <point x="123" y="-12"/>
      <point x="127" y="-12"/>
      <point x="135" y="-10" type="curve"/>
      <point x="124" y="-52"/>
      <point x="106" y="-77"/>
      <point x="66" y="-118" type="curve"/>
      <point x="66" y="-122" type="line"/>
    </contour>
  </outline>
</glyph>
<glyph name="less" format="1">
  <advance width="594"/>
  <unicode hex="003C"/>
  <outline>
    <contour>
      <point x="66" y="308" type="line"/>
      <point x="528" y="116" type="line"/>
      <point x="528" y="197" type="line"/>
      <point x="164" y="346" type="line"/>
      <point x="528" y="495" type="line"/>
      <point x="528" y="576" type="line"/>
      <point x="66" y="384" type="line"/>
    </contour>
  </outline>
</glyph>
<glyph name="equal" format="1">
  <advance width="594"/>
  <unicode hex="003D"/>
  <outline>
    <contour>
      <point x="88" y="406" type="line"/>
      <point x="528" y="406" type="line"/>
      <point x="528" y="482" type="line"/>
      <point x="88" y="482" type="line"/>
    </contour>
    <contour>
      <point x="88" y="198" type="line"/>
      <point x="528" y="198" type="line"/>
      <point x="528" y="274" type="line"/>
      <point x="88" y="274" type="line"/>
    </contour>
  </outline>
</glyph>
<glyph name="greater" format="1">
  <advance width="594"/>
  <unicode hex="003E"/>
  <outline>
    <contour>
      <point x="528" y="384" type="line"/>
      <point x="66" y="576" type="line"/>
      <point x="66" y="495" type="line"/>
      <point x="430" y="346" type="line"/>
      <point x="66" y="197" type="line"/>
      <point x="66" y="116" type="line"/>
      <point x="528" y="308" type="line"/>
    </contour>
  </outline>
</glyph>
<glyph name="question" format="1">
  <advance width="550"/>
  <unicode hex="003F"/>
  <outline>
    <contour>
      <point x="243" y="766" type="curve" smooth="yes"/>
      <point x="170" y="766"/>
      <point x="106" y="750"/>
      <point x="44" y="711" type="curve"/>
      <point x="44" y="626" type="line"/>
      <point x="48" y="626" type="line"/>
      <point x="107" y="663"/>
      <point x="165" y="683"/>
      <point x="235" y="683" type="curve" smooth="yes"/>
      <point x="321" y="683"/>
      <point x="394" y="636"/>
      <point x="394" y="556" type="curve" smooth="yes"/>
      <point x="394" y="459"/>
      <point x="288" y="427"/>
      <point x="176" y="427" type="curve"/>
      <point x="176" y="356" type="line"/>
      <point x="240" y="356" type="line" smooth="yes"/>
      <point x="375" y="356"/>
      <point x="484" y="436"/>
      <point x="484" y="564" type="curve" smooth="yes"/>
      <point x="484" y="689"/>
      <point x="375" y="766"/>
    </contour>
    <contour>
      <point x="219" y="-12" type="curve" smooth="yes"/>
      <point x="257" y="-12"/>
      <point x="285" y="16"/>
      <point x="285" y="54" type="curve" smooth="yes"/>
      <point x="285" y="93"/>
      <point x="258" y="122"/>
      <point x="219" y="122" type="curve" smooth="yes"/>
      <point x="180" y="122"/>
      <point x="153" y="93"/>
      <point x="153" y="54" type="curve" smooth="yes"/>
      <point x="153" y="16"/>
      <point x="181" y="-12"/>
    </contour>
    <contour>
      <point x="264" y="210" type="line"/>
      <point x="264" y="399" type="line"/>
      <point x="176" y="399" type="line"/>
      <point x="176" y="210" type="line"/>
    </contour>
  </outline>
</glyph>
<glyph name="at" format="1">
  <advance width="858"/>
  <unicode hex="0040"/>
  <outline>
    <contour>
      <point x="357" y="58" type="curve" smooth="yes"/>
      <point x="409" y="58"/>
      <point x="464" y="88"/>
      <point x="511" y="144" type="curve"/>
      <point x="520" y="210" type="line"/>
      <point x="475" y="151"/>
      <point x="422" y="121"/>
      <point x="379" y="121" type="curve" smooth="yes"/>
      <point x="335" y="121"/>
      <point x="321" y="152"/>
      <point x="321" y="215" type="curve" smooth="yes"/>
      <point x="321" y="293"/>
      <point x="342" y="388"/>
      <point x="433" y="388" type="curve" smooth="yes"/>
      <point x="460" y="388"/>
      <point x="493" y="380"/>
      <point x="534" y="360" type="curve"/>
      <point x="541" y="409" type="line"/>
      <point x="515" y="428"/>
      <point x="477" y="448"/>
      <point x="427" y="448" type="curve" smooth="yes"/>
      <point x="300" y="448"/>
      <point x="247" y="320"/>
      <point x="247" y="209" type="curve" smooth="yes"/>
      <point x="247" y="116"/>
      <point x="284" y="58"/>
    </contour>
    <contour>
      <point x="423" y="-70" type="curve" smooth="yes"/>
      <point x="251" y="-70"/>
      <point x="136" y="44"/>
      <point x="136" y="235" type="curve" smooth="yes"/>
      <point x="136" y="427"/>
      <point x="252" y="563"/>
      <point x="431" y="563" type="curve" smooth="yes"/>
      <point x="601" y="563"/>
      <point x="722" y="441"/>
      <point x="722" y="261" type="curve" smooth="yes"/>
      <point x="722" y="155"/>
      <point x="675" y="113"/>
      <point x="625" y="113" type="curve" smooth="yes"/>
      <point x="582" y="113"/>
      <point x="555" y="145"/>
      <point x="555" y="209" type="curve" smooth="yes"/>
      <point x="555" y="221"/>
      <point x="556" y="237"/>
      <point x="559" y="254" type="curve" smooth="yes"/>
      <point x="584" y="422" type="line"/>
      <point x="516" y="422" type="line"/>
      <point x="489" y="239" type="line" smooth="yes"/>
      <point x="487" y="226"/>
      <point x="486" y="214"/>
      <point x="486" y="202" type="curve" smooth="yes"/>
      <point x="486" y="98"/>
      <point x="561" y="53"/>
      <point x="627" y="53" type="curve" smooth="yes"/>
      <point x="715" y="53"/>
      <point x="792" y="133"/>
      <point x="792" y="270" type="curve" smooth="yes"/>
      <point x="792" y="460"/>
      <point x="655" y="629"/>
      <point x="433" y="629" type="curve" smooth="yes"/>
      <point x="211" y="629"/>
      <point x="66" y="462"/>
      <point x="66" y="238" type="curve" smooth="yes"/>
      <point x="66" y="16"/>
      <point x="209" y="-135"/>
      <point x="426" y="-135" type="curve" smooth="yes"/>
      <point x="492" y="-135"/>
      <point x="562" y="-121"/>
      <point x="630" y="-82" type="curve"/>
      <point x="630" y="-17" type="line"/>
      <point x="626" y="-17" type="line"/>
      <point x="559" y="-51"/>
      <point x="493" y="-70"/>
    </contour>
  </outline>
</glyph>
<glyph name="A" format="1">
  <advance width="682"/>
  <unicode hex="0041"/>
  <outline>
    <contour>
      <point x="396" y="696" type="line"/>
      <point x="303" y="696" type="line"/>
      <point x="567" y="0" type="line"/>
      <point x="660" y="0" type="line"/>
    </contour>
    <contour>
      <point x="374" y="696" type="line"/>
      <point x="286" y="696" type="line"/>
      <point x="22" y="0" type="line"/>
      <point x="110" y="0" type="line"/>
    </contour>
    <contour>
      <point x="528" y="174" type="line"/>
      <point x="528" y="249" type="line"/>
      <point x="154" y="249" type="line"/>
      <point x="154" y="174" type="line"/>
    </contour>
    <contour>
      <point x="341" y="783" type="move" name="topUC"/>
    </contour>
    <contour>
      <point x="565" y="52" type="move" name="ogonek"/>
    </contour>
  </outline>
</glyph>
<glyph name="B" format="1">
  <advance width="682"/>
  <unicode hex="0042"/>
  <outline>
    <contour>
      <point x="176" y="330" type="line"/>
      <point x="369" y="330" type="line" smooth="yes"/>
      <point x="507" y="330"/>
      <point x="594" y="385"/>
      <point x="594" y="514" type="curve" smooth="yes"/>
      <point x="594" y="639"/>
      <point x="513" y="696"/>
      <point x="381" y="696" type="curve" smooth="yes"/>
      <point x="176" y="696" type="line"/>
      <point x="176" y="612" type="line"/>
      <point x="370" y="612" type="line" smooth="yes"/>
      <point x="457" y="612"/>
      <point x="499" y="591"/>
      <point x="499" y="510" type="curve" smooth="yes"/>
      <point x="499" y="424"/>
      <point x="459" y="397"/>
      <point x="369" y="397" type="curve" smooth="yes"/>
      <point x="176" y="397" type="line"/>
    </contour>
    <contour>
      <point x="110" y="0" type="line"/>
      <point x="369" y="0" type="line" smooth="yes"/>
      <point x="519" y="0"/>
      <point x="616" y="56"/>
      <point x="616" y="195" type="curve" smooth="yes"/>
      <point x="616" y="330"/>
      <point x="525" y="386"/>
      <point x="381" y="386" type="curve" smooth="yes"/>
      <point x="198" y="386" type="line"/>
      <point x="198" y="696" type="line"/>
      <point x="110" y="696" type="line"/>
    </contour>
    <contour>
      <point x="198" y="84" type="line"/>
      <point x="198" y="314" type="line"/>
      <point x="370" y="314" type="line" smooth="yes"/>
      <point x="471" y="314"/>
      <point x="521" y="292"/>
      <point x="521" y="199" type="curve" smooth="yes"/>
      <point x="521" y="106"/>
      <point x="471" y="84"/>
      <point x="369" y="84" type="curve" smooth="yes"/>
    </contour>
  </outline>
</glyph>
<glyph name="C" format="1">
  <advance width="682"/>
  <unicode hex="0043"/>
  <outline>
    <contour>
      <point x="404" y="-12" type="curve" smooth="yes"/>
      <point x="483" y="-12"/>
      <point x="547" y="8"/>
      <point x="616" y="63" type="curve"/>
      <point x="616" y="152" type="line"/>
      <point x="612" y="152" type="line"/>
      <point x="545" y="98"/>
      <point x="485" y="72"/>
      <point x="408" y="72" type="curve" smooth="yes"/>
      <point x="245" y="72"/>
      <point x="161" y="187"/>
      <point x="161" y="348" type="curve" smooth="yes"/>
      <point x="161" y="510"/>
      <point x="249" y="625"/>
      <point x="417" y="625" type="curve" smooth="yes"/>
      <point x="481" y="625"/>
      <point x="535" y="608"/>
      <point x="599" y="565" type="curve"/>
      <point x="603" y="565" type="line"/>
      <point x="603" y="653" type="line"/>
      <point x="536" y="696"/>
      <point x="478" y="708"/>
      <point x="414" y="708" type="curve" smooth="yes"/>
      <point x="190" y="708"/>
      <point x="66" y="562"/>
      <point x="66" y="348" type="curve" smooth="yes"/>
      <point x="66" y="135"/>
      <point x="187" y="-12"/>
    </contour>
    <contour>
      <point x="396" y="783" type="move" name="topUC"/>
    </contour>
    <contour>
      <point x="341" y="-116" type="move" name="bottom"/>
    </contour>
  </outline>
</glyph>
<glyph name="E" format="1">
  <advance width="660"/>
  <unicode hex="0045"/>
  <outline>
    <contour>
      <point x="110" y="0" type="line"/>
      <point x="594" y="0" type="line"/>
      <point x="594" y="84" type="line"/>
      <point x="198" y="84" type="line"/>
      <point x="198" y="612" type="line"/>
      <point x="594" y="612" type="line"/>
      <point x="594" y="696" type="line"/>
      <point x="110" y="696" type="line"/>
    </contour>
    <contour>
      <point x="572" y="312" type="line"/>
      <point x="572" y="392" type="line"/>
      <point x="154" y="392" type="line"/>
      <point x="154" y="312" type="line"/>
    </contour>
    <contour>
      <point x="330" y="783" type="move" name="topUC"/>
    </contour>
    <contour>
      <point x="330" y="-116" type="move" name="bottom"/>
    </contour>
    <contour>
      <point x="550" y="52" type="move" name="ogonek"/>
    </contour>
  </outline>
</glyph>
<glyph name="F" format="1">
  <advance width="638"/>
  <unicode hex="0046"/>
  <outline>
    <contour>
      <point x="594" y="612" type="line"/>
      <point x="594" y="696" type="line"/>
      <point x="110" y="696" type="line"/>
      <point x="110" y="0" type="line"/>
      <point x="198" y="0" type="line"/>
      <point x="198" y="612" type="line"/>
    </contour>
    <contour>
      <point x="528" y="300" type="line"/>
      <point x="528" y="380" type="line"/>
      <point x="154" y="380" type="line"/>
      <point x="154" y="300" type="line"/>
    </contour>
  </outline>
</glyph>
<glyph name="G" format="1">
  <advance width="726"/>
  <unicode hex="0047"/>
  <outline>
    <contour>
      <point x="369" y="-12" type="curve" smooth="yes"/>
      <point x="496" y="-12"/>
      <point x="585" y="46"/>
      <point x="649" y="157" type="curve"/>
      <point x="649" y="233" type="line"/>
      <point x="634" y="233" type="line"/>
      <point x="568" y="136"/>
      <point x="496" y="71"/>
      <point x="380" y="71" type="curve" smooth="yes"/>
      <point x="234" y="71"/>
      <point x="161" y="193"/>
      <point x="161" y="351" type="curve" smooth="yes"/>
      <point x="161" y="510"/>
      <point x="249" y="625"/>
      <point x="401" y="625" type="curve" smooth="yes"/>
      <point x="483" y="625"/>
      <point x="544" y="606"/>
      <point x="612" y="559" type="curve"/>
      <point x="616" y="559" type="line"/>
      <point x="616" y="647" type="line"/>
      <point x="546" y="694"/>
      <point x="482" y="708"/>
      <point x="397" y="708" type="curve" smooth="yes"/>
      <point x="191" y="708"/>
      <point x="66" y="560"/>
      <point x="66" y="348" type="curve" smooth="yes"/>
      <point x="66" y="141"/>
      <point x="174" y="-12"/>
    </contour>
    <contour>
      <point x="418" y="290" type="line"/>
      <point x="660" y="290" type="line"/>
      <point x="660" y="367" type="line"/>
      <point x="418" y="367" type="line"/>
    </contour>
    <contour>
      <point x="594" y="0" type="line"/>
      <point x="660" y="0" type="line"/>
      <point x="660" y="309" type="line"/>
      <point x="572" y="309" type="line"/>
      <point x="572" y="116" type="line"/>
    </contour>
    <contour>
      <point x="363" y="783" type="move" name="topUC"/>
    </contour>
    <contour>
      <point x="363" y="-116" type="move" name="bottom"/>
    </contour>
  </outline>
</glyph>
<glyph name="H" format="1">
  <advance width="770"/>
  <unicode hex="0048"/>
  <outline>
    <contour>
      <point x="110" y="0" type="line"/>
      <point x="198" y="0" type="line"/>
      <point x="198" y="696" type="line"/>
      <point x="110" y="696" type="line"/>
    </contour>
    <contour>
      <point x="572" y="0" type="line"/>
      <point x="660" y="0" type="line"/>
      <point x="660" y="696" type="line"/>
      <point x="572" y="696" type="line"/>
    </contour>
    <contour>
      <point x="616" y="322" type="line"/>
      <point x="616" y="406" type="line"/>
      <point x="154" y="406" type="line"/>
      <point x="154" y="322" type="line"/>
    </contour>
    <contour>
      <point x="385" y="783" type="move" name="topUC"/>
    </contour>
    <contour>
      <point x="385" y="-116" type="move" name="bottom"/>
    </contour>
  </outline>
</glyph>
<glyph name="I" format="1">
  <advance width="484"/>
  <unicode hex="0049"/>
  <outline>
    <contour>
      <point x="286" y="58" type="line"/>
      <point x="286" y="638" type="line"/>
      <point x="198" y="638" type="line"/>
      <point x="198" y="58" type="line"/>
    </contour>
    <contour>
      <point x="418" y="0" type="line"/>
      <point x="418" y="77" type="line"/>
      <point x="66" y="77" type="line"/>
      <point x="66" y="0" type="line"/>
    </contour>
    <contour>
      <point x="418" y="619" type="line"/>
      <point x="418" y="696" type="line"/>
      <point x="66" y="696" type="line"/>
      <point x="66" y="619" type="line"/>
    </contour>
    <contour>
      <point x="242" y="783" type="move" name="topUC"/>
    </contour>
    <contour>
      <point x="242" y="-116" type="move" name="bottom"/>
    </contour>
    <contour>
      <point x="242" y="52" type="move" name="ogonek"/>
    </contour>
  </outline>
</glyph>
<glyph name="J" format="1">
  <advance width="594"/>
  <unicode hex="004A"/>
  <outline>
    <contour>
      <point x="176" y="612" type="line"/>
      <point x="418" y="612" type="line"/>
      <point x="418" y="247" type="line" smooth="yes"/>
      <point x="418" y="143"/>
      <point x="372" y="71"/>
      <point x="275" y="71" type="curve" smooth="yes"/>
      <point x="178" y="71"/>
      <point x="132" y="143"/>
      <point x="132" y="247" type="curve" smooth="yes"/>
      <point x="132" y="261" type="line"/>
      <point x="44" y="261" type="line"/>
      <point x="44" y="244" type="line" smooth="yes"/>
      <point x="44" y="89"/>
      <point x="125" y="-12"/>
      <point x="275" y="-12" type="curve" smooth="yes"/>
      <point x="425" y="-12"/>
      <point x="506" y="89"/>
      <point x="506" y="244" type="curve" smooth="yes"/>
      <point x="506" y="696" type="line"/>
      <point x="176" y="696" type="line"/>
    </contour>
    <contour>
      <point x="297" y="783" type="move" name="topUC"/>
    </contour>
  </outline>
</glyph>
<glyph name="K" format="1">
  <advance width="704"/>
  <unicode hex="004B"/>
  <outline>
    <contour>
      <point x="198" y="0" type="line"/>
      <point x="198" y="696" type="line"/>
      <point x="110" y="696" type="line"/>
      <point x="110" y="0" type="line"/>
    </contour>
    <contour>
      <point x="181" y="199" type="line"/>
      <point x="660" y="696" type="line"/>
      <point x="553" y="696" type="line"/>
      <point x="167" y="295" type="line"/>
    </contour>
    <contour>
      <point x="682" y="0" type="line"/>
      <point x="369" y="405" type="line"/>
      <point x="287" y="361" type="line"/>
      <point x="564" y="0" type="line"/>
    </contour>
    <contour>
      <point x="352" y="-116" type="move" name="bottom"/>
    </contour>
  </outline>
</glyph>
<glyph name="L" format="1">
  <advance width="616"/>
  <unicode hex="004C"/>
  <outline>
    <contour>
      <point x="110" y="0" type="line"/>
      <point x="572" y="0" type="line"/>
      <point x="572" y="84" type="line"/>
      <point x="198" y="84" type="line"/>
      <point x="198" y="696" type="line"/>
      <point x="110" y="696" type="line"/>
    </contour>
    <contour>
      <point x="308" y="783" type="move" name="topUC"/>
    </contour>
    <contour>
      <point x="308" y="-116" type="move" name="bottom"/>
    </contour>
    <contour>
      <point x="510" y="638" type="move" name="caronalt"/>
    </contour>
    <contour>
      <point x="510" y="348" type="move" name="periodcentered"/>
    </contour>
  </outline>
</glyph>
<glyph name="M" format="1">
  <advance width="924"/>
  <unicode hex="004D"/>
  <outline>
    <contour>
      <point x="413" y="0" type="line"/>
      <point x="506" y="0" type="line"/>
      <point x="258" y="696" type="line"/>
      <point x="165" y="696" type="line"/>
    </contour>
    <contour>
      <point x="427" y="0" type="line"/>
      <point x="515" y="0" type="line"/>
      <point x="757" y="696" type="line"/>
      <point x="669" y="696" type="line"/>
    </contour>
    <contour>
      <point x="110" y="0" type="line"/>
      <point x="198" y="0" type="line"/>
      <point x="198" y="696" type="line"/>
      <point x="110" y="696" type="line"/>
    </contour>
    <contour>
      <point x="726" y="0" type="line"/>
      <point x="814" y="0" type="line"/>
      <point x="814" y="696" type="line"/>
      <point x="726" y="696" type="line"/>
    </contour>
  </outline>
</glyph>
<glyph name="N" format="1">
  <advance width="792"/>
  <unicode hex="004E"/>
  <outline>
    <contour>
      <point x="110" y="0" type="line"/>
      <point x="198" y="0" type="line"/>
      <point x="198" y="696" type="line"/>
      <point x="110" y="696" type="line"/>
    </contour>
    <contour>
      <point x="594" y="0" type="line"/>
      <point x="682" y="0" type="line"/>
      <point x="682" y="696" type="line"/>
      <point x="594" y="696" type="line"/>
    </contour>
    <contour>
      <point x="594" y="0" type="line"/>
      <point x="676" y="30" type="line"/>
      <point x="198" y="696" type="line"/>
      <point x="116" y="666" type="line"/>
    </contour>
    <contour>
      <point x="396" y="783" type="move" name="topUC"/>
    </contour>
    <contour>
      <point x="396" y="-116" type="move" name="bottom"/>
    </contour>
  </outline>
</glyph>
<glyph name="P" format="1">
  <advance width="682"/>
  <unicode hex="0050"/>
  <outline>
    <contour>
      <point x="110" y="0" type="line"/>
      <point x="198" y="0" type="line"/>
      <point x="198" y="232" type="line"/>
      <point x="385" y="232" type="line" smooth="yes"/>
      <point x="550" y="232"/>
      <point x="638" y="314"/>
      <point x="638" y="468" type="curve" smooth="yes"/>
      <point x="638" y="620"/>
      <point x="552" y="696"/>
      <point x="378" y="696" type="curve" smooth="yes"/>
      <point x="110" y="696" type="line"/>
    </contour>
    <contour>
      <point x="198" y="314" type="line"/>
      <point x="198" y="612" type="line"/>
      <point x="378" y="612" type="line" smooth="yes"/>
      <point x="498" y="612"/>
      <point x="543" y="571"/>
      <point x="543" y="464" type="curve" smooth="yes"/>
      <point x="543" y="357"/>
      <point x="497" y="314"/>
      <point x="382" y="314" type="curve" smooth="yes"/>
    </contour>
  </outline>
</glyph>
<glyph name="Q" format="1">
  <advance width="770"/>
  <unicode hex="0051"/>
  <outline>
    <contour>
      <point x="581" y="-153" type="line"/>
      <point x="401" y="58" type="line"/>
      <point x="318" y="40" type="line"/>
      <point x="494" y="-208" type="line"/>
    </contour>
    <contour>
      <point x="385" y="-12" type="curve" smooth="yes"/>
      <point x="590" y="-12"/>
      <point x="704" y="134"/>
      <point x="704" y="348" type="curve" smooth="yes"/>
      <point x="704" y="562"/>
      <point x="590" y="708"/>
      <point x="385" y="708" type="curve" smooth="yes"/>
      <point x="180" y="708"/>
      <point x="66" y="562"/>
      <point x="66" y="348" type="curve" smooth="yes"/>
      <point x="66" y="134"/>
      <point x="180" y="-12"/>
    </contour>
    <contour>
      <point x="385" y="68" type="curve" smooth="yes"/>
      <point x="231" y="68"/>
      <point x="161" y="183"/>
      <point x="161" y="348" type="curve" smooth="yes"/>
      <point x="161" y="513"/>
      <point x="231" y="628"/>
      <point x="385" y="628" type="curve" smooth="yes"/>
      <point x="539" y="628"/>
      <point x="609" y="513"/>
      <point x="609" y="348" type="curve" smooth="yes"/>
      <point x="609" y="183"/>
      <point x="539" y="68"/>
    </contour>
  </outline>
</glyph>
<glyph name="R" format="1">
  <advance width="682"/>
  <unicode hex="0052"/>
  <outline>
    <contour>
      <point x="110" y="696" type="line"/>
      <point x="110" y="0" type="line"/>
      <point x="198" y="0" type="line"/>
      <point x="198" y="265" type="line"/>
      <point x="381" y="265" type="line" smooth="yes"/>
      <point x="536" y="265"/>
      <point x="616" y="349"/>
      <point x="616" y="484" type="curve" smooth="yes"/>
      <point x="616" y="620"/>
      <point x="538" y="696"/>
      <point x="369" y="696" type="curve" smooth="yes"/>
    </contour>
    <contour>
      <point x="369" y="612" type="line" smooth="yes"/>
      <point x="471" y="612"/>
      <point x="521" y="580"/>
      <point x="521" y="484" type="curve" smooth="yes"/>
      <point x="521" y="381"/>
      <point x="470" y="348"/>
      <point x="370" y="348" type="curve" smooth="yes"/>
      <point x="198" y="348" type="line"/>
      <point x="198" y="612" type="line"/>
    </contour>
    <contour>
      <point x="638" y="0" type="line"/>
      <point x="467" y="318" type="line"/>
      <point x="386" y="274" type="line"/>
      <point x="532" y="0" type="line"/>
    </contour>
    <contour>
      <point x="341" y="783" type="move" name="topUC"/>
    </contour>
    <contour>
      <point x="341" y="-116" type="move" name="bottom"/>
    </contour>
  </outline>
</glyph>
<glyph name="S" format="1">
  <advance width="638"/>
  <unicode hex="0053"/>
  <outline>
    <contour>
      <point x="315" y="-12" type="curve" smooth="yes"/>
      <point x="470" y="-12"/>
      <point x="572" y="69"/>
      <point x="572" y="194" type="curve" smooth="yes"/>
      <point x="572" y="439"/>
      <point x="178" y="365"/>
      <point x="178" y="524" type="curve" smooth="yes"/>
      <point x="178" y="588"/>
      <point x="241" y="627"/>
      <point x="342" y="627" type="curve" smooth="yes"/>
      <point x="410" y="627"/>
      <point x="478" y="609"/>
      <point x="550" y="571" type="curve"/>
      <point x="550" y="663" type="line"/>
      <point x="489" y="692"/>
      <point x="415" y="708"/>
      <point x="342" y="708" type="curve" smooth="yes"/>
      <point x="186" y="708"/>
      <point x="87" y="633"/>
      <point x="87" y="515" type="curve" smooth="yes"/>
      <point x="87" y="280"/>
      <point x="480" y="359"/>
      <point x="480" y="185" type="curve" smooth="yes"/>
      <point x="480" y="113"/>
      <point x="414" y="69"/>
      <point x="308" y="69" type="curve" smooth="yes"/>
      <point x="232" y="69"/>
      <point x="157" y="91"/>
      <point x="66" y="139" type="curve"/>
      <point x="66" y="44" type="line"/>
      <point x="143" y="9"/>
      <point x="235" y="-12"/>
    </contour>
    <contour>
      <point x="319" y="783" type="move" name="topUC"/>
    </contour>
    <contour>
      <point x="319" y="-116" type="move" name="bottom"/>
    </contour>
  </outline>
</glyph>
<glyph name="T" format="1">
  <advance width="616"/>
  <unicode hex="0054"/>
  <outline>
    <contour>
      <point x="572" y="608" type="line"/>
      <point x="572" y="696" type="line"/>
      <point x="44" y="696" type="line"/>
      <point x="44" y="608" type="line"/>
      <point x="264" y="608" type="line"/>
      <point x="264" y="0" type="line"/>
      <point x="352" y="0" type="line"/>
      <point x="352" y="608" type="line"/>
    </contour>
    <contour>
      <point x="308" y="783" type="move" name="topUC"/>
    </contour>
    <contour>
      <point x="308" y="-116" type="move" name="bottom"/>
    </contour>
  </outline>
</glyph>
<glyph name="U" format="1">
  <advance width="726"/>
  <unicode hex="0055"/>
  <outline>
    <contour>
      <point x="363" y="-12" type="curve" smooth="yes"/>
      <point x="540" y="-12"/>
      <point x="638" y="106"/>
      <point x="638" y="288" type="curve" smooth="yes"/>
      <point x="638" y="696" type="line"/>
      <point x="550" y="696" type="line"/>
      <point x="550" y="291" type="line" smooth="yes"/>
      <point x="550" y="159"/>
      <point x="487" y="70"/>
      <point x="363" y="70" type="curve" smooth="yes"/>
      <point x="239" y="70"/>
      <point x="176" y="159"/>
      <point x="176" y="291" type="curve" smooth="yes"/>
      <point x="176" y="696" type="line"/>
      <point x="88" y="696" type="line"/>
      <point x="88" y="288" type="line" smooth="yes"/>
      <point x="88" y="106"/>
      <point x="186" y="-12"/>
    </contour>
    <contour>
      <point x="363" y="783" type="move" name="topUC"/>
    </contour>
    <contour>
      <point x="363" y="-116" type="move" name="bottom"/>
    </contour>
    <contour>
      <point x="363" y="52" type="move" name="ogonek"/>
    </contour>
  </outline>
</glyph>
<glyph name="V" format="1">
  <advance width="682"/>
  <unicode hex="0056"/>
  <outline>
    <contour>
      <point x="286" y="0" type="line"/>
      <point x="379" y="0" type="line"/>
      <point x="115" y="696" type="line"/>
      <point x="22" y="696" type="line"/>
    </contour>
    <contour>
      <point x="308" y="0" type="line"/>
      <point x="396" y="0" type="line"/>
      <point x="660" y="696" type="line"/>
      <point x="572" y="696" type="line"/>
    </contour>
  </outline>
</glyph>
<glyph name="W" format="1">
  <advance width="924"/>
  <unicode hex="0057"/>
  <outline>
    <contour>
      <point x="207" y="0" type="line"/>
      <point x="292" y="0" type="line"/>
      <point x="111" y="696" type="line"/>
      <point x="22" y="696" type="line"/>
    </contour>
    <contour>
      <point x="237" y="0" type="line"/>
      <point x="317" y="0" type="line"/>
      <point x="498" y="696" type="line"/>
      <point x="418" y="696" type="line"/>
    </contour>
    <contour>
      <point x="607" y="0" type="line"/>
      <point x="692" y="0" type="line"/>
      <point x="511" y="696" type="line"/>
      <point x="426" y="696" type="line"/>
    </contour>
    <contour>
      <point x="637" y="0" type="line"/>
      <point x="717" y="0" type="line"/>
      <point x="902" y="696" type="line"/>
      <point x="818" y="696" type="line"/>
    </contour>
    <contour>
      <point x="462" y="783" type="move" name="topUC"/>
    </contour>
  </outline>
</glyph>
<glyph name="X" format="1">
  <advance width="638"/>
  <unicode hex="0058"/>
  <outline>
    <contour>
      <point x="511" y="0" type="line"/>
      <point x="616" y="0" type="line"/>
      <point x="139" y="696" type="line"/>
      <point x="34" y="696" type="line"/>
    </contour>
    <contour>
      <point x="352" y="324" type="line"/>
      <point x="604" y="696" type="line"/>
      <point x="504" y="696" type="line"/>
      <point x="300" y="394" type="line"/>
    </contour>
    <contour>
      <point x="292" y="398" type="line"/>
      <point x="22" y="0" type="line"/>
      <point x="122" y="0" type="line"/>
      <point x="344" y="328" type="line"/>
    </contour>
  </outline>
</glyph>
<glyph name="Y" format="1">
  <advance width="638"/>
  <unicode hex="0059"/>
  <outline>
    <contour>
      <point x="275" y="240" type="line"/>
      <point x="363" y="240" type="line"/>
      <point x="125" y="696" type="line"/>
      <point x="22" y="696" type="line"/>
    </contour>
    <contour>
      <point x="275" y="240" type="line"/>
      <point x="363" y="240" type="line"/>
      <point x="616" y="696" type="line"/>
      <point x="518" y="696" type="line"/>
    </contour>
    <contour>
      <point x="275" y="280" type="line"/>
      <point x="275" y="0" type="line"/>
      <point x="363" y="0" type="line"/>
      <point x="363" y="280" type="line"/>
    </contour>
    <contour>
      <point x="319" y="783" type="move" name="topUC"/>
    </contour>
  </outline>
</glyph>
<glyph name="Z" format="1">
  <advance width="638"/>
  <unicode hex="005A"/>
  <outline>
    <contour>
      <point x="572" y="696" type="line"/>
      <point x="66" y="696" type="line"/>
      <point x="66" y="620" type="line"/>
      <point x="486" y="620" type="line"/>
      <point x="572" y="631" type="line"/>
    </contour>
    <contour>
      <point x="594" y="76" type="line"/>
      <point x="74" y="76" type="line"/>
      <point x="44" y="65" type="line"/>
      <point x="44" y="0" type="line"/>
      <point x="594" y="0" type="line"/>
    </contour>
    <contour>
      <point x="155" y="65" type="line"/>
      <point x="572" y="631" type="line"/>
      <point x="463" y="631" type="line"/>
      <point x="44" y="65" type="line"/>
    </contour>
    <contour>
      <point x="319" y="783" type="move" name="topUC"/>
    </contour>
    <contour>
      <point x="319" y="-116" type="move" name="bottom"/>
    </contour>
  </outline>
</glyph>
<glyph name="bracketleft" format="1">
  <advance width="396"/>
  <unicode hex="005B"/>
  <outline>
    <contour>
      <point x="110" y="-116" type="line"/>
      <point x="352" y="-116" type="line"/>
      <point x="352" y="-40" type="line"/>
      <point x="198" y="-40" type="line"/>
      <point x="198" y="736" type="line"/>
      <point x="352" y="736" type="line"/>
      <point x="352" y="812" type="line"/>
      <point x="110" y="812" type="line"/>
    </contour>
  </outline>
</glyph>
<glyph name="backslash" format="1">
  <advance width="352"/>
  <unicode hex="005C"/>
  <outline>
    <contour>
      <point x="352" y="-232" type="line"/>
      <point x="262" y="-232" type="line"/>
      <point x="0" y="754" type="line"/>
      <point x="91" y="754" type="line"/>
    </contour>
  </outline>
</glyph>
<glyph name="bracketright" format="1">
  <advance width="396"/>
  <unicode hex="005D"/>
  <outline>
    <contour>
      <point x="286" y="812" type="line"/>
      <point x="44" y="812" type="line"/>
      <point x="44" y="736" type="line"/>
      <point x="198" y="736" type="line"/>
      <point x="198" y="-40" type="line"/>
      <point x="44" y="-40" type="line"/>
      <point x="44" y="-116" type="line"/>
      <point x="286" y="-116" type="line"/>
    </contour>
  </outline>
</glyph>
<glyph name="asciicircum" format="1">
  <advance width="484"/>
  <unicode hex="005E"/>
  <outline>
    <contour>
      <point x="242" y="515" type="line"/>
      <point x="44" y="252" type="line"/>
      <point x="92" y="218" type="line"/>
      <point x="242" y="410" type="line"/>
      <point x="392" y="218" type="line"/>
      <point x="440" y="252" type="line"/>
    </contour>
  </outline>
</glyph>
<glyph name="underscore" format="1">
  <advance width="594"/>
  <unicode hex="005F"/>
  <outline>
    <contour>
      <point x="44" y="-96" type="line"/>
      <point x="550" y="-96" type="line"/>
      <point x="550" y="-20" type="line"/>
      <point x="44" y="-20" type="line"/>
    </contour>
  </outline>
</glyph>
<glyph name="grave" format="1">
  <advance width="352"/>
  <unicode hex="0060"/>
  <outline>
    <contour>
      <point x="66" y="755" type="line"/>
      <point x="255" y="638" type="line"/>
      <point x="286" y="672" type="line"/>
      <point x="120" y="825" type="line"/>
    </contour>
    <contour>
      <point x="176" y="638" type="move" name="_top"/>
    </contour>
  </outline>
</glyph>
<glyph name="a" format="1">
  <advance width="616"/>
  <unicode hex="0061"/>
  <outline>
    <contour>
      <point x="239" y="-12" type="curve" smooth="yes"/>
      <point x="332" y="-12"/>
      <point x="397" y="32"/>
      <point x="452" y="107" type="curve"/>
      <point x="452" y="178" type="line"/>
      <point x="396" y="113"/>
      <point x="343" y="62"/>
      <point x="257" y="62" type="curve" smooth="yes"/>
      <point x="201" y="62"/>
      <point x="161" y="97"/>
      <point x="161" y="152" type="curve" smooth="yes"/>
      <point x="161" y="219"/>
      <point x="229" y="238"/>
      <point x="306" y="238" type="curve" smooth="yes"/>
      <point x="451" y="238" type="line"/>
      <point x="451" y="296" type="line"/>
      <point x="400" y="302"/>
      <point x="361" y="305"/>
      <point x="310" y="305" type="curve" smooth="yes"/>
      <point x="179" y="305"/>
      <point x="66" y="263"/>
      <point x="66" y="147" type="curve" smooth="yes"/>
      <point x="66" y="49"/>
      <point x="138" y="-12"/>
    </contour>
    <contour>
      <point x="440" y="0" type="line"/>
      <point x="528" y="0" type="line"/>
      <point x="506" y="116" type="line"/>
      <point x="506" y="348" type="line" smooth="yes"/>
      <point x="506" y="461"/>
      <point x="426" y="534"/>
      <point x="312" y="534" type="curve" smooth="yes"/>
      <point x="235" y="534"/>
      <point x="174" y="522"/>
      <point x="110" y="478" type="curve"/>
      <point x="110" y="393" type="line"/>
      <point x="170" y="435"/>
      <point x="225" y="457"/>
      <point x="299" y="457" type="curve" smooth="yes"/>
      <point x="370" y="457"/>
      <point x="418" y="408"/>
      <point x="418" y="336" type="curve" smooth="yes"/>
      <point x="418" y="116" type="line"/>
    </contour>
    <contour>
      <point x="308" y="638" type="move" name="top"/>
    </contour>
    <contour>
      <point x="462" y="52" type="move" name="ogonek"/>
    </contour>
  </outline>
</glyph>
<glyph name="c" format="1">
  <advance width="550"/>
  <unicode hex="0063"/>
  <outline>
    <contour>
      <point x="307" y="454" type="curve" smooth="yes"/>
      <point x="371" y="454"/>
      <point x="420" y="438"/>
      <point x="469" y="398" type="curve"/>
      <point x="473" y="398" type="line"/>
      <point x="473" y="483" type="line"/>
      <point x="424" y="524"/>
      <point x="372" y="534"/>
      <point x="308" y="534" type="curve" smooth="yes"/>
      <point x="157" y="534"/>
      <point x="66" y="417"/>
      <point x="66" y="259" type="curve" smooth="yes"/>
      <point x="66" y="103"/>
      <point x="157" y="-12"/>
      <point x="307" y="-12" type="curve" smooth="yes"/>
      <point x="377" y="-12"/>
      <point x="433" y="4"/>
      <point x="484" y="52" type="curve"/>
      <point x="484" y="137" type="line"/>
      <point x="480" y="137" type="line"/>
      <point x="428" y="90"/>
      <point x="376" y="68"/>
      <point x="306" y="68" type="curve" smooth="yes"/>
      <point x="209" y="68"/>
      <point x="159" y="152"/>
      <point x="159" y="258" type="curve" smooth="yes"/>
      <point x="159" y="367"/>
      <point x="208" y="454"/>
    </contour>
    <contour>
      <point x="286" y="638" type="move" name="top"/>
    </contour>
    <contour>
      <point x="275" y="-116" type="move" name="bottom"/>
    </contour>
  </outline>
</glyph>
<glyph name="e" format="1">
  <advance width="594"/>
  <unicode hex="0065"/>
  <outline>
    <contour>
      <point x="327" y="-12" type="curve" smooth="yes"/>
      <point x="391" y="-12"/>
      <point x="447" y="6"/>
      <point x="506" y="49" type="curve"/>
      <point x="506" y="137" type="line"/>
      <point x="502" y="137" type="line"/>
      <point x="445" y="90"/>
      <point x="390" y="64"/>
      <point x="328" y="64" type="curve" smooth="yes"/>
      <point x="213" y="64"/>
      <point x="156" y="150"/>
      <point x="156" y="265" type="curve" smooth="yes"/>
      <point x="156" y="370"/>
      <point x="203" y="461"/>
      <point x="301" y="461" type="curve" smooth="yes"/>
      <point x="400" y="461"/>
      <point x="439" y="369"/>
      <point x="439" y="261" type="curve"/>
      <point x="493" y="300" type="line"/>
      <point x="127" y="300" type="line"/>
      <point x="127" y="232" type="line"/>
      <point x="528" y="232" type="line"/>
      <point x="528" y="261" type="line" smooth="yes"/>
      <point x="528" y="415"/>
      <point x="447" y="534"/>
      <point x="300" y="534" type="curve" smooth="yes"/>
      <point x="154" y="534"/>
      <point x="66" y="417"/>
      <point x="66" y="264" type="curve" smooth="yes"/>
      <point x="66" y="102"/>
      <point x="164" y="-12"/>
    </contour>
    <contour>
      <point x="297" y="638" type="move" name="top"/>
    </contour>
    <contour>
      <point x="297" y="-116" type="move" name="bottom"/>
    </contour>
    <contour>
      <point x="444" y="52" type="move" name="ogonek"/>
    </contour>
  </outline>
</glyph>
<glyph name="f" format="1">
  <advance width="440"/>
  <unicode hex="0066"/>
  <outline>
    <contour>
      <point x="44" y="446" type="line"/>
      <point x="154" y="446" type="line"/>
      <point x="154" y="0" type="line"/>
      <point x="242" y="0" type="line"/>
      <point x="242" y="446" type="line"/>
      <point x="396" y="446" type="line"/>
      <point x="396" y="522" type="line"/>
      <point x="242" y="522" type="line"/>
      <point x="242" y="592" type="line" smooth="yes"/>
      <point x="242" y="646"/>
      <point x="266" y="689"/>
      <point x="334" y="689" type="curve" smooth="yes"/>
      <point x="355" y="689"/>
      <point x="370" y="685"/>
      <point x="396" y="673" type="curve"/>
      <point x="396" y="749" type="line"/>
      <point x="365" y="761"/>
      <point x="346" y="766"/>
      <point x="316" y="766" type="curve" smooth="yes"/>
      <point x="205" y="766"/>
      <point x="154" y="695"/>
      <point x="154" y="582" type="curve" smooth="yes"/>
      <point x="154" y="522" type="line"/>
      <point x="44" y="522" type="line"/>
    </contour>
  </outline>
</glyph>
<glyph name="g" format="1">
  <advance width="638"/>
  <unicode hex="0067"/>
  <outline>
    <contour>
      <point x="294" y="7" type="curve" smooth="yes"/>
      <point x="371" y="7"/>
      <point x="416" y="24"/>
      <point x="474" y="74" type="curve"/>
      <point x="474" y="159" type="line"/>
      <point x="413" y="113"/>
      <point x="372" y="88"/>
      <point x="295" y="88" type="curve" smooth="yes"/>
      <point x="198" y="88"/>
      <point x="161" y="160"/>
      <point x="161" y="267" type="curve" smooth="yes"/>
      <point x="161" y="381"/>
      <point x="207" y="456"/>
      <point x="314" y="456" type="curve" smooth="yes"/>
      <point x="377" y="456"/>
      <point x="414" y="447"/>
      <point x="473" y="424" type="curve"/>
      <point x="473" y="489" type="line"/>
      <point x="410" y="517"/>
      <point x="373" y="534"/>
      <point x="304" y="534" type="curve" smooth="yes"/>
      <point x="144" y="534"/>
      <point x="66" y="432"/>
      <point x="66" y="266" type="curve" smooth="yes"/>
      <point x="66" y="106"/>
      <point x="141" y="7"/>
    </contour>
    <contour>
      <point x="286" y="-244" type="curve" smooth="yes"/>
      <point x="450" y="-244"/>
      <point x="528" y="-137"/>
      <point x="528" y="34" type="curve" smooth="yes"/>
      <point x="528" y="407" type="line"/>
      <point x="550" y="523" type="line"/>
      <point x="462" y="523" type="line"/>
      <point x="440" y="435" type="line"/>
      <point x="440" y="22" type="line" smooth="yes"/>
      <point x="440" y="-90"/>
      <point x="392" y="-162"/>
      <point x="286" y="-162" type="curve" smooth="yes"/>
      <point x="201" y="-162"/>
      <point x="152" y="-144"/>
      <point x="87" y="-90" type="curve"/>
      <point x="87" y="-179" type="line"/>
      <point x="151" y="-233"/>
      <point x="202" y="-244"/>
    </contour>
    <contour>
      <point x="319" y="638" type="move" name="top"/>
    </contour>
  </outline>
</glyph>
<glyph name="h" format="1">
  <advance width="638"/>
  <unicode hex="0068"/>
  <outline>
    <contour>
      <point x="440" y="0" type="line"/>
      <point x="528" y="0" type="line"/>
      <point x="528" y="362" type="line" smooth="yes"/>
      <point x="528" y="468"/>
      <point x="479" y="534"/>
      <point x="378" y="534" type="curve" smooth="yes"/>
      <point x="288" y="534"/>
      <point x="241" y="500"/>
      <point x="176" y="436" type="curve"/>
      <point x="176" y="367" type="line"/>
      <point x="235" y="421"/>
      <point x="275" y="455"/>
      <point x="355" y="455" type="curve" smooth="yes"/>
      <point x="414" y="455"/>
      <point x="440" y="414"/>
      <point x="440" y="350" type="curve" smooth="yes"/>
    </contour>
    <contour>
      <point x="110" y="0" type="line"/>
      <point x="198" y="0" type="line"/>
      <point x="198" y="754" type="line"/>
      <point x="110" y="754" type="line"/>
    </contour>
    <contour>
      <point x="319" y="638" type="move" name="top"/>
    </contour>
    <contour>
      <point x="319" y="-116" type="move" name="bottom"/>
    </contour>
  </outline>
</glyph>
<glyph name="i" format="1">
  <advance width="396"/>
  <unicode hex="0069"/>
  <outline>
    <contour>
      <point x="176" y="0" type="line"/>
      <point x="264" y="0" type="line"/>
      <point x="264" y="522" type="line"/>
      <point x="66" y="522" type="line"/>
      <point x="66" y="446" type="line"/>
      <point x="176" y="446" type="line"/>
    </contour>
    <contour>
      <point x="220" y="640" type="curve" smooth="yes"/>
      <point x="261" y="640"/>
      <point x="283" y="663"/>
      <point x="283" y="704" type="curve" smooth="yes"/>
      <point x="283" y="745"/>
      <point x="261" y="768"/>
      <point x="220" y="768" type="curve" smooth="yes"/>
      <point x="179" y="768"/>
      <point x="157" y="745"/>
      <point x="157" y="704" type="curve" smooth="yes"/>
      <point x="157" y="663"/>
      <point x="179" y="640"/>
    </contour>
    <contour>
      <point x="198" y="-116" type="move" name="bottom"/>
    </contour>
    <contour>
      <point x="198" y="52" type="move" name="ogonek"/>
    </contour>
  </outline>
</glyph>
<glyph name="j" format="1">
  <advance width="396"/>
  <unicode hex="006A"/>
  <outline>
    <contour>
      <point x="220" y="640" type="curve" smooth="yes"/>
      <point x="261" y="640"/>
      <point x="283" y="663"/>
      <point x="283" y="704" type="curve" smooth="yes"/>
      <point x="283" y="745"/>
      <point x="261" y="768"/>
      <point x="220" y="768" type="curve" smooth="yes"/>
      <point x="179" y="768"/>
      <point x="157" y="745"/>
      <point x="157" y="704" type="curve" smooth="yes"/>
      <point x="157" y="663"/>
      <point x="179" y="640"/>
    </contour>
    <contour>
      <point x="66" y="522" type="line"/>
      <point x="66" y="446" type="line"/>
      <point x="176" y="446" type="line"/>
      <point x="176" y="-60" type="line" smooth="yes"/>
      <point x="176" y="-124"/>
      <point x="152" y="-167"/>
      <point x="93" y="-167" type="curve" smooth="yes"/>
      <point x="64" y="-167"/>
      <point x="48" y="-164"/>
      <point x="22" y="-151" type="curve"/>
      <point x="22" y="-227" type="line"/>
      <point x="51" y="-243"/>
      <point x="72" y="-244"/>
      <point x="105" y="-244" type="curve" smooth="yes"/>
      <point x="213" y="-244"/>
      <point x="264" y="-173"/>
      <point x="264" y="-60" type="curve" smooth="yes"/>
      <point x="264" y="522" type="line"/>
    </contour>
  </outline>
</glyph>
<glyph name="k" format="1">
  <advance width="594"/>
  <unicode hex="006B"/>
  <outline>
    <contour>
      <point x="198" y="0" type="line"/>
      <point x="198" y="754" type="line"/>
      <point x="110" y="754" type="line"/>
      <point x="110" y="0" type="line"/>
    </contour>
    <contour>
      <point x="159" y="110" type="line"/>
      <point x="550" y="522" type="line"/>
      <point x="444" y="522" type="line"/>
      <point x="148" y="204" type="line"/>
    </contour>
    <contour>
      <point x="572" y="0" type="line"/>
      <point x="348" y="318" type="line"/>
      <point x="277" y="274" type="line"/>
      <point x="460" y="0" type="line"/>
    </contour>
    <contour>
      <point x="319" y="-116" type="move" name="bottom"/>
    </contour>
  </outline>
</glyph>
<glyph name="l" format="1">
  <advance width="308"/>
  <unicode hex="006C"/>
  <outline>
    <contour>
      <point x="198" y="0" type="line"/>
      <point x="198" y="754" type="line"/>
      <point x="110" y="754" type="line"/>
      <point x="110" y="0" type="line"/>
    </contour>
    <contour>
      <point x="154" y="638" type="move" name="top"/>
    </contour>
    <contour>
      <point x="154" y="-116" type="move" name="bottom"/>
    </contour>
    <contour>
      <point x="298" y="638" type="move" name="caronalt"/>
    </contour>
    <contour>
      <point x="298" y="348" type="move" name="periodcentered"/>
    </contour>
  </outline>
</glyph>
<glyph name="m" format="1">
  <advance width="924"/>
  <unicode hex="006D"/>
  <outline>
    <contour>
      <point x="418" y="0" type="line"/>
      <point x="506" y="0" type="line"/>
      <point x="506" y="362" type="line" smooth="yes"/>
      <point x="506" y="466"/>
      <point x="464" y="534"/>
      <point x="367" y="534" type="curve" smooth="yes"/>
      <point x="280" y="534"/>
      <point x="236" y="499"/>
      <point x="176" y="436" type="curve"/>
      <point x="176" y="367" type="line"/>
      <point x="231" y="420"/>
      <point x="268" y="455"/>
      <point x="344" y="455" type="curve" smooth="yes"/>
      <point x="400" y="455"/>
      <point x="418" y="412"/>
      <point x="418" y="350" type="curve" smooth="yes"/>
    </contour>
    <contour>
      <point x="110" y="0" type="line"/>
      <point x="198" y="0" type="line"/>
      <point x="198" y="406" type="line"/>
      <point x="176" y="522" type="line"/>
      <point x="88" y="522" type="line"/>
      <point x="110" y="406" type="line"/>
    </contour>
    <contour>
      <point x="726" y="0" type="line"/>
      <point x="814" y="0" type="line"/>
      <point x="814" y="362" type="line" smooth="yes"/>
      <point x="814" y="466"/>
      <point x="772" y="534"/>
      <point x="675" y="534" type="curve" smooth="yes"/>
      <point x="588" y="534"/>
      <point x="544" y="499"/>
      <point x="484" y="436" type="curve"/>
      <point x="484" y="367" type="line"/>
      <point x="539" y="420"/>
      <point x="576" y="455"/>
      <point x="652" y="455" type="curve" smooth="yes"/>
      <point x="708" y="455"/>
      <point x="726" y="412"/>
      <point x="726" y="350" type="curve" smooth="yes"/>
    </contour>
  </outline>
</glyph>
<glyph name="o" format="1">
  <advance width="616"/>
  <unicode hex="006F"/>
  <outline>
    <contour>
      <point x="308" y="-12" type="curve" smooth="yes"/>
      <point x="463" y="-12"/>
      <point x="550" y="99"/>
      <point x="550" y="261" type="curve" smooth="yes"/>
      <point x="550" y="423"/>
      <point x="463" y="534"/>
      <point x="308" y="534" type="curve" smooth="yes"/>
      <point x="153" y="534"/>
      <point x="66" y="423"/>
      <point x="66" y="261" type="curve" smooth="yes"/>
      <point x="66" y="99"/>
      <point x="153" y="-12"/>
    </contour>
    <contour>
      <point x="308" y="64" type="curve" smooth="yes"/>
      <point x="206" y="64"/>
      <point x="161" y="149"/>
      <point x="161" y="261" type="curve" smooth="yes"/>
      <point x="161" y="373"/>
      <point x="206" y="458"/>
      <point x="308" y="458" type="curve" smooth="yes"/>
      <point x="410" y="458"/>
      <point x="455" y="373"/>
      <point x="455" y="261" type="curve" smooth="yes"/>
      <point x="455" y="149"/>
      <point x="410" y="64"/>
    </contour>
    <contour>
      <point x="308" y="638" type="move" name="top"/>
    </contour>
    <contour>
      <point x="308" y="-116" type="move" name="bottom"/>
    </contour>
    <contour>
      <point x="308" y="52" type="move" name="ogonek"/>
    </contour>
  </outline>
</glyph>
<glyph name="p" format="1">
  <advance width="638"/>
  <unicode hex="0070"/>
  <outline>
    <contour>
      <point x="176" y="522" type="line"/>
      <point x="88" y="522" type="line"/>
      <point x="110" y="406" type="line"/>
      <point x="110" y="-232" type="line"/>
      <point x="198" y="-232" type="line"/>
      <point x="198" y="406" type="line"/>
    </contour>
    <contour>
      <point x="335" y="-11" type="curve" smooth="yes"/>
      <point x="484" y="-11"/>
      <point x="572" y="105"/>
      <point x="572" y="260" type="curve" smooth="yes"/>
      <point x="572" y="413"/>
      <point x="500" y="534"/>
      <point x="359" y="534" type="curve" smooth="yes"/>
      <point x="273" y="534"/>
      <point x="212" y="494"/>
      <point x="164" y="423" type="curve"/>
      <point x="164" y="338" type="line"/>
      <point x="216" y="404"/>
      <point x="268" y="453"/>
      <point x="351" y="453" type="curve" smooth="yes"/>
      <point x="443" y="453"/>
      <point x="477" y="364"/>
      <point x="477" y="260" type="curve" smooth="yes"/>
      <point x="477" y="152"/>
      <point x="426" y="67"/>
      <point x="326" y="67" type="curve" smooth="yes"/>
      <point x="266" y="67"/>
      <point x="221" y="78"/>
      <point x="165" y="99" type="curve"/>
      <point x="165" y="34" type="line"/>
      <point x="223" y="8"/>
      <point x="271" y="-11"/>
    </contour>
  </outline>
</glyph>
<glyph name="q" format="1">
  <advance width="638"/>
  <unicode hex="0071"/>
  <outline>
    <contour>
      <point x="440" y="441" type="line"/>
      <point x="440" y="-232" type="line"/>
      <point x="528" y="-232" type="line"/>
      <point x="528" y="407" type="line"/>
      <point x="550" y="523" type="line"/>
      <point x="462" y="523" type="line"/>
    </contour>
    <contour>
      <point x="267" y="-11" type="curve" smooth="yes"/>
      <point x="357" y="-11"/>
      <point x="422" y="27"/>
      <point x="474" y="100" type="curve"/>
      <point x="474" y="185" type="line"/>
      <point x="419" y="119"/>
      <point x="366" y="70"/>
      <point x="281" y="70" type="curve" smooth="yes"/>
      <point x="192" y="70"/>
      <point x="161" y="157"/>
      <point x="161" y="258" type="curve" smooth="yes"/>
      <point x="161" y="368"/>
      <point x="212" y="456"/>
      <point x="313" y="456" type="curve" smooth="yes"/>
      <point x="373" y="456"/>
      <point x="418" y="444"/>
      <point x="473" y="421" type="curve"/>
      <point x="473" y="484" type="line"/>
      <point x="416" y="514"/>
      <point x="368" y="534"/>
      <point x="304" y="534" type="curve" smooth="yes"/>
      <point x="153" y="534"/>
      <point x="66" y="415"/>
      <point x="66" y="256" type="curve" smooth="yes"/>
      <point x="66" y="108"/>
      <point x="132" y="-11"/>
    </contour>
  </outline>
</glyph>
<glyph name="r" format="1">
  <advance width="440"/>
  <unicode hex="0072"/>
  <outline>
    <contour>
      <point x="196" y="368" type="line"/>
      <point x="237" y="413"/>
      <point x="301" y="437"/>
      <point x="381" y="437" type="curve" smooth="yes"/>
      <point x="396" y="437" type="line"/>
      <point x="396" y="534" type="line"/>
      <point x="365" y="534" type="line" smooth="yes"/>
      <point x="300" y="534"/>
      <point x="259" y="506"/>
      <point x="182" y="412" type="curve"/>
    </contour>
    <contour>
      <point x="110" y="0" type="line"/>
      <point x="198" y="0" type="line"/>
      <point x="198" y="406" type="line"/>
      <point x="176" y="522" type="line"/>
      <point x="88" y="522" type="line"/>
      <point x="110" y="406" type="line"/>
    </contour>
    <contour>
      <point x="220" y="638" type="move" name="top"/>
    </contour>
    <contour>
      <point x="220" y="-116" type="move" name="bottom"/>
    </contour>
  </outline>
</glyph>
<glyph name="s" format="1">
  <advance width="528"/>
  <unicode hex="0073"/>
  <outline>
    <contour>
      <point x="254" y="-12" type="curve" smooth="yes"/>
      <point x="376" y="-12"/>
      <point x="462" y="55"/>
      <point x="462" y="153" type="curve" smooth="yes"/>
      <point x="462" y="255"/>
      <point x="368" y="281"/>
      <point x="286" y="304" type="curve" smooth="yes"/>
      <point x="222" y="323"/>
      <point x="164" y="339"/>
      <point x="164" y="388" type="curve" smooth="yes"/>
      <point x="164" y="431"/>
      <point x="208" y="456"/>
      <point x="278" y="456" type="curve" smooth="yes"/>
      <point x="334" y="456"/>
      <point x="383" y="440"/>
      <point x="440" y="400" type="curve"/>
      <point x="440" y="489" type="line"/>
      <point x="387" y="521"/>
      <point x="329" y="534"/>
      <point x="274" y="534" type="curve" smooth="yes"/>
      <point x="156" y="534"/>
      <point x="76" y="474"/>
      <point x="76" y="380" type="curve" smooth="yes"/>
      <point x="76" y="282"/>
      <point x="167" y="255"/>
      <point x="248" y="233" type="curve" smooth="yes"/>
      <point x="314" y="214"/>
      <point x="374" y="198"/>
      <point x="374" y="145" type="curve" smooth="yes"/>
      <point x="374" y="97"/>
      <point x="325" y="66"/>
      <point x="252" y="66" type="curve" smooth="yes"/>
      <point x="189" y="66"/>
      <point x="129" y="89"/>
      <point x="66" y="136" type="curve"/>
      <point x="66" y="44" type="line"/>
      <point x="122" y="8"/>
      <point x="188" y="-12"/>
    </contour>
    <contour>
      <point x="264" y="638" type="move" name="top"/>
    </contour>
    <contour>
      <point x="264" y="-116" type="move" name="bottom"/>
    </contour>
  </outline>
</glyph>
<glyph name="t" format="1">
  <advance width="440"/>
  <unicode hex="0074"/>
  <outline>
    <contour>
      <point x="154" y="662" type="line"/>
      <point x="154" y="522" type="line"/>
      <point x="44" y="522" type="line"/>
      <point x="44" y="446" type="line"/>
      <point x="154" y="446" type="line"/>
      <point x="154" y="138" type="line" smooth="yes"/>
      <point x="154" y="48"/>
      <point x="204" y="-12"/>
      <point x="291" y="-12" type="curve" smooth="yes"/>
      <point x="331" y="-12"/>
      <point x="359" y="-10"/>
      <point x="396" y="6" type="curve"/>
      <point x="396" y="84" type="line"/>
      <point x="365" y="71"/>
      <point x="341" y="65"/>
      <point x="307" y="65" type="curve" smooth="yes"/>
      <point x="263" y="65"/>
      <point x="242" y="100"/>
      <point x="242" y="147" type="curve" smooth="yes"/>
      <point x="242" y="446" type="line"/>
      <point x="396" y="446" type="line"/>
      <point x="396" y="522" type="line"/>
      <point x="242" y="522" type="line"/>
      <point x="242" y="708" type="line"/>
    </contour>
    <contour>
      <point x="220" y="-116" type="move" name="bottom"/>
    </contour>
    <contour>
      <point x="430" y="638" type="move" name="caronalt"/>
    </contour>
  </outline>
</glyph>
<glyph name="u" format="1">
  <advance width="616"/>
  <unicode hex="0075"/>
  <outline>
    <contour>
      <point x="175" y="522" type="line"/>
      <point x="87" y="522" type="line"/>
      <point x="87" y="160" type="line" smooth="yes"/>
      <point x="87" y="58"/>
      <point x="140" y="-12"/>
      <point x="237" y="-12" type="curve" smooth="yes"/>
      <point x="323" y="-12"/>
      <point x="377" y="25"/>
      <point x="439" y="86" type="curve"/>
      <point x="439" y="155" type="line"/>
      <point x="382" y="103"/>
      <point x="337" y="67"/>
      <point x="260" y="67" type="curve" smooth="yes"/>
      <point x="203" y="67"/>
      <point x="175" y="111"/>
      <point x="175" y="172" type="curve" smooth="yes"/>
    </contour>
    <contour>
      <point x="505" y="522" type="line"/>
      <point x="417" y="522" type="line"/>
      <point x="417" y="116" type="line"/>
      <point x="439" y="0" type="line"/>
      <point x="527" y="0" type="line"/>
      <point x="505" y="116" type="line"/>
    </contour>
    <contour>
      <point x="308" y="638" type="move" name="top"/>
    </contour>
    <contour>
      <point x="308" y="-116" type="move" name="bottom"/>
    </contour>
    <contour>
      <point x="462" y="52" type="move" name="ogonek"/>
    </contour>
  </outline>
</glyph>
<glyph name="v" format="1">
  <advance width="594"/>
  <unicode hex="0076"/>
  <outline>
    <contour>
      <point x="325" y="0" type="line"/>
      <point x="134" y="522" type="line"/>
      <point x="44" y="522" type="line"/>
      <point x="237" y="0" type="line"/>
    </contour>
    <contour>
      <point x="357" y="0" type="line"/>
      <point x="550" y="522" type="line"/>
      <point x="464" y="522" type="line"/>
      <point x="273" y="0" type="line"/>
    </contour>
  </outline>
</glyph>
<glyph name="w" format="1">
  <advance width="880"/>
  <unicode hex="0077"/>
  <outline>
    <contour>
      <point x="292" y="0" type="line"/>
      <point x="134" y="522" type="line"/>
      <point x="44" y="522" type="line"/>
      <point x="204" y="0" type="line"/>
    </contour>
    <contour>
      <point x="318" y="0" type="line"/>
      <point x="476" y="522" type="line"/>
      <point x="396" y="522" type="line"/>
      <point x="240" y="0" type="line"/>
    </contour>
    <contour>
      <point x="644" y="0" type="line"/>
      <point x="486" y="522" type="line"/>
      <point x="402" y="522" type="line"/>
      <point x="562" y="0" type="line"/>
    </contour>
    <contour>
      <point x="676" y="0" type="line"/>
      <point x="835" y="522" type="line"/>
      <point x="749" y="522" type="line"/>
      <point x="592" y="0" type="line"/>
    </contour>
    <contour>
      <point x="440" y="638" type="move" name="top"/>
    </contour>
  </outline>
</glyph>
<glyph name="x" format="1">
  <advance width="572"/>
  <unicode hex="0078"/>
  <outline>
    <contour>
      <point x="550" y="0" type="line"/>
      <point x="146" y="522" type="line"/>
      <point x="44" y="522" type="line"/>
      <point x="448" y="0" type="line"/>
    </contour>
    <contour>
      <point x="260" y="310" type="line"/>
      <point x="22" y="0" type="line"/>
      <point x="117" y="0" type="line"/>
      <point x="300" y="244" type="line"/>
    </contour>
    <contour>
      <point x="313" y="241" type="line"/>
      <point x="528" y="522" type="line"/>
      <point x="433" y="522" type="line"/>
      <point x="273" y="307" type="line"/>
    </contour>
  </outline>
</glyph>
<glyph name="y" format="1">
  <advance width="594"/>
  <unicode hex="0079"/>
  <outline>
    <contour>
      <point x="333" y="0" type="line"/>
      <point x="134" y="522" type="line"/>
      <point x="44" y="522" type="line"/>
      <point x="255" y="-17" type="line"/>
    </contour>
    <contour>
      <point x="251" y="-232" type="line"/>
      <point x="550" y="522" type="line"/>
      <point x="456" y="522" type="line"/>
      <point x="281" y="50" type="line"/>
      <point x="273" y="50" type="line"/>
      <point x="161" y="-232" type="line"/>
    </contour>
    <contour>
      <point x="297" y="638" type="move" name="top"/>
    </contour>
  </outline>
</glyph>
<glyph name="z" format="1">
  <advance width="594"/>
  <unicode hex="007A"/>
  <outline>
    <contour>
      <point x="506" y="522" type="line"/>
      <point x="88" y="522" type="line"/>
      <point x="88" y="453" type="line"/>
      <point x="444" y="453" type="line"/>
      <point x="506" y="463" type="line"/>
    </contour>
    <contour>
      <point x="528" y="69" type="line"/>
      <point x="96" y="69" type="line"/>
      <point x="66" y="59" type="line"/>
      <point x="66" y="0" type="line"/>
      <point x="528" y="0" type="line"/>
    </contour>
    <contour>
      <point x="171" y="59" type="line"/>
      <point x="506" y="463" type="line"/>
      <point x="402" y="463" type="line"/>
      <point x="66" y="59" type="line"/>
    </contour>
    <contour>
      <point x="297" y="638" type="move" name="top"/>
    </contour>
    <contour>
      <point x="297" y="-116" type="move" name="bottom"/>
    </contour>
  </outline>
</glyph>
<glyph name="braceleft" format="1">
  <advance width="418"/>
  <unicode hex="007B"/>
  <outline>
    <contour>
      <point x="248" y="629" type="line" smooth="yes"/>
      <point x="248" y="683"/>
      <point x="272" y="736"/>
      <point x="320" y="736" type="curve" smooth="yes"/>
      <point x="374" y="736" type="line"/>
      <point x="374" y="812" type="line"/>
      <point x="312" y="812" type="line" smooth="yes"/>
      <point x="223" y="812"/>
      <point x="165" y="727"/>
      <point x="165" y="632" type="curve" smooth="yes"/>
      <point x="165" y="483" type="line" smooth="yes"/>
      <point x="165" y="416"/>
      <point x="132" y="380"/>
      <point x="66" y="380" type="curve"/>
      <point x="66" y="315" type="line"/>
      <point x="132" y="315"/>
      <point x="165" y="279"/>
      <point x="165" y="212" type="curve" smooth="yes"/>
      <point x="165" y="64" type="line" smooth="yes"/>
      <point x="165" y="-31"/>
      <point x="222" y="-116"/>
      <point x="311" y="-116" type="curve" smooth="yes"/>
      <point x="374" y="-116" type="line"/>
      <point x="374" y="-40" type="line"/>
      <point x="320" y="-40" type="line" smooth="yes"/>
      <point x="272" y="-40"/>
      <point x="248" y="13"/>
      <point x="248" y="67" type="curve" smooth="yes"/>
      <point x="248" y="207" type="line" smooth="yes"/>
      <point x="248" y="271"/>
      <point x="223" y="325"/>
      <point x="180" y="347" type="curve"/>
      <point x="223" y="370"/>
      <point x="248" y="423"/>
      <point x="248" y="488" type="curve" smooth="yes"/>
    </contour>
  </outline>
</glyph>
<glyph name="bar" format="1">
  <advance width="308"/>
  <unicode hex="007C"/>
  <outline>
    <contour>
      <point x="110" y="-116" type="line"/>
      <point x="198" y="-116" type="line"/>
      <point x="198" y="812" type="line"/>
      <point x="110" y="812" type="line"/>
    </contour>
  </outline>
</glyph>
<glyph name="braceright" format="1">
  <advance width="418"/>
  <unicode hex="007D"/>
  <outline>
    <contour>
      <point x="170" y="488" type="line" smooth="yes"/>
      <point x="170" y="423"/>
      <point x="195" y="370"/>
      <point x="238" y="347" type="curve"/>
      <point x="195" y="325"/>
      <point x="170" y="271"/>
      <point x="170" y="207" type="curve" smooth="yes"/>
      <point x="170" y="67" type="line" smooth="yes"/>
      <point x="170" y="13"/>
      <point x="146" y="-40"/>
      <point x="98" y="-40" type="curve" smooth="yes"/>
      <point x="44" y="-40" type="line"/>
      <point x="44" y="-116" type="line"/>
      <point x="107" y="-116" type="line" smooth="yes"/>
      <point x="196" y="-116"/>
      <point x="253" y="-31"/>
      <point x="253" y="64" type="curve" smooth="yes"/>
      <point x="253" y="212" type="line" smooth="yes"/>
      <point x="253" y="279"/>
      <point x="286" y="315"/>
      <point x="352" y="315" type="curve"/>
      <point x="352" y="380" type="line"/>
      <point x="286" y="380"/>
      <point x="253" y="416"/>
      <point x="253" y="483" type="curve" smooth="yes"/>
      <point x="253" y="632" type="line" smooth="yes"/>
      <point x="253" y="727"/>
      <point x="195" y="812"/>
      <point x="106" y="812" type="curve" smooth="yes"/>
      <point x="44" y="812" type="line"/>
      <point x="44" y="736" type="line"/>
      <point x="98" y="736" type="line" smooth="yes"/>
      <point x="146" y="736"/>
      <point x="170" y="683"/>
      <point x="170" y="629" type="curve" smooth="yes"/>
    </contour>
  </outline>
</glyph>
<glyph name="asciitilde" format="1">
  <advance width="528"/>
  <unicode hex="007E"/>
  <outline>
    <contour>
      <point x="344" y="255" type="curve" smooth="yes"/>
      <point x="381" y="255"/>
      <point x="420" y="266"/>
      <point x="462" y="297" type="curve"/>
      <point x="462" y="372" type="line"/>
      <point x="424" y="346"/>
      <point x="385" y="335"/>
      <point x="349" y="335" type="curve" smooth="yes"/>
      <point x="289" y="335"/>
      <point x="247" y="383"/>
      <point x="184" y="383" type="curve" smooth="yes"/>
      <point x="147" y="383"/>
      <point x="108" y="369"/>
      <point x="66" y="330" type="curve"/>
      <point x="66" y="255" type="line"/>
      <point x="104" y="289"/>
      <point x="143" y="303"/>
      <point x="179" y="303" type="curve" smooth="yes"/>
      <point x="239" y="303"/>
      <point x="279" y="255"/>
    </contour>
  </outline>
</glyph>
<glyph name="exclamdown" format="1">
  <advance width="308"/>
  <unicode hex="00A1"/>
  <outline>
    <contour>
      <point x="110" y="312" type="line"/>
      <point x="110" y="-232" type="line"/>
      <point x="198" y="-232" type="line"/>
      <point x="198" y="312" type="line"/>
    </contour>
    <contour>
      <point x="154" y="534" type="curve"/>
      <point x="116" y="534"/>
      <point x="88" y="506"/>
      <point x="88" y="468" type="curve" smooth="yes"/>
      <point x="88" y="429"/>
      <point x="115" y="400"/>
      <point x="154" y="400" type="curve" smooth="yes"/>
      <point x="193" y="400"/>
      <point x="220" y="429"/>
      <point x="220" y="468" type="curve" smooth="yes"/>
      <point x="220" y="506"/>
      <point x="192" y="534"/>
    </contour>
  </outline>
</glyph>
<glyph name="cent" format="1">
  <advance width="594"/>
  <unicode hex="00A2"/>
  <outline>
    <contour>
      <point x="303" y="-116" type="line"/>
      <point x="369" y="-116" type="line"/>
      <point x="369" y="638" type="line"/>
      <point x="303" y="638" type="line"/>
    </contour>
    <contour>
      <point x="340" y="454" type="curve" smooth="yes"/>
      <point x="409" y="454"/>
      <point x="460" y="438"/>
      <point x="513" y="398" type="curve"/>
      <point x="517" y="398" type="line"/>
      <point x="517" y="483" type="line"/>
      <point x="464" y="524"/>
      <point x="410" y="534"/>
      <point x="341" y="534" type="curve" smooth="yes"/>
      <point x="169" y="534"/>
      <point x="66" y="417"/>
      <point x="66" y="259" type="curve" smooth="yes"/>
      <point x="66" y="103"/>
      <point x="169" y="-12"/>
      <point x="340" y="-12" type="curve" smooth="yes"/>
      <point x="415" y="-12"/>
      <point x="474" y="4"/>
      <point x="528" y="52" type="curve"/>
      <point x="528" y="137" type="line"/>
      <point x="524" y="137" type="line"/>
      <point x="468" y="90"/>
      <point x="414" y="68"/>
      <point x="339" y="68" type="curve" smooth="yes"/>
      <point x="221" y="68"/>
      <point x="159" y="152"/>
      <point x="159" y="258" type="curve" smooth="yes"/>
      <point x="159" y="367"/>
      <point x="219" y="454"/>
    </contour>
  </outline>
</glyph>
<glyph name="sterling" format="1">
  <advance width="594"/>
  <unicode hex="00A3"/>
  <outline>
    <contour>
      <point x="22" y="316" type="line"/>
      <point x="396" y="316" type="line"/>
      <point x="396" y="386" type="line"/>
      <point x="22" y="386" type="line"/>
    </contour>
    <contour>
      <point x="326" y="631" type="curve" smooth="yes"/>
      <point x="380" y="631"/>
      <point x="429" y="610"/>
      <point x="488" y="559" type="curve"/>
      <point x="492" y="559" type="line"/>
      <point x="492" y="647" type="line"/>
      <point x="437" y="694"/>
      <point x="380" y="708"/>
      <point x="323" y="708" type="curve" smooth="yes"/>
      <point x="182" y="708"/>
      <point x="110" y="621"/>
      <point x="110" y="480" type="curve" smooth="yes"/>
      <point x="110" y="0" type="line"/>
      <point x="528" y="0" type="line"/>
      <point x="528" y="84" type="line"/>
      <point x="198" y="84" type="line"/>
      <point x="198" y="490" type="line" smooth="yes"/>
      <point x="198" y="568"/>
      <point x="233" y="631"/>
    </contour>
  </outline>
</glyph>
<glyph name="currency" format="1">
  <advance width="594"/>
  <unicode hex="00A4"/>
  <outline>
    <contour>
      <point x="78" y="329" type="curve" smooth="yes"/>
      <point x="78" y="199"/>
      <point x="168" y="112"/>
      <point x="298" y="112" type="curve" smooth="yes"/>
      <point x="428" y="112"/>
      <point x="516" y="199"/>
      <point x="516" y="329" type="curve" smooth="yes"/>
      <point x="516" y="459"/>
      <point x="428" y="551"/>
      <point x="298" y="551" type="curve" smooth="yes"/>
      <point x="168" y="551"/>
      <point x="78" y="459"/>
    </contour>
    <contour>
      <point x="154" y="332" type="curve" smooth="yes"/>
      <point x="154" y="423"/>
      <point x="216" y="478"/>
      <point x="298" y="478" type="curve" smooth="yes"/>
      <point x="380" y="478"/>
      <point x="439" y="423"/>
      <point x="439" y="332" type="curve" smooth="yes"/>
      <point x="439" y="241"/>
      <point x="381" y="181"/>
      <point x="298" y="181" type="curve" smooth="yes"/>
      <point x="215" y="181"/>
      <point x="154" y="242"/>
    </contour>
    <contour>
      <point x="158" y="423" type="line"/>
      <point x="206" y="471" type="line"/>
      <point x="77" y="601" type="line"/>
      <point x="28" y="552" type="line"/>
    </contour>
    <contour>
      <point x="567" y="552" type="line"/>
      <point x="518" y="601" type="line"/>
      <point x="397" y="480" type="line"/>
      <point x="446" y="431" type="line"/>
    </contour>
    <contour>
      <point x="518" y="62" type="line"/>
      <point x="567" y="111" type="line"/>
      <point x="437" y="240" type="line"/>
      <point x="389" y="192" type="line"/>
    </contour>
    <contour>
      <point x="198" y="183" type="line"/>
      <point x="149" y="232" type="line"/>
      <point x="28" y="111" type="line"/>
      <point x="77" y="62" type="line"/>
    </contour>
  </outline>
</glyph>
<glyph name="yen" format="1">
  <advance width="594"/>
  <unicode hex="00A5"/>
  <outline>
    <contour>
      <point x="253" y="240" type="line"/>
      <point x="253" y="0" type="line"/>
      <point x="341" y="0" type="line"/>
      <point x="341" y="240" type="line"/>
      <point x="572" y="696" type="line"/>
      <point x="474" y="696" type="line"/>
      <point x="297" y="323" type="line"/>
      <point x="125" y="696" type="line"/>
      <point x="22" y="696" type="line"/>
    </contour>
    <contour>
      <point x="110" y="94" type="line"/>
      <point x="484" y="94" type="line"/>
      <point x="484" y="164" type="line"/>
      <point x="110" y="164" type="line"/>
    </contour>
    <contour>
      <point x="110" y="238" type="line"/>
      <point x="484" y="238" type="line"/>
      <point x="484" y="308" type="line"/>
      <point x="110" y="308" type="line"/>
    </contour>
  </outline>
</glyph>
<glyph name="brokenbar" format="1">
  <advance width="308"/>
  <unicode hex="00A6"/>
  <outline>
    <contour>
      <point x="110" y="-116" type="line"/>
      <point x="198" y="-116" type="line"/>
      <point x="198" y="291" type="line"/>
      <point x="110" y="291" type="line"/>
    </contour>
    <contour>
      <point x="110" y="406" type="line"/>
      <point x="198" y="406" type="line"/>
      <point x="198" y="813" type="line"/>
      <point x="110" y="813" type="line"/>
    </contour>
  </outline>
</glyph>
<glyph name="section" format="1">
  <advance width="550"/>
  <unicode hex="00A7"/>
  <outline>
    <contour>
      <point x="413" y="82" type="line"/>
      <point x="458" y="118"/>
      <point x="484" y="173"/>
      <point x="484" y="237" type="curve" smooth="yes"/>
      <point x="484" y="466"/>
      <point x="157" y="402"/>
      <point x="157" y="543" type="curve" smooth="yes"/>
      <point x="157" y="597"/>
      <point x="206" y="627"/>
      <point x="288" y="627" type="curve" smooth="yes"/>
      <point x="352" y="627"/>
      <point x="417" y="609"/>
      <point x="485" y="571" type="curve"/>
      <point x="485" y="663" type="line"/>
      <point x="426" y="692"/>
      <point x="357" y="708"/>
      <point x="288" y="708" type="curve" smooth="yes"/>
      <point x="149" y="708"/>
      <point x="66" y="642"/>
      <point x="66" y="534" type="curve" smooth="yes"/>
      <point x="66" y="321"/>
      <point x="392" y="390"/>
      <point x="392" y="229" type="curve" smooth="yes"/>
      <point x="392" y="194"/>
      <point x="377" y="164"/>
      <point x="351" y="144" type="curve"/>
    </contour>
    <contour>
      <point x="137" y="452" type="line"/>
      <point x="92" y="416"/>
      <point x="66" y="361"/>
      <point x="66" y="297" type="curve" smooth="yes"/>
      <point x="66" y="68"/>
      <point x="393" y="132"/>
      <point x="393" y="-9" type="curve" smooth="yes"/>
      <point x="393" y="-63"/>
      <point x="345" y="-93"/>
      <point x="263" y="-93" type="curve" smooth="yes"/>
      <point x="199" y="-93"/>
      <point x="134" y="-75"/>
      <point x="66" y="-37" type="curve"/>
      <point x="66" y="-129" type="line"/>
      <point x="124" y="-158"/>
      <point x="194" y="-174"/>
      <point x="263" y="-174" type="curve" smooth="yes"/>
      <point x="402" y="-174"/>
      <point x="484" y="-108"/>
      <point x="484" y="0" type="curve" smooth="yes"/>
      <point x="484" y="214"/>
      <point x="158" y="144"/>
      <point x="158" y="305" type="curve" smooth="yes"/>
      <point x="158" y="340"/>
      <point x="173" y="370"/>
      <point x="199" y="390" type="curve"/>
    </contour>
  </outline>
</glyph>
<glyph name="dieresis" format="1">
  <advance width="484"/>
  <unicode hex="00A8"/>
  <outline>
    <contour>
      <point x="128" y="645" type="curve" smooth="yes"/>
      <point x="167" y="645"/>
      <point x="191" y="667"/>
      <point x="191" y="705" type="curve" smooth="yes"/>
      <point x="191" y="744"/>
      <point x="167" y="766"/>
      <point x="128" y="766" type="curve" smooth="yes"/>
      <point x="90" y="766"/>
      <point x="66" y="744"/>
      <point x="66" y="705" type="curve" smooth="yes"/>
      <point x="66" y="667"/>
      <point x="90" y="645"/>
    </contour>
    <contour>
      <point x="355" y="645" type="curve" smooth="yes"/>
      <point x="394" y="645"/>
      <point x="418" y="667"/>
      <point x="418" y="705" type="curve" smooth="yes"/>
      <point x="418" y="744"/>
      <point x="394" y="766"/>
      <point x="355" y="766" type="curve" smooth="yes"/>
      <point x="317" y="766"/>
      <point x="293" y="744"/>
      <point x="293" y="705" type="curve" smooth="yes"/>
      <point x="293" y="667"/>
      <point x="317" y="645"/>
    </contour>
    <contour>
      <point x="242" y="638" type="move" name="_top"/>
    </contour>
  </outline>
</glyph>
<glyph name="copyright" format="1">
  <advance width="858"/>
  <unicode hex="00A9"/>
  <outline>
    <contour>
      <point x="66" y="344" type="curve" smooth="yes"/>
      <point x="66" y="134"/>
      <point x="219" y="-12"/>
      <point x="433" y="-12" type="curve" smooth="yes"/>
      <point x="643" y="-12"/>
      <point x="792" y="134"/>
      <point x="792" y="344" type="curve" smooth="yes"/>
      <point x="792" y="558"/>
      <point x="643" y="708"/>
      <point x="433" y="708" type="curve" smooth="yes"/>
      <point x="219" y="708"/>
      <point x="66" y="558"/>
    </contour>
    <contour>
      <point x="142" y="344" type="curve" smooth="yes"/>
      <point x="142" y="521"/>
      <point x="263" y="642"/>
      <point x="433" y="642" type="curve" smooth="yes"/>
      <point x="598" y="642"/>
      <point x="716" y="521"/>
      <point x="716" y="344" type="curve" smooth="yes"/>
      <point x="716" y="170"/>
      <point x="598" y="54"/>
      <point x="433" y="54" type="curve" smooth="yes"/>
      <point x="263" y="54"/>
      <point x="142" y="170"/>
    </contour>
    <contour>
      <point x="429" y="486" type="curve" smooth="yes"/>
      <point x="478" y="486"/>
      <point x="515" y="474"/>
      <point x="553" y="443" type="curve"/>
      <point x="557" y="443" type="line"/>
      <point x="557" y="519" type="line"/>
      <point x="519" y="551"/>
      <point x="479" y="558"/>
      <point x="430" y="558" type="curve" smooth="yes"/>
      <point x="313" y="558"/>
      <point x="243" y="468"/>
      <point x="243" y="347" type="curve" smooth="yes"/>
      <point x="243" y="226"/>
      <point x="313" y="138"/>
      <point x="429" y="138" type="curve" smooth="yes"/>
      <point x="483" y="138"/>
      <point x="526" y="150"/>
      <point x="565" y="187" type="curve"/>
      <point x="565" y="263" type="line"/>
      <point x="561" y="263" type="line"/>
      <point x="522" y="227"/>
      <point x="483" y="210"/>
      <point x="428" y="210" type="curve" smooth="yes"/>
      <point x="361" y="210"/>
      <point x="326" y="270"/>
      <point x="326" y="346" type="curve" smooth="yes"/>
      <point x="326" y="424"/>
      <point x="360" y="486"/>
    </contour>
  </outline>
</glyph>
<glyph name="ordfeminine" format="1">
  <advance width="330"/>
  <unicode hex="00AA"/>
  <outline>
    <contour>
      <point x="137" y="420" type="curve" smooth="yes"/>
      <point x="184" y="420"/>
      <point x="219" y="444"/>
      <point x="248" y="483" type="curve"/>
      <point x="248" y="536" type="line"/>
      <point x="221" y="498"/>
      <point x="188" y="475"/>
      <point x="151" y="475" type="curve" smooth="yes"/>
      <point x="124" y="475"/>
      <point x="111" y="487"/>
      <point x="111" y="506" type="curve" smooth="yes"/>
      <point x="111" y="535"/>
      <point x="139" y="548"/>
      <point x="171" y="548" type="curve" smooth="yes"/>
      <point x="248" y="548" type="line"/>
      <point x="248" y="590" type="line"/>
      <point x="221" y="593"/>
      <point x="197" y="594"/>
      <point x="181" y="594" type="curve" smooth="yes"/>
      <point x="101" y="594"/>
      <point x="44" y="573"/>
      <point x="44" y="507" type="curve" smooth="yes"/>
      <point x="44" y="453"/>
      <point x="81" y="420"/>
    </contour>
    <contour>
      <point x="235" y="427" type="line"/>
      <point x="297" y="427" type="line"/>
      <point x="286" y="488" type="line"/>
      <point x="286" y="609" type="line" smooth="yes"/>
      <point x="286" y="669"/>
      <point x="243" y="708"/>
      <point x="169" y="708" type="curve" smooth="yes"/>
      <point x="133" y="708"/>
      <point x="97" y="699"/>
      <point x="67" y="678" type="curve"/>
      <point x="67" y="616" type="line"/>
      <point x="99" y="638"/>
      <point x="130" y="650"/>
      <point x="162" y="650" type="curve" smooth="yes"/>
      <point x="203" y="650"/>
      <point x="223" y="631"/>
      <point x="223" y="603" type="curve" smooth="yes"/>
      <point x="223" y="488" type="line"/>
    </contour>
  </outline>
</glyph>
<glyph name="guillemotleft" format="1">
  <advance width="572"/>
  <unicode hex="00AB"/>
  <outline>
    <contour>
      <point x="127" y="267" type="line"/>
      <point x="308" y="464" type="line"/>
      <point x="209" y="464" type="line"/>
      <point x="22" y="267" type="line"/>
      <point x="22" y="263" type="line"/>
      <point x="199" y="58" type="line"/>
      <point x="308" y="58" type="line"/>
      <point x="127" y="263" type="line"/>
    </contour>
    <contour>
      <point x="347" y="267" type="line"/>
      <point x="528" y="464" type="line"/>
      <point x="429" y="464" type="line"/>
      <point x="242" y="267" type="line"/>
      <point x="242" y="263" type="line"/>
      <point x="419" y="58" type="line"/>
      <point x="528" y="58" type="line"/>
      <point x="347" y="263" type="line"/>
    </contour>
  </outline>
</glyph>
<glyph name="logicalnot" format="1">
  <advance width="550"/>
  <unicode hex="00AC"/>
  <outline>
    <contour>
      <point x="66" y="290" type="line"/>
      <point x="396" y="290" type="line"/>
      <point x="396" y="138" type="line"/>
      <point x="484" y="138" type="line"/>
      <point x="484" y="366" type="line"/>
      <point x="66" y="366" type="line"/>
    </contour>
  </outline>
</glyph>
<glyph name="uni00AD" format="1">
  <advance width="506"/>
  <unicode hex="00AD"/>
  <outline>
    <contour>
      <point x="66" y="232" type="line"/>
      <point x="440" y="232" type="line"/>
      <point x="440" y="308" type="line"/>
      <point x="66" y="308" type="line"/>
    </contour>
  </outline>
</glyph>
<glyph name="registered" format="1">
  <advance width="682"/>
  <unicode hex="00AE"/>
  <outline>
    <contour>
      <point x="66" y="432" type="curve" smooth="yes"/>
      <point x="66" y="272"/>
      <point x="182" y="162"/>
      <point x="344" y="162" type="curve" smooth="yes"/>
      <point x="504" y="162"/>
      <point x="616" y="272"/>
      <point x="616" y="432" type="curve" smooth="yes"/>
      <point x="616" y="595"/>
      <point x="504" y="708"/>
      <point x="344" y="708" type="curve" smooth="yes"/>
      <point x="182" y="708"/>
      <point x="66" y="595"/>
    </contour>
    <contour>
      <point x="127" y="433" type="curve" smooth="yes"/>
      <point x="127" y="565"/>
      <point x="215" y="653"/>
      <point x="344" y="653" type="curve" smooth="yes"/>
      <point x="470" y="653"/>
      <point x="556" y="565"/>
      <point x="556" y="433" type="curve" smooth="yes"/>
      <point x="556" y="302"/>
      <point x="470" y="218"/>
      <point x="344" y="218" type="curve" smooth="yes"/>
      <point x="215" y="218"/>
      <point x="127" y="302"/>
    </contour>
    <contour>
      <point x="238" y="587" type="line"/>
      <point x="238" y="287" type="line"/>
      <point x="286" y="287" type="line"/>
      <point x="286" y="394" type="line"/>
      <point x="358" y="394" type="line" smooth="yes"/>
      <point x="426" y="394"/>
      <point x="462" y="432"/>
      <point x="462" y="492" type="curve" smooth="yes"/>
      <point x="462" y="553"/>
      <point x="427" y="587"/>
      <point x="353" y="587" type="curve" smooth="yes"/>
    </contour>
    <contour>
      <point x="353" y="541" type="line" smooth="yes"/>
      <point x="393" y="541"/>
      <point x="412" y="529"/>
      <point x="412" y="492" type="curve" smooth="yes"/>
      <point x="412" y="452"/>
      <point x="393" y="439"/>
      <point x="353" y="439" type="curve" smooth="yes"/>
      <point x="286" y="439" type="line"/>
      <point x="286" y="541" type="line"/>
    </contour>
    <contour>
      <point x="472" y="287" type="line"/>
      <point x="400" y="422" type="line"/>
      <point x="354" y="403" type="line"/>
      <point x="416" y="287" type="line"/>
    </contour>
  </outline>
</glyph>
<glyph name="macron" format="1">
  <advance width="462"/>
  <unicode hex="00AF"/>
  <outline>
    <contour>
      <point x="66" y="676" type="line"/>
      <point x="396" y="676" type="line"/>
      <point x="396" y="734" type="line"/>
      <point x="66" y="734" type="line"/>
    </contour>
    <contour>
      <point x="231" y="638" type="move" name="_top"/>
    </contour>
  </outline>
</glyph>
<glyph name="degree" format="1">
  <advance width="374"/>
  <unicode hex="00B0"/>
  <outline>
    <contour>
      <point x="44" y="562" type="curve" smooth="yes"/>
      <point x="44" y="478"/>
      <point x="103" y="420"/>
      <point x="188" y="420" type="curve" smooth="yes"/>
      <point x="272" y="420"/>
      <point x="330" y="478"/>
      <point x="330" y="562" type="curve" smooth="yes"/>
      <point x="330" y="647"/>
      <point x="272" y="707"/>
      <point x="188" y="707" type="curve" smooth="yes"/>
      <point x="103" y="707"/>
      <point x="44" y="647"/>
    </contour>
    <contour>
      <point x="110" y="564" type="curve" smooth="yes"/>
      <point x="110" y="613"/>
      <point x="144" y="643"/>
      <point x="188" y="643" type="curve" smooth="yes"/>
      <point x="231" y="643"/>
      <point x="263" y="613"/>
      <point x="263" y="564" type="curve" smooth="yes"/>
      <point x="263" y="515"/>
      <point x="232" y="483"/>
      <point x="188" y="483" type="curve" smooth="yes"/>
      <point x="143" y="483"/>
      <point x="110" y="515"/>
    </contour>
  </outline>
</glyph>
<glyph name="twosuperior" format="1">
  <advance width="286"/>
  <unicode hex="00B2"/>
  <outline>
    <contour>
      <point x="44" y="531" type="line"/>
      <point x="129" y="531" type="line"/>
      <point x="186" y="582" type="line" smooth="yes"/>
      <point x="225" y="617"/>
      <point x="242" y="644"/>
      <point x="242" y="680" type="curve" smooth="yes"/>
      <point x="242" y="745"/>
      <point x="185" y="766"/>
      <point x="136" y="766" type="curve" smooth="yes"/>
      <point x="109" y="766"/>
      <point x="83" y="759"/>
      <point x="58" y="746" type="curve"/>
      <point x="58" y="689" type="line"/>
      <point x="82" y="704"/>
      <point x="109" y="711"/>
      <point x="133" y="711" type="curve" smooth="yes"/>
      <point x="166" y="711"/>
      <point x="184" y="700"/>
      <point x="184" y="676" type="curve" smooth="yes"/>
      <point x="184" y="661"/>
      <point x="177" y="644"/>
      <point x="144" y="616" type="curve" smooth="yes"/>
    </contour>
    <contour>
      <point x="44" y="482" type="line"/>
      <point x="242" y="482" type="line"/>
      <point x="242" y="538" type="line"/>
      <point x="59" y="538" type="line"/>
      <point x="44" y="531" type="line"/>
    </contour>
  </outline>
</glyph>
<glyph name="threesuperior" format="1">
  <advance width="286"/>
  <unicode hex="00B3"/>
  <outline>
    <contour>
      <point x="125" y="478" type="curve" smooth="yes"/>
      <point x="195" y="478"/>
      <point x="242" y="513"/>
      <point x="242" y="563" type="curve" smooth="yes"/>
      <point x="242" y="612"/>
      <point x="198" y="647"/>
      <point x="130" y="647" type="curve" smooth="yes"/>
      <point x="96" y="647" type="line"/>
      <point x="96" y="601" type="line"/>
      <point x="114" y="601" type="line" smooth="yes"/>
      <point x="165" y="601"/>
      <point x="183" y="584"/>
      <point x="183" y="562" type="curve" smooth="yes"/>
      <point x="183" y="543"/>
      <point x="165" y="531"/>
      <point x="126" y="531" type="curve" smooth="yes"/>
      <point x="96" y="531"/>
      <point x="75" y="539"/>
      <point x="48" y="558" type="curve"/>
      <point x="44" y="558" type="line"/>
      <point x="44" y="501" type="line"/>
      <point x="70" y="485"/>
      <point x="94" y="478"/>
    </contour>
    <contour>
      <point x="96" y="608" type="line"/>
      <point x="131" y="608" type="line" smooth="yes"/>
      <point x="193" y="608"/>
      <point x="236" y="642"/>
      <point x="236" y="689" type="curve" smooth="yes"/>
      <point x="236" y="735"/>
      <point x="194" y="766"/>
      <point x="138" y="766" type="curve" smooth="yes"/>
      <point x="104" y="766"/>
      <point x="82" y="758"/>
      <point x="56" y="743" type="curve"/>
      <point x="56" y="689" type="line"/>
      <point x="60" y="689" type="line"/>
      <point x="87" y="707"/>
      <point x="102" y="715"/>
      <point x="130" y="715" type="curve" smooth="yes"/>
      <point x="167" y="715"/>
      <point x="177" y="703"/>
      <point x="177" y="688" type="curve" smooth="yes"/>
      <point x="177" y="667"/>
      <point x="154" y="655"/>
      <point x="114" y="655" type="curve" smooth="yes"/>
      <point x="96" y="655" type="line"/>
    </contour>
  </outline>
</glyph>
<glyph name="acute" format="1">
  <advance width="352"/>
  <unicode hex="00B4"/>
  <outline>
    <contour>
      <point x="232" y="825" type="line"/>
      <point x="66" y="672" type="line"/>
      <point x="97" y="638" type="line"/>
      <point x="286" y="755" type="line"/>
    </contour>
    <contour>
      <point x="176" y="638" type="move" name="_top"/>
    </contour>
  </outline>
</glyph>
<glyph name="paragraph" format="1">
  <advance width="682"/>
  <unicode hex="00B6"/>
  <outline>
    <contour>
      <point x="418" y="696" type="line"/>
      <point x="304" y="696" type="line" smooth="yes"/>
      <point x="130" y="696"/>
      <point x="44" y="620"/>
      <point x="44" y="468" type="curve" smooth="yes"/>
      <point x="44" y="314"/>
      <point x="132" y="232"/>
      <point x="297" y="232" type="curve" smooth="yes"/>
      <point x="330" y="232" type="line"/>
      <point x="330" y="-116" type="line"/>
      <point x="418" y="-116" type="line"/>
    </contour>
    <contour>
      <point x="484" y="-116" type="line"/>
      <point x="572" y="-116" type="line"/>
      <point x="572" y="696" type="line"/>
      <point x="484" y="696" type="line"/>
    </contour>
  </outline>
</glyph>
<glyph name="cedilla" format="1">
  <advance width="352"/>
  <unicode hex="00B8"/>
  <outline>
    <contour>
      <point x="168" y="-244" type="curve" smooth="yes"/>
      <point x="227" y="-244"/>
      <point x="286" y="-216"/>
      <point x="286" y="-148" type="curve" smooth="yes"/>
      <point x="286" y="-89"/>
      <point x="241" y="-58"/>
      <point x="168" y="-58" type="curve"/>
      <point x="188" y="11" type="line"/>
      <point x="144" y="11" type="line"/>
      <point x="110" y="-113" type="line"/>
      <point x="113" y="-116" type="line"/>
      <point x="142" y="-116" type="line" smooth="yes"/>
      <point x="199" y="-116"/>
      <point x="220" y="-130"/>
      <point x="220" y="-153" type="curve" smooth="yes"/>
      <point x="220" y="-180"/>
      <point x="193" y="-192"/>
      <point x="163" y="-192" type="curve" smooth="yes"/>
      <point x="143" y="-192"/>
      <point x="101" y="-187"/>
      <point x="70" y="-173" type="curve"/>
      <point x="66" y="-173" type="line"/>
      <point x="66" y="-218" type="line"/>
      <point x="96" y="-236"/>
      <point x="137" y="-244"/>
    </contour>
    <contour>
      <point x="176" y="-116" type="move" name="_bottom"/>
    </contour>
  </outline>
</glyph>
<glyph name="onesuperior" format="1">
  <advance width="264"/>
  <unicode hex="00B9"/>
  <outline>
    <contour>
      <point x="167" y="489" type="line"/>
      <point x="167" y="735" type="line"/>
      <point x="110" y="735" type="line"/>
      <point x="110" y="489" type="line"/>
    </contour>
    <contour>
      <point x="220" y="476" type="line"/>
      <point x="220" y="531" type="line"/>
      <point x="44" y="531" type="line"/>
      <point x="44" y="476" type="line"/>
    </contour>
    <contour>
      <point x="167" y="691" type="line"/>
      <point x="167" y="754" type="line"/>
      <point x="118" y="754" type="line"/>
      <point x="44" y="705" type="line"/>
      <point x="52" y="656" type="line"/>
      <point x="118" y="691" type="line"/>
    </contour>
  </outline>
</glyph>
<glyph name="ordmasculine" format="1">
  <advance width="352"/>
  <unicode hex="00BA"/>
  <outline>
    <contour>
      <point x="176" y="420" type="curve" smooth="yes"/>
      <point x="262" y="420"/>
      <point x="308" y="479"/>
      <point x="308" y="564" type="curve" smooth="yes"/>
      <point x="308" y="649"/>
      <point x="262" y="708"/>
      <point x="176" y="708" type="curve" smooth="yes"/>
      <point x="90" y="708"/>
      <point x="44" y="649"/>
      <point x="44" y="564" type="curve" smooth="yes"/>
      <point x="44" y="479"/>
      <point x="90" y="420"/>
    </contour>
    <contour>
      <point x="177" y="477" type="curve" smooth="yes"/>
      <point x="130" y="477"/>
      <point x="111" y="516"/>
      <point x="111" y="564" type="curve" smooth="yes"/>
      <point x="111" y="611"/>
      <point x="130" y="651"/>
      <point x="177" y="651" type="curve" smooth="yes"/>
      <point x="222" y="651"/>
      <point x="241" y="612"/>
      <point x="241" y="564" type="curve" smooth="yes"/>
      <point x="241" y="515"/>
      <point x="222" y="477"/>
    </contour>
  </outline>
</glyph>
<glyph name="guillemotright" format="1">
  <advance width="572"/>
  <unicode hex="00BB"/>
  <outline>
    <contour>
      <point x="445" y="255" type="line"/>
      <point x="264" y="58" type="line"/>
      <point x="363" y="58" type="line"/>
      <point x="550" y="255" type="line"/>
      <point x="550" y="259" type="line"/>
      <point x="373" y="464" type="line"/>
      <point x="264" y="464" type="line"/>
      <point x="445" y="259" type="line"/>
    </contour>
    <contour>
      <point x="225" y="255" type="line"/>
      <point x="44" y="58" type="line"/>
      <point x="143" y="58" type="line"/>
      <point x="330" y="255" type="line"/>
      <point x="330" y="259" type="line"/>
      <point x="153" y="464" type="line"/>
      <point x="44" y="464" type="line"/>
      <point x="225" y="259" type="line"/>
    </contour>
  </outline>
</glyph>
<glyph name="questiondown" format="1">
  <advance width="550"/>
  <unicode hex="00BF"/>
  <outline>
    <contour>
      <point x="307" y="-244" type="curve" smooth="yes"/>
      <point x="380" y="-244"/>
      <point x="444" y="-228"/>
      <point x="506" y="-189" type="curve"/>
      <point x="506" y="-104" type="line"/>
      <point x="502" y="-104" type="line"/>
      <point x="443" y="-141"/>
      <point x="385" y="-161"/>
      <point x="315" y="-161" type="curve" smooth="yes"/>
      <point x="229" y="-161"/>
      <point x="156" y="-114"/>
      <point x="156" y="-34" type="curve" smooth="yes"/>
      <point x="156" y="63"/>
      <point x="262" y="95"/>
      <point x="374" y="95" type="curve"/>
      <point x="374" y="166" type="line"/>
      <point x="310" y="166" type="line" smooth="yes"/>
      <point x="175" y="166"/>
      <point x="66" y="86"/>
      <point x="66" y="-42" type="curve" smooth="yes"/>
      <point x="66" y="-167"/>
      <point x="175" y="-244"/>
    </contour>
    <contour>
      <point x="331" y="534" type="curve" smooth="yes"/>
      <point x="293" y="534"/>
      <point x="265" y="506"/>
      <point x="265" y="468" type="curve" smooth="yes"/>
      <point x="265" y="429"/>
      <point x="292" y="400"/>
      <point x="331" y="400" type="curve" smooth="yes"/>
      <point x="370" y="400"/>
      <point x="397" y="429"/>
      <point x="397" y="468" type="curve" smooth="yes"/>
      <point x="397" y="506"/>
      <point x="369" y="534"/>
    </contour>
    <contour>
      <point x="286" y="312" type="line"/>
      <point x="286" y="123" type="line"/>
      <point x="374" y="123" type="line"/>
      <point x="374" y="312" type="line"/>
    </contour>
  </outline>
</glyph>
<glyph name="AE" format="1">
  <advance width="924"/>
  <unicode hex="00C6"/>
  <outline>
    <contour>
      <point x="451" y="0" type="line"/>
      <point x="858" y="0" type="line"/>
      <point x="858" y="84" type="line"/>
      <point x="539" y="84" type="line"/>
      <point x="539" y="312" type="line"/>
      <point x="836" y="312" type="line"/>
      <point x="836" y="392" type="line"/>
      <point x="539" y="392" type="line"/>
      <point x="539" y="612" type="line"/>
      <point x="858" y="612" type="line"/>
      <point x="858" y="696" type="line"/>
      <point x="383" y="696" type="line"/>
      <point x="22" y="0" type="line"/>
      <point x="118" y="0" type="line"/>
      <point x="209" y="174" type="line"/>
      <point x="451" y="174" type="line"/>
    </contour>
    <contour>
      <point x="248" y="249" type="line"/>
      <point x="451" y="637" type="line"/>
      <point x="451" y="249" type="line"/>
    </contour>
    <contour>
      <point x="462" y="783" type="move" name="topUC"/>
    </contour>
  </outline>
</glyph>
<glyph name="Eth" format="1">
  <advance width="748"/>
  <unicode hex="00D0"/>
  <outline>
    <contour>
      <point x="22" y="330" type="line"/>
      <point x="110" y="330" type="line"/>
      <point x="110" y="0" type="line"/>
      <point x="365" y="0" type="line" smooth="yes"/>
      <point x="574" y="0"/>
      <point x="684" y="133"/>
      <point x="684" y="348" type="curve" smooth="yes"/>
      <point x="684" y="563"/>
      <point x="574" y="696"/>
      <point x="365" y="696" type="curve" smooth="yes"/>
      <point x="110" y="696" type="line"/>
      <point x="110" y="406" type="line"/>
      <point x="22" y="406" type="line"/>
    </contour>
    <contour>
      <point x="372" y="612" type="line" smooth="yes"/>
      <point x="521" y="612"/>
      <point x="589" y="507"/>
      <point x="589" y="348" type="curve" smooth="yes"/>
      <point x="589" y="189"/>
      <point x="521" y="84"/>
      <point x="372" y="84" type="curve" smooth="yes"/>
      <point x="198" y="84" type="line"/>
      <point x="198" y="330" type="line"/>
      <point x="374" y="330" type="line"/>
      <point x="374" y="406" type="line"/>
      <point x="198" y="406" type="line"/>
      <point x="198" y="612" type="line"/>
    </contour>
  </outline>
</glyph>
<glyph name="multiply" format="1">
  <advance width="594"/>
  <unicode hex="00D7"/>
  <outline>
    <contour>
      <point x="127" y="112" type="line"/>
      <point x="520" y="527" type="line"/>
      <point x="467" y="580" type="line"/>
      <point x="74" y="165" type="line"/>
    </contour>
    <contour>
      <point x="528" y="158" type="line"/>
      <point x="120" y="588" type="line"/>
      <point x="66" y="534" type="line"/>
      <point x="474" y="104" type="line"/>
    </contour>
  </outline>
</glyph>
<glyph name="Oslash" format="1">
  <advance width="770"/>
  <unicode hex="00D8"/>
  <outline>
    <contour>
      <point x="176" y="0" type="line"/>
      <point x="205" y="38" type="line"/>
      <point x="253" y="6"/>
      <point x="313" y="-12"/>
      <point x="385" y="-12" type="curve" smooth="yes"/>
      <point x="590" y="-12"/>
      <point x="704" y="134"/>
      <point x="704" y="348" type="curve" smooth="yes"/>
      <point x="704" y="449"/>
      <point x="678" y="536"/>
      <point x="629" y="598" type="curve"/>
      <point x="704" y="696" type="line"/>
      <point x="595" y="696" type="line"/>
      <point x="566" y="657" type="line"/>
      <point x="517" y="690"/>
      <point x="456" y="708"/>
      <point x="385" y="708" type="curve" smooth="yes"/>
      <point x="180" y="708"/>
      <point x="66" y="562"/>
      <point x="66" y="348" type="curve" smooth="yes"/>
      <point x="66" y="247"/>
      <point x="91" y="161"/>
      <point x="140" y="98" type="curve"/>
      <point x="65" y="0" type="line"/>
    </contour>
    <contour>
      <point x="385" y="68" type="curve" smooth="yes"/>
      <point x="332" y="68"/>
      <point x="289" y="81"/>
      <point x="256" y="105" type="curve"/>
      <point x="572" y="522" type="line"/>
      <point x="597" y="476"/>
      <point x="609" y="416"/>
      <point x="609" y="348" type="curve" smooth="yes"/>
      <point x="609" y="183"/>
      <point x="539" y="68"/>
    </contour>
    <contour>
      <point x="161" y="348" type="curve" smooth="yes"/>
      <point x="161" y="513"/>
      <point x="231" y="628"/>
      <point x="385" y="628" type="curve" smooth="yes"/>
      <point x="438" y="628"/>
      <point x="481" y="614"/>
      <point x="514" y="590" type="curve"/>
      <point x="197" y="174" type="line"/>
      <point x="173" y="220"/>
      <point x="161" y="280"/>
    </contour>
    <contour>
      <point x="385" y="783" type="move" name="topUC"/>
    </contour>
  </outline>
</glyph>
<glyph name="Thorn" format="1">
  <advance width="704"/>
  <unicode hex="00DE"/>
  <outline>
    <contour>
      <point x="110" y="0" type="line"/>
      <point x="198" y="0" type="line"/>
      <point x="198" y="115" type="line"/>
      <point x="385" y="115" type="line" smooth="yes"/>
      <point x="550" y="115"/>
      <point x="638" y="197"/>
      <point x="638" y="351" type="curve" smooth="yes"/>
      <point x="638" y="503"/>
      <point x="552" y="579"/>
      <point x="378" y="579" type="curve" smooth="yes"/>
      <point x="198" y="579" type="line"/>
      <point x="198" y="696" type="line"/>
      <point x="110" y="696" type="line"/>
    </contour>
    <contour>
      <point x="198" y="197" type="line"/>
      <point x="198" y="495" type="line"/>
      <point x="378" y="495" type="line" smooth="yes"/>
      <point x="498" y="495"/>
      <point x="543" y="454"/>
      <point x="543" y="347" type="curve" smooth="yes"/>
      <point x="543" y="240"/>
      <point x="497" y="197"/>
      <point x="382" y="197" type="curve" smooth="yes"/>
    </contour>
  </outline>
</glyph>
<glyph name="germandbls" format="1">
  <advance width="682"/>
  <unicode hex="00DF"/>
  <outline>
    <contour>
      <point x="362" y="414" type="curve" smooth="yes"/>
      <point x="362" y="394"/>
      <point x="376" y="382"/>
      <point x="462" y="338" type="curve" smooth="yes"/>
      <point x="550" y="293"/>
      <point x="616" y="259"/>
      <point x="616" y="159" type="curve" smooth="yes"/>
      <point x="616" y="35"/>
      <point x="515" y="-12"/>
      <point x="425" y="-12" type="curve" smooth="yes"/>
      <point x="374" y="-12"/>
      <point x="322" y="3"/>
      <point x="264" y="44" type="curve"/>
      <point x="264" y="136" type="line"/>
      <point x="323" y="87"/>
      <point x="371" y="66"/>
      <point x="423" y="66" type="curve" smooth="yes"/>
      <point x="479" y="66"/>
      <point x="528" y="91"/>
      <point x="528" y="152" type="curve" smooth="yes"/>
      <point x="528" y="213"/>
      <point x="478" y="239"/>
      <point x="424" y="265" type="curve" smooth="yes"/>
      <point x="322" y="315"/>
      <point x="274" y="347"/>
      <point x="274" y="412" type="curve" smooth="yes"/>
      <point x="274" y="521"/>
      <point x="407" y="532"/>
      <point x="407" y="613" type="curve" smooth="yes"/>
      <point x="407" y="662"/>
      <point x="360" y="690"/>
      <point x="304" y="690" type="curve" smooth="yes"/>
      <point x="233" y="690"/>
      <point x="198" y="646"/>
      <point x="198" y="592" type="curve" smooth="yes"/>
      <point x="198" y="0" type="line"/>
      <point x="110" y="0" type="line"/>
      <point x="110" y="582" type="line" smooth="yes"/>
      <point x="110" y="695"/>
      <point x="175" y="768"/>
      <point x="302" y="768" type="curve" smooth="yes"/>
      <point x="429" y="768"/>
      <point x="495" y="696"/>
      <point x="495" y="616" type="curve" smooth="yes"/>
      <point x="495" y="502"/>
      <point x="362" y="475"/>
    </contour>
  </outline>
</glyph>
<glyph name="ae" format="1">
  <advance width="946"/>
  <unicode hex="00E6"/>
  <outline>
    <contour>
      <point x="679" y="-12" type="curve" smooth="yes"/>
      <point x="743" y="-12"/>
      <point x="799" y="6"/>
      <point x="858" y="49" type="curve"/>
      <point x="858" y="137" type="line"/>
      <point x="854" y="137" type="line"/>
      <point x="797" y="90"/>
      <point x="742" y="64"/>
      <point x="680" y="64" type="curve" smooth="yes"/>
      <point x="576" y="64"/>
      <point x="519" y="134"/>
      <point x="509" y="232" type="curve"/>
      <point x="880" y="232" type="line"/>
      <point x="880" y="261" type="line" smooth="yes"/>
      <point x="880" y="415"/>
      <point x="799" y="534"/>
      <point x="652" y="534" type="curve" smooth="yes"/>
      <point x="577" y="534"/>
      <point x="517" y="503"/>
      <point x="477" y="452" type="curve"/>
      <point x="444" y="504"/>
      <point x="385" y="534"/>
      <point x="312" y="534" type="curve" smooth="yes"/>
      <point x="235" y="534"/>
      <point x="174" y="522"/>
      <point x="110" y="478" type="curve"/>
      <point x="110" y="393" type="line"/>
      <point x="170" y="435"/>
      <point x="225" y="457"/>
      <point x="299" y="457" type="curve" smooth="yes"/>
      <point x="370" y="457"/>
      <point x="418" y="408"/>
      <point x="418" y="336" type="curve" smooth="yes"/>
      <point x="418" y="299" type="line"/>
      <point x="381" y="303"/>
      <point x="349" y="305"/>
      <point x="310" y="305" type="curve" smooth="yes"/>
      <point x="179" y="305"/>
      <point x="66" y="263"/>
      <point x="66" y="147" type="curve" smooth="yes"/>
      <point x="66" y="49"/>
      <point x="138" y="-12"/>
      <point x="239" y="-12" type="curve" smooth="yes"/>
      <point x="339" y="-12"/>
      <point x="410" y="23"/>
      <point x="470" y="85" type="curve"/>
      <point x="515" y="24"/>
      <point x="586" y="-12"/>
    </contour>
    <contour>
      <point x="257" y="62" type="curve" smooth="yes"/>
      <point x="201" y="62"/>
      <point x="161" y="97"/>
      <point x="161" y="152" type="curve" smooth="yes"/>
      <point x="161" y="219"/>
      <point x="229" y="238"/>
      <point x="306" y="238" type="curve" smooth="yes"/>
      <point x="418" y="238" type="line"/>
      <point x="421" y="200"/>
      <point x="429" y="165"/>
      <point x="443" y="134" type="curve"/>
      <point x="390" y="92"/>
      <point x="336" y="62"/>
    </contour>
    <contour>
      <point x="653" y="461" type="curve" smooth="yes"/>
      <point x="740" y="461"/>
      <point x="781" y="390"/>
      <point x="789" y="300" type="curve"/>
      <point x="510" y="300" type="line"/>
      <point x="519" y="389"/>
      <point x="566" y="461"/>
    </contour>
    <contour>
      <point x="473" y="638" type="move" name="top"/>
    </contour>
  </outline>
</glyph>
<glyph name="eth" format="1">
  <advance width="594"/>
  <unicode hex="00F0"/>
  <outline>
    <contour>
      <point x="455" y="326" type="curve" smooth="yes"/>
      <point x="455" y="155"/>
      <point x="404" y="69"/>
      <point x="299" y="69" type="curve" smooth="yes"/>
      <point x="209" y="69"/>
      <point x="160" y="133"/>
      <point x="160" y="240" type="curve" smooth="yes"/>
      <point x="160" y="354"/>
      <point x="215" y="415"/>
      <point x="311" y="415" type="curve" smooth="yes"/>
      <point x="375" y="415"/>
      <point x="439" y="388"/>
      <point x="496" y="339" type="curve"/>
      <point x="496" y="418" type="line"/>
      <point x="439" y="470"/>
      <point x="390" y="495"/>
      <point x="312" y="495" type="curve" smooth="yes"/>
      <point x="163" y="495"/>
      <point x="66" y="405"/>
      <point x="66" y="241" type="curve" smooth="yes"/>
      <point x="66" y="85"/>
      <point x="153" y="-12"/>
      <point x="298" y="-12" type="curve" smooth="yes"/>
      <point x="461" y="-12"/>
      <point x="550" y="111"/>
      <point x="550" y="319" type="curve" smooth="yes"/>
      <point x="550" y="529"/>
      <point x="459" y="681"/>
      <point x="307" y="765" type="curve"/>
      <point x="210" y="743" type="line"/>
      <point x="210" y="739" type="line"/>
      <point x="392" y="631"/>
      <point x="455" y="516"/>
    </contour>
    <contour>
      <point x="242" y="561" type="line"/>
      <point x="550" y="618" type="line"/>
      <point x="550" y="688" type="line"/>
      <point x="242" y="631" type="line"/>
    </contour>
  </outline>
</glyph>
<glyph name="divide" format="1">
  <advance width="594"/>
  <unicode hex="00F7"/>
  <outline>
    <contour>
      <point x="66" y="308" type="line"/>
      <point x="528" y="308" type="line"/>
      <point x="528" y="384" type="line"/>
      <point x="66" y="384" type="line"/>
    </contour>
    <contour>
      <point x="297" y="474" type="curve" smooth="yes"/>
      <point x="338" y="474"/>
      <point x="363" y="497"/>
      <point x="363" y="538" type="curve" smooth="yes"/>
      <point x="363" y="579"/>
      <point x="338" y="602"/>
      <point x="297" y="602" type="curve" smooth="yes"/>
      <point x="256" y="602"/>
      <point x="231" y="579"/>
      <point x="231" y="538" type="curve" smooth="yes"/>
      <point x="231" y="497"/>
      <point x="256" y="474"/>
    </contour>
    <contour>
      <point x="297" y="90" type="curve" smooth="yes"/>
      <point x="338" y="90"/>
      <point x="363" y="113"/>
      <point x="363" y="154" type="curve" smooth="yes"/>
      <point x="363" y="195"/>
      <point x="338" y="218"/>
      <point x="297" y="218" type="curve" smooth="yes"/>
      <point x="256" y="218"/>
      <point x="231" y="195"/>
      <point x="231" y="154" type="curve" smooth="yes"/>
      <point x="231" y="113"/>
      <point x="256" y="90"/>
    </contour>
  </outline>
</glyph>
<glyph name="oslash" format="1">
  <advance width="616"/>
  <unicode hex="00F8"/>
  <outline>
    <contour>
      <point x="143" y="0" type="line"/>
      <point x="167" y="29" type="line"/>
      <point x="204" y="2"/>
      <point x="251" y="-12"/>
      <point x="308" y="-12" type="curve" smooth="yes"/>
      <point x="463" y="-12"/>
      <point x="550" y="99"/>
      <point x="550" y="261" type="curve" smooth="yes"/>
      <point x="550" y="331"/>
      <point x="534" y="392"/>
      <point x="503" y="438" type="curve"/>
      <point x="572" y="522" type="line"/>
      <point x="473" y="522" type="line"/>
      <point x="449" y="493" type="line"/>
      <point x="411" y="519"/>
      <point x="364" y="534"/>
      <point x="308" y="534" type="curve" smooth="yes"/>
      <point x="153" y="534"/>
      <point x="66" y="423"/>
      <point x="66" y="261" type="curve" smooth="yes"/>
      <point x="66" y="191"/>
      <point x="82" y="130"/>
      <point x="113" y="84" type="curve"/>
      <point x="44" y="0" type="line"/>
    </contour>
    <contour>
      <point x="161" y="261" type="curve" smooth="yes"/>
      <point x="161" y="373"/>
      <point x="206" y="458"/>
      <point x="308" y="458" type="curve" smooth="yes"/>
      <point x="344" y="458"/>
      <point x="373" y="447"/>
      <point x="396" y="428" type="curve"/>
      <point x="176" y="161" type="line"/>
      <point x="165" y="190"/>
      <point x="161" y="224"/>
    </contour>
    <contour>
      <point x="308" y="64" type="curve" smooth="yes"/>
      <point x="272" y="64"/>
      <point x="243" y="75"/>
      <point x="220" y="94" type="curve"/>
      <point x="440" y="361" type="line"/>
      <point x="450" y="332"/>
      <point x="455" y="298"/>
      <point x="455" y="261" type="curve" smooth="yes"/>
      <point x="455" y="149"/>
      <point x="410" y="64"/>
    </contour>
    <contour>
      <point x="308" y="638" type="move" name="top"/>
    </contour>
  </outline>
</glyph>
<glyph name="thorn" format="1">
  <advance width="638"/>
  <unicode hex="00FE"/>
  <outline>
    <contour>
      <point x="335" y="-11" type="curve" smooth="yes"/>
      <point x="484" y="-11"/>
      <point x="572" y="105"/>
      <point x="572" y="260" type="curve" smooth="yes"/>
      <point x="572" y="413"/>
      <point x="500" y="534"/>
      <point x="359" y="534" type="curve" smooth="yes"/>
      <point x="292" y="534"/>
      <point x="240" y="510"/>
      <point x="198" y="466" type="curve"/>
      <point x="198" y="754" type="line"/>
      <point x="110" y="754" type="line"/>
      <point x="110" y="-232" type="line"/>
      <point x="198" y="-232" type="line"/>
      <point x="198" y="19" type="line"/>
      <point x="242" y="1"/>
      <point x="283" y="-11"/>
    </contour>
    <contour>
      <point x="351" y="453" type="curve" smooth="yes"/>
      <point x="443" y="453"/>
      <point x="477" y="364"/>
      <point x="477" y="260" type="curve" smooth="yes"/>
      <point x="477" y="152"/>
      <point x="426" y="67"/>
      <point x="326" y="67" type="curve" smooth="yes"/>
      <point x="278" y="67"/>
      <point x="240" y="74"/>
      <point x="198" y="87" type="curve"/>
      <point x="198" y="378" type="line"/>
      <point x="240" y="423"/>
      <point x="286" y="453"/>
    </contour>
  </outline>
</glyph>
<glyph name="dotlessi" format="1">
  <advance width="396"/>
  <unicode hex="0131"/>
  <outline>
    <contour>
      <point x="176" y="0" type="line"/>
      <point x="264" y="0" type="line"/>
      <point x="264" y="522" type="line"/>
      <point x="66" y="522" type="line"/>
      <point x="66" y="446" type="line"/>
      <point x="176" y="446" type="line"/>
    </contour>
    <contour>
      <point x="198" y="638" type="move" name="top"/>
    </contour>
  </outline>
</glyph>
<glyph name="kgreenlandic" format="1">
  <advance width="594"/>
  <unicode hex="0138"/>
  <outline>
    <contour>
      <point x="198" y="0" type="line"/>
      <point x="198" y="151" type="line"/>
      <point x="292" y="250" type="line"/>
      <point x="460" y="0" type="line"/>
      <point x="572" y="0" type="line"/>
      <point x="351" y="313" type="line"/>
      <point x="550" y="522" type="line"/>
      <point x="444" y="522" type="line"/>
      <point x="198" y="257" type="line"/>
      <point x="198" y="522" type="line"/>
      <point x="110" y="522" type="line"/>
      <point x="110" y="0" type="line"/>
    </contour>
  </outline>
</glyph>
<glyph name="Lslash" format="1">
  <advance width="616"/>
  <unicode hex="0141"/>
  <outline>
    <contour>
      <point x="22" y="231" type="line"/>
      <point x="374" y="372" type="line"/>
      <point x="374" y="458" type="line"/>
      <point x="22" y="312" type="line"/>
    </contour>
    <component base="L"/>
  </outline>
</glyph>
<glyph name="lslash" format="1">
  <advance width="308"/>
  <unicode hex="0142"/>
  <outline>
    <contour>
      <point x="22" y="290" type="line"/>
      <point x="286" y="395" type="line"/>
      <point x="286" y="481" type="line"/>
      <point x="22" y="371" type="line"/>
    </contour>
    <component base="l"/>
  </outline>
</glyph>
<glyph name="Eng" format="1">
  <advance width="792"/>
  <unicode hex="014A"/>
  <outline>
    <contour>
      <point x="594" y="446" type="line"/>
      <point x="594" y="-60" type="line" smooth="yes"/>
      <point x="594" y="-124"/>
      <point x="570" y="-167"/>
      <point x="511" y="-167" type="curve" smooth="yes"/>
      <point x="482" y="-167"/>
      <point x="466" y="-164"/>
      <point x="440" y="-151" type="curve"/>
      <point x="440" y="-227" type="line"/>
      <point x="469" y="-243"/>
      <point x="490" y="-244"/>
      <point x="523" y="-244" type="curve" smooth="yes"/>
      <point x="631" y="-244"/>
      <point x="682" y="-173"/>
      <point x="682" y="-60" type="curve" smooth="yes"/>
      <point x="682" y="522" type="line"/>
    </contour>
    <component base="N"/>
  </outline>
</glyph>
<glyph name="eng" format="1">
  <advance width="638"/>
  <unicode hex="014B"/>
  <outline>
    <contour>
      <point x="110" y="0" type="line"/>
      <point x="198" y="0" type="line"/>
      <point x="198" y="387" type="line"/>
      <point x="246" y="429"/>
      <point x="285" y="455"/>
      <point x="355" y="455" type="curve" smooth="yes"/>
      <point x="414" y="455"/>
      <point x="440" y="414"/>
      <point x="440" y="350" type="curve" smooth="yes"/>
      <point x="440" y="-60" type="line" smooth="yes"/>
      <point x="440" y="-124"/>
      <point x="416" y="-167"/>
      <point x="357" y="-167" type="curve" smooth="yes"/>
      <point x="328" y="-167"/>
      <point x="312" y="-164"/>
      <point x="286" y="-151" type="curve"/>
      <point x="286" y="-227" type="line"/>
      <point x="315" y="-243"/>
      <point x="336" y="-244"/>
      <point x="369" y="-244" type="curve" smooth="yes"/>
      <point x="477" y="-244"/>
      <point x="528" y="-173"/>
      <point x="528" y="-60" type="curve" smooth="yes"/>
      <point x="528" y="362" type="line" smooth="yes"/>
      <point x="528" y="468"/>
      <point x="479" y="534"/>
      <point x="378" y="534" type="curve" smooth="yes"/>
      <point x="294" y="534"/>
      <point x="247" y="505"/>
      <point x="189" y="449" type="curve"/>
      <point x="176" y="522" type="line"/>
      <point x="88" y="522" type="line"/>
      <point x="110" y="406" type="line"/>
    </contour>
  </outline>
</glyph>
<glyph name="Schwa" format="1">
  <advance width="726"/>
  <unicode hex="018F"/>
  <outline>
    <contour>
      <point x="325" y="708" type="curve" smooth="yes"/>
      <point x="248" y="708"/>
      <point x="165" y="687"/>
      <point x="88" y="642" type="curve"/>
      <point x="88" y="555" type="line"/>
      <point x="92" y="555" type="line"/>
      <point x="166" y="600"/>
      <point x="246" y="628"/>
      <point x="327" y="628" type="curve" smooth="yes"/>
      <point x="483" y="628"/>
      <point x="565" y="524"/>
      <point x="565" y="348" type="curve"/>
      <point x="66" y="348" type="line"/>
      <point x="66" y="319" type="line" smooth="yes"/>
      <point x="66" y="137"/>
      <point x="172" y="-12"/>
      <point x="358" y="-12" type="curve" smooth="yes"/>
      <point x="549" y="-12"/>
      <point x="660" y="144"/>
      <point x="660" y="347" type="curve" smooth="yes"/>
      <point x="660" y="558"/>
      <point x="541" y="708"/>
    </contour>
    <contour>
      <point x="358" y="69" type="curve" smooth="yes"/>
      <point x="236" y="69"/>
      <point x="174" y="165"/>
      <point x="163" y="269" type="curve"/>
      <point x="564" y="269" type="line"/>
      <point x="564" y="166"/>
      <point x="481" y="69"/>
    </contour>
  </outline>
</glyph>
<glyph name="florin" format="1">
  <advance width="594"/>
  <unicode hex="0192"/>
  <outline>
    <contour>
      <point x="154" y="446" type="line"/>
      <point x="271" y="446" type="line"/>
      <point x="218" y="-60" type="line" smooth="yes"/>
      <point x="211" y="-124"/>
      <point x="186" y="-167"/>
      <point x="117" y="-167" type="curve" smooth="yes"/>
      <point x="94" y="-167"/>
      <point x="72" y="-162"/>
      <point x="48" y="-144" type="curve"/>
      <point x="44" y="-144" type="line"/>
      <point x="44" y="-225" type="line"/>
      <point x="66" y="-240"/>
      <point x="88" y="-244"/>
      <point x="117" y="-244" type="curve" smooth="yes"/>
      <point x="240" y="-244"/>
      <point x="294" y="-173"/>
      <point x="306" y="-60" type="curve" smooth="yes"/>
      <point x="359" y="446" type="line"/>
      <point x="528" y="446" type="line"/>
      <point x="528" y="522" type="line"/>
      <point x="368" y="522" type="line"/>
      <point x="375" y="592" type="line" smooth="yes"/>
      <point x="380" y="644"/>
      <point x="409" y="689"/>
      <point x="475" y="689" type="curve" smooth="yes"/>
      <point x="503" y="689"/>
      <point x="526" y="681"/>
      <point x="546" y="666" type="curve"/>
      <point x="550" y="666" type="line"/>
      <point x="550" y="747" type="line"/>
      <point x="519" y="761"/>
      <point x="499" y="766"/>
      <point x="469" y="766" type="curve" smooth="yes"/>
      <point x="361" y="766"/>
      <point x="298" y="700"/>
      <point x="286" y="582" type="curve" smooth="yes"/>
      <point x="280" y="522" type="line"/>
      <point x="154" y="522" type="line"/>
    </contour>
  </outline>
</glyph>
<glyph name="Aringacute" format="1">
  <advance width="682"/>
  <unicode hex="01FA"/>
  <outline>
    <contour>
      <point x="270" y="800" type="line"/>
      <point x="198" y="776" type="line"/>
      <point x="212" y="732" type="line"/>
      <point x="279" y="743" type="line"/>
    </contour>
    <contour>
      <point x="411" y="757" type="line"/>
      <point x="484" y="768" type="line"/>
      <point x="462" y="848" type="line"/>
      <point x="399" y="828" type="line"/>
    </contour>
    <component base="A"/>
    <component base="ring.cap" xOffset="187"/>
  </outline>
</glyph>
<glyph name="dotlessj" format="1">
  <advance width="396"/>
  <unicode hex="0237"/>
  <outline>
    <contour>
      <point x="66" y="522" type="line"/>
      <point x="66" y="446" type="line"/>
      <point x="176" y="446" type="line"/>
      <point x="176" y="-60" type="line" smooth="yes"/>
      <point x="176" y="-124"/>
      <point x="152" y="-167"/>
      <point x="93" y="-167" type="curve" smooth="yes"/>
      <point x="64" y="-167"/>
      <point x="48" y="-164"/>
      <point x="22" y="-151" type="curve"/>
      <point x="22" y="-227" type="line"/>
      <point x="51" y="-243"/>
      <point x="72" y="-244"/>
      <point x="105" y="-244" type="curve" smooth="yes"/>
      <point x="213" y="-244"/>
      <point x="264" y="-173"/>
      <point x="264" y="-60" type="curve" smooth="yes"/>
      <point x="264" y="522" type="line"/>
    </contour>
    <contour>
      <point x="198" y="638" type="move" name="top"/>
    </contour>
  </outline>
</glyph>
<glyph name="schwa" format="1">
  <advance width="594"/>
  <unicode hex="0259"/>
  <outline>
    <contour>
      <point x="267" y="534" type="curve" smooth="yes"/>
      <point x="203" y="534"/>
      <point x="147" y="516"/>
      <point x="88" y="473" type="curve"/>
      <point x="88" y="385" type="line"/>
      <point x="92" y="385" type="line"/>
      <point x="149" y="432"/>
      <point x="204" y="458"/>
      <point x="265" y="458" type="curve" smooth="yes"/>
      <point x="370" y="458"/>
      <point x="437" y="380"/>
      <point x="437" y="268" type="curve"/>
      <point x="66" y="268" type="line"/>
      <point x="66" y="239" type="line" smooth="yes"/>
      <point x="66" y="97"/>
      <point x="148" y="-12"/>
      <point x="292" y="-12" type="curve" smooth="yes"/>
      <point x="441" y="-12"/>
      <point x="528" y="105"/>
      <point x="528" y="258" type="curve" smooth="yes"/>
      <point x="528" y="420"/>
      <point x="430" y="534"/>
    </contour>
    <contour>
      <point x="293" y="61" type="curve" smooth="yes"/>
      <point x="206" y="61"/>
      <point x="165" y="122"/>
      <point x="157" y="200" type="curve"/>
      <point x="436" y="200" type="line"/>
      <point x="436" y="123"/>
      <point x="380" y="61"/>
    </contour>
  </outline>
</glyph>
<glyph name="apostrophe" format="1">
  <advance width="264"/>
  <unicode hex="02BC"/>
  <outline>
    <contour>
      <point x="123" y="510" type="line"/>
      <point x="171" y="561"/>
      <point x="198" y="624"/>
      <point x="198" y="681" type="curve" smooth="yes"/>
      <point x="198" y="735"/>
      <point x="174" y="766"/>
      <point x="132" y="766" type="curve" smooth="yes"/>
      <point x="92" y="766"/>
      <point x="66" y="740"/>
      <point x="66" y="701" type="curve" smooth="yes"/>
      <point x="66" y="666"/>
      <point x="89" y="640"/>
      <point x="120" y="640" type="curve" smooth="yes"/>
      <point x="124" y="640"/>
      <point x="128" y="640"/>
      <point x="135" y="642" type="curve"/>
      <point x="125" y="604"/>
      <point x="109" y="581"/>
      <point x="79" y="544" type="curve"/>
      <point x="79" y="540" type="line"/>
    </contour>
    <contour>
      <point x="132" y="638" type="move" name="_apostrophe"/>
    </contour>
  </outline>
</glyph>
<glyph name="circumflex" format="1">
  <advance width="484"/>
  <unicode hex="02C6"/>
  <outline>
    <contour>
      <point x="242" y="825" type="line"/>
      <point x="66" y="672" type="line"/>
      <point x="92" y="638" type="line"/>
      <point x="242" y="731" type="line"/>
      <point x="392" y="638" type="line"/>
      <point x="418" y="672" type="line"/>
    </contour>
    <contour>
      <point x="242" y="638" type="move" name="_top"/>
    </contour>
  </outline>
</glyph>
<glyph name="caron" format="1">
  <advance width="484"/>
  <unicode hex="02C7"/>
  <outline>
    <contour>
      <point x="242" y="638" type="line"/>
      <point x="418" y="791" type="line"/>
      <point x="392" y="825" type="line"/>
      <point x="242" y="731" type="line"/>
      <point x="92" y="825" type="line"/>
      <point x="66" y="791" type="line"/>
    </contour>
    <contour>
      <point x="242" y="638" type="move" name="_top"/>
    </contour>
  </outline>
</glyph>
<glyph name="uni02C9" format="1">
  <advance width="462"/>
  <unicode hex="02C9"/>
  <outline>
    <contour>
      <point x="66" y="676" type="line"/>
      <point x="396" y="676" type="line"/>
      <point x="396" y="734" type="line"/>
      <point x="66" y="734" type="line"/>
    </contour>
  </outline>
</glyph>
<glyph name="breve" format="1">
  <advance width="418"/>
  <unicode hex="02D8"/>
  <outline>
    <contour>
      <point x="209" y="638" type="curve" smooth="yes"/>
      <point x="288" y="638"/>
      <point x="352" y="690"/>
      <point x="352" y="774" type="curve"/>
      <point x="297" y="774" type="line"/>
      <point x="297" y="731"/>
      <point x="261" y="699"/>
      <point x="209" y="699" type="curve" smooth="yes"/>
      <point x="159" y="699"/>
      <point x="121" y="731"/>
      <point x="121" y="774" type="curve"/>
      <point x="66" y="774" type="line"/>
      <point x="66" y="690"/>
      <point x="132" y="638"/>
    </contour>
    <contour>
      <point x="209" y="638" type="move" name="_top"/>
    </contour>
  </outline>
</glyph>
<glyph name="dotaccent" format="1">
  <advance width="264"/>
  <unicode hex="02D9"/>
  <outline>
    <contour>
      <point x="132" y="640" type="curve" smooth="yes"/>
      <point x="173" y="640"/>
      <point x="198" y="663"/>
      <point x="198" y="704" type="curve" smooth="yes"/>
      <point x="198" y="745"/>
      <point x="173" y="768"/>
      <point x="132" y="768" type="curve" smooth="yes"/>
      <point x="91" y="768"/>
      <point x="66" y="745"/>
      <point x="66" y="704" type="curve" smooth="yes"/>
      <point x="66" y="663"/>
      <point x="91" y="640"/>
    </contour>
    <contour>
      <point x="132" y="638" type="move" name="_top"/>
    </contour>
  </outline>
</glyph>
<glyph name="ring" format="1">
  <advance width="308"/>
  <unicode hex="02DA"/>
  <outline>
    <contour>
      <point x="66" y="726" type="curve" smooth="yes"/>
      <point x="66" y="677"/>
      <point x="105" y="638"/>
      <point x="154" y="638" type="curve" smooth="yes"/>
      <point x="203" y="638"/>
      <point x="242" y="677"/>
      <point x="242" y="726" type="curve" smooth="yes"/>
      <point x="242" y="775"/>
      <point x="203" y="814"/>
      <point x="154" y="814" type="curve" smooth="yes"/>
      <point x="105" y="814"/>
      <point x="66" y="775"/>
    </contour>
    <contour>
      <point x="120" y="726" type="curve" smooth="yes"/>
      <point x="120" y="746"/>
      <point x="134" y="760"/>
      <point x="154" y="760" type="curve" smooth="yes"/>
      <point x="173" y="760"/>
      <point x="187" y="746"/>
      <point x="187" y="726" type="curve" smooth="yes"/>
      <point x="187" y="707"/>
      <point x="173" y="691"/>
      <point x="154" y="691" type="curve" smooth="yes"/>
      <point x="134" y="691"/>
      <point x="120" y="707"/>
    </contour>
    <contour>
      <point x="154" y="638" type="move" name="_top"/>
    </contour>
  </outline>
</glyph>
<glyph name="ogonek" format="1">
  <advance width="352"/>
  <unicode hex="02DB"/>
  <outline>
    <contour>
      <point x="286" y="-162" type="line"/>
      <point x="282" y="-162" type="line"/>
      <point x="256" y="-179"/>
      <point x="227" y="-189"/>
      <point x="196" y="-189" type="curve" smooth="yes"/>
      <point x="166" y="-189"/>
      <point x="136" y="-180"/>
      <point x="136" y="-135" type="curve" smooth="yes"/>
      <point x="136" y="-92"/>
      <point x="163" y="-43"/>
      <point x="208" y="11" type="curve"/>
      <point x="164" y="11" type="line"/>
      <point x="104" y="-36"/>
      <point x="66" y="-91"/>
      <point x="66" y="-146" type="curve" smooth="yes"/>
      <point x="66" y="-201"/>
      <point x="105" y="-244"/>
      <point x="186" y="-244" type="curve" smooth="yes"/>
      <point x="227" y="-244"/>
      <point x="263" y="-233"/>
      <point x="286" y="-218" type="curve"/>
    </contour>
    <contour>
      <point x="176" y="52" type="move" name="_ogonek"/>
    </contour>
  </outline>
</glyph>
<glyph name="tilde" format="1">
  <advance width="462"/>
  <unicode hex="02DC"/>
  <outline>
    <contour>
      <point x="300" y="662" type="curve" smooth="yes"/>
      <point x="330" y="662"/>
      <point x="362" y="673"/>
      <point x="396" y="704" type="curve"/>
      <point x="396" y="763" type="line"/>
      <point x="365" y="737"/>
      <point x="334" y="726"/>
      <point x="305" y="726" type="curve" smooth="yes"/>
      <point x="253" y="726"/>
      <point x="217" y="774"/>
      <point x="162" y="774" type="curve" smooth="yes"/>
      <point x="132" y="774"/>
      <point x="100" y="760"/>
      <point x="66" y="721" type="curve"/>
      <point x="66" y="662" type="line"/>
      <point x="97" y="696"/>
      <point x="128" y="710"/>
      <point x="157" y="710" type="curve" smooth="yes"/>
      <point x="209" y="710"/>
      <point x="245" y="662"/>
    </contour>
    <contour>
      <point x="231" y="638" type="move" name="_top"/>
    </contour>
  </outline>
</glyph>
<glyph name="uni030F" format="1">
  <advance width="528"/>
  <unicode hex="030F"/>
  <outline>
    <contour>
      <point x="242" y="765" type="line"/>
      <point x="431" y="638" type="line"/>
      <point x="462" y="672" type="line"/>
      <point x="296" y="825" type="line"/>
    </contour>
    <contour>
      <point x="66" y="765" type="line"/>
      <point x="255" y="638" type="line"/>
      <point x="286" y="672" type="line"/>
      <point x="120" y="825" type="line"/>
    </contour>
    <contour>
      <point x="264" y="638" type="move" name="_top"/>
    </contour>
  </outline>
</glyph>
<glyph name="uni0311" format="1">
  <advance width="418"/>
  <unicode hex="0311"/>
  <outline>
    <contour>
      <point x="209" y="774" type="curve" smooth="yes"/>
      <point x="132" y="774"/>
      <point x="66" y="722"/>
      <point x="66" y="638" type="curve"/>
      <point x="121" y="638" type="line"/>
      <point x="121" y="681"/>
      <point x="159" y="713"/>
      <point x="209" y="713" type="curve" smooth="yes"/>
      <point x="261" y="713"/>
      <point x="297" y="681"/>
      <point x="297" y="638" type="curve"/>
      <point x="352" y="638" type="line"/>
      <point x="352" y="722"/>
      <point x="288" y="774"/>
    </contour>
    <contour>
      <point x="209" y="638" type="move" name="_top"/>
    </contour>
  </outline>
</glyph>
<glyph name="uni03A9" format="1">
  <advance width="770"/>
  <unicode hex="03A9"/>
  <outline>
    <contour>
      <point x="726" y="0" type="line"/>
      <point x="726" y="75" type="line"/>
      <point x="553" y="75" type="line"/>
      <point x="650" y="133"/>
      <point x="704" y="236"/>
      <point x="704" y="368" type="curve" smooth="yes"/>
      <point x="704" y="568"/>
      <point x="590" y="708"/>
      <point x="385" y="708" type="curve" smooth="yes"/>
      <point x="180" y="708"/>
      <point x="66" y="568"/>
      <point x="66" y="368" type="curve" smooth="yes"/>
      <point x="66" y="236"/>
      <point x="120" y="133"/>
      <point x="217" y="75" type="curve"/>
      <point x="44" y="75" type="line"/>
      <point x="44" y="0" type="line"/>
      <point x="334" y="0" type="line"/>
      <point x="334" y="75" type="line"/>
      <point x="215" y="102"/>
      <point x="161" y="221"/>
      <point x="161" y="361" type="curve" smooth="yes"/>
      <point x="161" y="524"/>
      <point x="231" y="628"/>
      <point x="385" y="628" type="curve" smooth="yes"/>
      <point x="539" y="628"/>
      <point x="609" y="524"/>
      <point x="609" y="361" type="curve" smooth="yes"/>
      <point x="609" y="221"/>
      <point x="555" y="102"/>
      <point x="436" y="75" type="curve"/>
      <point x="436" y="0" type="line"/>
    </contour>
  </outline>
</glyph>
<glyph name="uni03BC" format="1">
  <advance width="616"/>
  <unicode hex="03BC"/>
  <outline>
    <contour>
      <point x="176" y="-174" type="line"/>
      <point x="167" y="28" type="line"/>
      <point x="192" y="2"/>
      <point x="226" y="-12"/>
      <point x="268" y="-12" type="curve" smooth="yes"/>
      <point x="324" y="-12"/>
      <point x="368" y="14"/>
      <point x="426" y="72" type="curve"/>
      <point x="440" y="0" type="line"/>
      <point x="528" y="0" type="line"/>
      <point x="506" y="116" type="line"/>
      <point x="506" y="522" type="line"/>
      <point x="418" y="522" type="line"/>
      <point x="418" y="133" type="line"/>
      <point x="375" y="94"/>
      <point x="331" y="67"/>
      <point x="276" y="67" type="curve" smooth="yes"/>
      <point x="206" y="67"/>
      <point x="176" y="111"/>
      <point x="176" y="172" type="curve" smooth="yes"/>
      <point x="176" y="522" type="line"/>
      <point x="88" y="522" type="line"/>
      <point x="88" y="-174" type="line"/>
    </contour>
  </outline>
</glyph>
<glyph name="pi" format="1">
  <advance width="682"/>
  <unicode hex="03C0"/>
  <outline>
    <contour>
      <point x="506" y="446" type="line"/>
      <point x="638" y="446" type="line"/>
      <point x="638" y="522" type="line"/>
      <point x="44" y="522" type="line"/>
      <point x="44" y="446" type="line"/>
      <point x="176" y="446" type="line"/>
      <point x="176" y="0" type="line"/>
      <point x="264" y="0" type="line"/>
      <point x="264" y="446" type="line"/>
      <point x="418" y="446" type="line"/>
      <point x="418" y="172" type="line" smooth="yes"/>
      <point x="418" y="59"/>
      <point x="463" y="-12"/>
      <point x="558" y="-12" type="curve" smooth="yes"/>
      <point x="588" y="-12"/>
      <point x="608" y="-7"/>
      <point x="638" y="5" type="curve"/>
      <point x="638" y="81" type="line"/>
      <point x="612" y="69"/>
      <point x="598" y="65"/>
      <point x="576" y="65" type="curve" smooth="yes"/>
      <point x="524" y="65"/>
      <point x="506" y="108"/>
      <point x="506" y="162" type="curve" smooth="yes"/>
    </contour>
  </outline>
</glyph>
<glyph name="candrabindudeva" format="1">
  <advance width="527"/>
  <unicode hex="0901"/>
  <outline>
    <contour>
      <point x="264" y="716" type="curve" smooth="yes"/>
      <point x="385" y="716"/>
      <point x="484" y="784"/>
      <point x="484" y="890" type="curve"/>
      <point x="407" y="890" type="line"/>
      <point x="407" y="830"/>
      <point x="348" y="783"/>
      <point x="264" y="783" type="curve" smooth="yes"/>
      <point x="181" y="783"/>
      <point x="121" y="830"/>
      <point x="121" y="890" type="curve"/>
      <point x="44" y="890" type="line"/>
      <point x="44" y="784"/>
      <point x="145" y="716"/>
    </contour>
    <contour>
      <point x="220" y="840" type="line"/>
      <point x="308" y="840" type="line"/>
      <point x="308" y="928" type="line"/>
      <point x="220" y="928" type="line"/>
    </contour>
  </outline>
</glyph>
<glyph name="anusvaradeva" format="1">
  <advance width="198"/>
  <unicode hex="0902"/>
  <outline>
    <contour>
      <point x="44" y="788" type="line"/>
      <point x="154" y="788" type="line"/>
      <point x="154" y="898" type="line"/>
      <point x="44" y="898" type="line"/>
    </contour>
  </outline>
</glyph>
<glyph name="ashortdeva" format="1">
  <advance width="902"/>
  <unicode hex="0904"/>
  <outline>
    <contour>
      <point x="763" y="610" type="line"/>
      <point x="763" y="638" type="line" smooth="yes"/>
      <point x="763" y="727"/>
      <point x="723" y="820"/>
      <point x="605" y="833" type="curve" smooth="yes"/>
      <point x="469" y="848"/>
      <point x="435" y="863"/>
      <point x="435" y="928" type="curve"/>
      <point x="367" y="928" type="line"/>
      <point x="367" y="824"/>
      <point x="427" y="789"/>
      <point x="569" y="776" type="curve" smooth="yes"/>
      <point x="656" y="768"/>
      <point x="686" y="725"/>
      <point x="686" y="638" type="curve"/>
      <point x="686" y="610" type="line"/>
    </contour>
    <component base="adeva"/>
  </outline>
</glyph>
<glyph name="adeva" format="1">
  <advance width="902"/>
  <unicode hex="0905"/>
  <outline>
    <contour>
      <point x="207" y="327" type="line"/>
      <point x="262" y="327" type="line"/>
      <point x="389" y="351"/>
      <point x="450" y="406"/>
      <point x="450" y="497" type="curve" smooth="yes"/>
      <point x="450" y="592"/>
      <point x="384" y="650"/>
      <point x="278" y="650" type="curve" smooth="yes"/>
      <point x="193" y="650"/>
      <point x="112" y="613"/>
      <point x="64" y="552" type="curve"/>
      <point x="64" y="548" type="line"/>
      <point x="94" y="493" type="line"/>
      <point x="98" y="493" type="line"/>
      <point x="145" y="549"/>
      <point x="207" y="580"/>
      <point x="273" y="580" type="curve" smooth="yes"/>
      <point x="334" y="580"/>
      <point x="370" y="554"/>
      <point x="370" y="504" type="curve" smooth="yes"/>
      <point x="370" y="439"/>
      <point x="311" y="386"/>
      <point x="236" y="386" type="curve" smooth="yes"/>
      <point x="207" y="386" type="line"/>
    </contour>
    <contour>
      <point x="276" y="20" type="curve" smooth="yes"/>
      <point x="380" y="20"/>
      <point x="454" y="89"/>
      <point x="454" y="179" type="curve" smooth="yes"/>
      <point x="454" y="279"/>
      <point x="364" y="363"/>
      <point x="262" y="363" type="curve" smooth="yes"/>
      <point x="242" y="363" type="line"/>
      <point x="242" y="327" type="line"/>
      <point x="311" y="327"/>
      <point x="375" y="278"/>
      <point x="375" y="204" type="curve" smooth="yes"/>
      <point x="375" y="141"/>
      <point x="329" y="98"/>
      <point x="260" y="98" type="curve" smooth="yes"/>
      <point x="191" y="98"/>
      <point x="128" y="141"/>
      <point x="65" y="235" type="curve"/>
      <point x="61" y="235" type="line"/>
      <point x="26" y="191" type="line"/>
      <point x="26" y="187" type="line"/>
      <point x="80" y="84"/>
      <point x="175" y="20"/>
    </contour>
    <contour>
      <point x="682" y="0" type="line"/>
      <point x="770" y="0" type="line"/>
      <point x="770" y="580" type="line"/>
      <point x="924" y="580" type="line"/>
      <point x="924" y="638" type="line"/>
      <point x="594" y="638" type="line"/>
      <point x="594" y="580" type="line"/>
      <point x="682" y="580" type="line"/>
    </contour>
    <contour>
      <point x="352" y="289" type="line"/>
      <point x="726" y="289" type="line"/>
      <point x="726" y="348" type="line"/>
      <point x="312" y="348" type="line"/>
    </contour>
  </outline>
</glyph>
<glyph name="ideva" format="1">
  <advance width="594"/>
  <unicode hex="0907"/>
  <outline>
    <contour>
      <point x="202" y="36" type="line"/>
      <point x="209" y="64" type="line"/>
      <point x="128" y="192" type="line"/>
      <point x="58" y="154" type="line"/>
      <point x="55" y="147"/>
      <point x="54" y="139"/>
      <point x="54" y="131" type="curve" smooth="yes"/>
      <point x="54" y="109"/>
      <point x="61" y="89"/>
      <point x="75" y="70" type="curve"/>
    </contour>
    <contour>
      <point x="415" y="-176" type="curve"/>
      <point x="479" y="-123" type="line"/>
      <point x="368" y="-71"/>
      <point x="225" y="45"/>
      <point x="185" y="90" type="curve"/>
      <point x="161" y="48" type="line"/>
      <point x="205" y="-2"/>
      <point x="323" y="-121"/>
    </contour>
    <contour>
      <point x="154" y="72" type="line"/>
      <point x="206" y="47"/>
      <point x="275" y="31"/>
      <point x="339" y="31" type="curve" smooth="yes"/>
      <point x="439" y="31"/>
      <point x="529" y="69"/>
      <point x="529" y="167" type="curve" smooth="yes"/>
      <point x="529" y="255"/>
      <point x="463" y="316"/>
      <point x="373" y="316" type="curve" smooth="yes"/>
      <point x="306" y="316"/>
      <point x="267" y="301"/>
      <point x="201" y="290" type="curve"/>
      <point x="177" y="310"/>
      <point x="147" y="351"/>
      <point x="147" y="382" type="curve" smooth="yes"/>
      <point x="147" y="403"/>
      <point x="160" y="419"/>
      <point x="195" y="419" type="curve" smooth="yes"/>
      <point x="462" y="419" type="line"/>
      <point x="462" y="580" type="line"/>
      <point x="616" y="580" type="line"/>
      <point x="616" y="638" type="line"/>
      <point x="-22" y="638" type="line"/>
      <point x="-22" y="580" type="line"/>
      <point x="374" y="580" type="line"/>
      <point x="374" y="483" type="line"/>
      <point x="151" y="483" type="line" smooth="yes"/>
      <point x="90" y="483"/>
      <point x="66" y="451"/>
      <point x="66" y="410" type="curve" smooth="yes"/>
      <point x="66" y="346"/>
      <point x="128" y="258"/>
      <point x="196" y="229" type="curve"/>
      <point x="256" y="240"/>
      <point x="291" y="246"/>
      <point x="355" y="246" type="curve" smooth="yes"/>
      <point x="408" y="246"/>
      <point x="452" y="218"/>
      <point x="452" y="168" type="curve" smooth="yes"/>
      <point x="452" y="111"/>
      <point x="386" y="89"/>
      <point x="313" y="89" type="curve" smooth="yes"/>
      <point x="254" y="89"/>
      <point x="191" y="103"/>
      <point x="154" y="124" type="curve"/>
    </contour>
  </outline>
</glyph>
<glyph name="iideva" format="1">
  <advance width="594"/>
  <unicode hex="0908"/>
  <outline>
    <contour>
      <point x="352" y="621" type="line"/>
      <point x="484" y="621" type="line"/>
      <point x="484" y="638" type="line"/>
      <point x="445" y="638" type="line"/>
      <point x="368" y="707"/>
      <point x="340" y="748"/>
      <point x="340" y="796" type="curve" smooth="yes"/>
      <point x="340" y="841"/>
      <point x="364" y="866"/>
      <point x="413" y="866" type="curve" smooth="yes"/>
      <point x="445" y="866"/>
      <point x="489" y="855"/>
      <point x="547" y="834" type="curve"/>
      <point x="569" y="882" type="line"/>
      <point x="507" y="912"/>
      <point x="448" y="928"/>
      <point x="399" y="928" type="curve" smooth="yes"/>
      <point x="313" y="928"/>
      <point x="257" y="880"/>
      <point x="257" y="806" type="curve" smooth="yes"/>
      <point x="257" y="749"/>
      <point x="291" y="700"/>
      <point x="372" y="638" type="curve"/>
      <point x="352" y="638" type="line"/>
    </contour>
    <component base="ideva"/>
  </outline>
</glyph>
<glyph name="udeva" format="1">
  <advance width="572"/>
  <unicode hex="0909"/>
  <outline>
    <contour>
      <point x="594" y="580" type="line"/>
      <point x="594" y="638" type="line"/>
      <point x="-22" y="638" type="line"/>
      <point x="-22" y="580" type="line"/>
    </contour>
    <contour>
      <point x="263" y="315" type="line"/>
      <point x="318" y="315" type="line"/>
      <point x="445" y="341"/>
      <point x="506" y="388"/>
      <point x="506" y="486" type="curve" smooth="yes"/>
      <point x="506" y="566"/>
      <point x="439" y="612"/>
      <point x="334" y="612" type="curve"/>
      <point x="329" y="580" type="line"/>
      <point x="385" y="580"/>
      <point x="421" y="554"/>
      <point x="421" y="494" type="curve" smooth="yes"/>
      <point x="421" y="421"/>
      <point x="372" y="374"/>
      <point x="292" y="374" type="curve" smooth="yes"/>
      <point x="263" y="374" type="line"/>
    </contour>
    <contour>
      <point x="323" y="64" type="curve" smooth="yes"/>
      <point x="248" y="64"/>
      <point x="182" y="99"/>
      <point x="88" y="184" type="curve"/>
      <point x="66" y="111" type="line"/>
      <point x="141" y="35"/>
      <point x="227" y="-4"/>
      <point x="321" y="-4" type="curve" smooth="yes"/>
      <point x="434" y="-4"/>
      <point x="528" y="62"/>
      <point x="528" y="181" type="curve" smooth="yes"/>
      <point x="528" y="295"/>
      <point x="453" y="374"/>
      <point x="351" y="374" type="curve" smooth="yes"/>
      <point x="193" y="374" type="line"/>
      <point x="193" y="304" type="line"/>
      <point x="333" y="304" type="line" smooth="yes"/>
      <point x="397" y="304"/>
      <point x="446" y="260"/>
      <point x="446" y="182" type="curve" smooth="yes"/>
      <point x="446" y="100"/>
      <point x="395" y="64"/>
    </contour>
  </outline>
</glyph>
<glyph name="uudeva" format="1">
  <advance width="902"/>
  <unicode hex="090A"/>
  <outline>
    <contour>
      <point x="753" y="33" type="line"/>
      <point x="826" y="102"/>
      <point x="858" y="144"/>
      <point x="858" y="214" type="curve" smooth="yes"/>
      <point x="858" y="311"/>
      <point x="781" y="396"/>
      <point x="669" y="396" type="curve" smooth="yes"/>
      <point x="593" y="396"/>
      <point x="531" y="341"/>
      <point x="483" y="251" type="curve"/>
      <point x="483" y="152" type="line"/>
      <point x="536" y="257"/>
      <point x="603" y="319"/>
      <point x="673" y="319" type="curve" smooth="yes"/>
      <point x="738" y="319"/>
      <point x="777" y="285"/>
      <point x="777" y="220" type="curve" smooth="yes"/>
      <point x="777" y="173"/>
      <point x="763" y="140"/>
      <point x="690" y="82" type="curve"/>
    </contour>
    <contour>
      <point x="924" y="580" type="line"/>
      <point x="924" y="638" type="line"/>
      <point x="-22" y="638" type="line"/>
      <point x="-22" y="580" type="line"/>
    </contour>
    <contour>
      <point x="263" y="315" type="line"/>
      <point x="318" y="315" type="line"/>
      <point x="445" y="340"/>
      <point x="506" y="393"/>
      <point x="506" y="479" type="curve" smooth="yes"/>
      <point x="506" y="570"/>
      <point x="438" y="612"/>
      <point x="334" y="612" type="curve"/>
      <point x="329" y="580" type="line"/>
      <point x="386" y="580"/>
      <point x="421" y="554"/>
      <point x="421" y="493" type="curve" smooth="yes"/>
      <point x="421" y="421"/>
      <point x="371" y="374"/>
      <point x="292" y="374" type="curve" smooth="yes"/>
      <point x="263" y="374" type="line"/>
    </contour>
    <contour>
      <point x="321" y="64" type="curve" smooth="yes"/>
      <point x="249" y="64"/>
      <point x="182" y="99"/>
      <point x="88" y="184" type="curve"/>
      <point x="66" y="111" type="line"/>
      <point x="141" y="35"/>
      <point x="228" y="-4"/>
      <point x="318" y="-4" type="curve" smooth="yes"/>
      <point x="434" y="-4"/>
      <point x="528" y="60"/>
      <point x="528" y="184" type="curve" smooth="yes"/>
      <point x="528" y="294"/>
      <point x="453" y="374"/>
      <point x="351" y="374" type="curve" smooth="yes"/>
      <point x="193" y="374" type="line"/>
      <point x="193" y="304" type="line"/>
      <point x="333" y="304" type="line" smooth="yes"/>
      <point x="397" y="304"/>
      <point x="446" y="261"/>
      <point x="446" y="181" type="curve" smooth="yes"/>
      <point x="446" y="100"/>
      <point x="395" y="64"/>
    </contour>
  </outline>
</glyph>
<glyph name="rvocalicdeva" format="1">
  <advance width="968"/>
  <unicode hex="090B"/>
  <outline>
    <contour>
      <point x="528" y="0" type="line"/>
      <point x="528" y="580" type="line"/>
      <point x="990" y="580" type="line"/>
      <point x="990" y="638" type="line"/>
      <point x="-22" y="638" type="line"/>
      <point x="-22" y="580" type="line"/>
      <point x="440" y="580" type="line"/>
      <point x="440" y="0" type="line"/>
    </contour>
    <contour>
      <point x="470" y="319" type="line"/>
      <point x="440" y="319" type="line"/>
      <point x="110" y="129" type="line"/>
      <point x="110" y="125" type="line"/>
      <point x="161" y="58" type="line"/>
      <point x="165" y="58" type="line"/>
      <point x="440" y="244" type="line"/>
      <point x="470" y="244" type="line"/>
    </contour>
    <contour>
      <point x="72" y="365" type="line"/>
      <point x="106" y="386"/>
      <point x="169" y="403"/>
      <point x="228" y="403" type="curve" smooth="yes"/>
      <point x="310" y="403"/>
      <point x="388" y="370"/>
      <point x="447" y="303" type="curve"/>
      <point x="458" y="377" type="line"/>
      <point x="405" y="434"/>
      <point x="321" y="474"/>
      <point x="206" y="474" type="curve" smooth="yes"/>
      <point x="146" y="474"/>
      <point x="78" y="463"/>
      <point x="44" y="439" type="curve"/>
    </contour>
    <contour>
      <point x="455" y="308" type="line"/>
      <point x="502" y="284"/>
      <point x="553" y="261"/>
      <point x="625" y="261" type="curve" smooth="yes"/>
      <point x="693" y="261"/>
      <point x="738" y="282"/>
      <point x="796" y="328" type="curve"/>
      <point x="753" y="395" type="line"/>
      <point x="707" y="358"/>
      <point x="659" y="327"/>
      <point x="599" y="327" type="curve" smooth="yes"/>
      <point x="555" y="327"/>
      <point x="504" y="344"/>
      <point x="467" y="371" type="curve"/>
    </contour>
    <contour>
      <point x="741" y="323" type="curve" smooth="yes"/>
      <point x="779" y="276"/>
      <point x="823" y="237"/>
      <point x="823" y="172" type="curve" smooth="yes"/>
      <point x="823" y="106"/>
      <point x="777" y="68"/>
      <point x="682" y="68" type="curve"/>
      <point x="682" y="-12" type="line"/>
      <point x="802" y="-12"/>
      <point x="902" y="36"/>
      <point x="902" y="174" type="curve" smooth="yes"/>
      <point x="902" y="232"/>
      <point x="862" y="298"/>
      <point x="820" y="336" type="curve"/>
      <point x="814" y="414" type="line"/>
      <point x="798" y="449"/>
      <point x="781" y="470"/>
      <point x="753" y="495" type="curve"/>
      <point x="683" y="456" type="line"/>
      <point x="700" y="383"/>
      <point x="708" y="364"/>
    </contour>
  </outline>
</glyph>
<glyph name="lvocalicdeva" format="1">
  <advance width="704"/>
  <unicode hex="090C"/>
  <outline>
    <contour>
      <point x="188" y="0" type="curve"/>
      <point x="240" y="34" type="line"/>
      <point x="173" y="129"/>
      <point x="145" y="198"/>
      <point x="145" y="269" type="curve" smooth="yes"/>
      <point x="145" y="335"/>
      <point x="169" y="367"/>
      <point x="212" y="367" type="curve" smooth="yes"/>
      <point x="259" y="367"/>
      <point x="300" y="328"/>
      <point x="348" y="245" type="curve"/>
      <point x="375" y="304" type="line"/>
      <point x="302" y="415"/>
      <point x="268" y="443"/>
      <point x="205" y="443" type="curve" smooth="yes"/>
      <point x="116" y="443"/>
      <point x="65" y="386"/>
      <point x="65" y="284" type="curve" smooth="yes"/>
      <point x="65" y="200"/>
      <point x="99" y="122"/>
    </contour>
    <contour>
      <point x="473" y="407" type="line"/>
      <point x="539" y="407" type="line"/>
      <point x="539" y="580" type="line"/>
      <point x="726" y="580" type="line"/>
      <point x="726" y="638" type="line"/>
      <point x="-22" y="638" type="line"/>
      <point x="-22" y="580" type="line"/>
      <point x="473" y="580" type="line"/>
    </contour>
    <contour>
      <point x="428" y="-90" type="curve" smooth="yes"/>
      <point x="428" y="28"/>
      <point x="638" y="42"/>
      <point x="638" y="245" type="curve" smooth="yes"/>
      <point x="638" y="360"/>
      <point x="570" y="435"/>
      <point x="476" y="435" type="curve" smooth="yes"/>
      <point x="379" y="435"/>
      <point x="304" y="356"/>
      <point x="304" y="195" type="curve" smooth="yes"/>
      <point x="304" y="144" type="line"/>
      <point x="381" y="144" type="line"/>
      <point x="381" y="188" type="line" smooth="yes"/>
      <point x="381" y="320"/>
      <point x="414" y="358"/>
      <point x="475" y="358" type="curve" smooth="yes"/>
      <point x="535" y="358"/>
      <point x="557" y="321"/>
      <point x="557" y="258" type="curve" smooth="yes"/>
      <point x="557" y="65"/>
      <point x="352" y="73"/>
      <point x="352" y="-86" type="curve" smooth="yes"/>
      <point x="352" y="-170"/>
      <point x="410" y="-244"/>
      <point x="525" y="-244" type="curve" smooth="yes"/>
      <point x="561" y="-244"/>
      <point x="606" y="-237"/>
      <point x="638" y="-226" type="curve"/>
      <point x="638" y="-146" type="line"/>
      <point x="608" y="-164"/>
      <point x="571" y="-176"/>
      <point x="534" y="-176" type="curve" smooth="yes"/>
      <point x="461" y="-176"/>
      <point x="428" y="-137"/>
    </contour>
  </outline>
</glyph>
<glyph name="ecandradeva" format="1">
  <advance width="682"/>
  <unicode hex="090D"/>
  <outline>
    <contour>
      <point x="341" y="720" type="curve" smooth="yes"/>
      <point x="496" y="720"/>
      <point x="596" y="799"/>
      <point x="596" y="910" type="curve"/>
      <point x="517" y="910" type="line"/>
      <point x="517" y="835"/>
      <point x="453" y="786"/>
      <point x="341" y="786" type="curve" smooth="yes"/>
      <point x="229" y="786"/>
      <point x="165" y="835"/>
      <point x="165" y="910" type="curve"/>
      <point x="86" y="910" type="line"/>
      <point x="86" y="799"/>
      <point x="186" y="720"/>
    </contour>
    <component base="edeva"/>
  </outline>
</glyph>
<glyph name="eshortdeva" format="1">
  <advance width="682"/>
  <unicode hex="090E"/>
  <outline>
    <contour>
      <point x="543" y="610" type="line"/>
      <point x="543" y="638" type="line" smooth="yes"/>
      <point x="543" y="727"/>
      <point x="503" y="820"/>
      <point x="385" y="833" type="curve" smooth="yes"/>
      <point x="249" y="848"/>
      <point x="215" y="863"/>
      <point x="215" y="928" type="curve"/>
      <point x="147" y="928" type="line"/>
      <point x="147" y="824"/>
      <point x="207" y="789"/>
      <point x="349" y="776" type="curve" smooth="yes"/>
      <point x="436" y="768"/>
      <point x="466" y="725"/>
      <point x="466" y="638" type="curve" smooth="yes"/>
      <point x="466" y="610" type="line"/>
    </contour>
    <component base="edeva"/>
  </outline>
</glyph>
<glyph name="edeva" format="1">
  <advance width="682"/>
  <unicode hex="090F"/>
  <outline>
    <contour>
      <point x="379" y="-115" type="curve"/>
      <point x="470" y="-115" type="line"/>
      <point x="482" y="-85"/>
      <point x="488" y="-55"/>
      <point x="488" y="-27" type="curve" smooth="yes"/>
      <point x="488" y="136"/>
      <point x="220" y="175"/>
      <point x="220" y="277" type="curve" smooth="yes"/>
      <point x="220" y="588" type="line"/>
      <point x="132" y="588" type="line"/>
      <point x="132" y="306" type="line" smooth="yes"/>
      <point x="132" y="97"/>
      <point x="398" y="107"/>
      <point x="398" y="-33" type="curve" smooth="yes"/>
      <point x="398" y="-58"/>
      <point x="391" y="-87"/>
    </contour>
    <contour>
      <point x="423" y="238" type="line"/>
      <point x="502" y="274"/>
      <point x="550" y="346"/>
      <point x="550" y="424" type="curve" smooth="yes"/>
      <point x="550" y="588" type="line"/>
      <point x="462" y="588" type="line"/>
      <point x="462" y="416" type="line" smooth="yes"/>
      <point x="462" y="367"/>
      <point x="435" y="334"/>
      <point x="379" y="318" type="curve"/>
    </contour>
    <contour>
      <point x="-22" y="580" type="line"/>
      <point x="704" y="580" type="line"/>
      <point x="704" y="638" type="line"/>
      <point x="-22" y="638" type="line"/>
    </contour>
  </outline>
</glyph>
<glyph name="aideva" format="1">
  <advance width="682"/>
  <unicode hex="0910"/>
  <outline>
    <contour>
      <point x="533" y="608" type="line"/>
      <point x="533" y="638" type="line"/>
      <point x="350" y="928" type="line"/>
      <point x="346" y="928" type="line"/>
      <point x="274" y="887" type="line"/>
      <point x="274" y="883" type="line"/>
      <point x="460" y="638" type="line"/>
      <point x="460" y="608" type="line"/>
    </contour>
    <component base="edeva"/>
  </outline>
</glyph>
<glyph name="ocandradeva" format="1">
  <advance width="1254"/>
  <unicode hex="0911"/>
  <outline>
    <contour>
      <point x="902" y="720" type="curve" smooth="yes"/>
      <point x="1057" y="720"/>
      <point x="1147" y="799"/>
      <point x="1147" y="910" type="curve"/>
      <point x="1068" y="910" type="line"/>
      <point x="1068" y="835"/>
      <point x="1014" y="786"/>
      <point x="902" y="786" type="curve" smooth="yes"/>
      <point x="790" y="786"/>
      <point x="736" y="835"/>
      <point x="736" y="910" type="curve"/>
      <point x="657" y="910" type="line"/>
      <point x="657" y="799"/>
      <point x="747" y="720"/>
    </contour>
    <component base="aadeva"/>
  </outline>
</glyph>
<glyph name="oshortdeva" format="1">
  <advance width="1254"/>
  <unicode hex="0912"/>
  <outline>
    <contour>
      <point x="1115" y="610" type="line"/>
      <point x="1115" y="638" type="line" smooth="yes"/>
      <point x="1115" y="727"/>
      <point x="1075" y="820"/>
      <point x="957" y="833" type="curve" smooth="yes"/>
      <point x="821" y="848"/>
      <point x="787" y="863"/>
      <point x="787" y="928" type="curve"/>
      <point x="719" y="928" type="line"/>
      <point x="719" y="824"/>
      <point x="779" y="789"/>
      <point x="921" y="776" type="curve" smooth="yes"/>
      <point x="1008" y="768"/>
      <point x="1038" y="725"/>
      <point x="1038" y="638" type="curve" smooth="yes"/>
      <point x="1038" y="610" type="line"/>
    </contour>
    <component base="aadeva"/>
  </outline>
</glyph>
<glyph name="odeva" format="1">
  <advance width="1254"/>
  <unicode hex="0913"/>
  <outline>
    <contour>
      <point x="1105" y="608" type="line"/>
      <point x="1105" y="638" type="line"/>
      <point x="922" y="928" type="line"/>
      <point x="918" y="928" type="line"/>
      <point x="846" y="887" type="line"/>
      <point x="846" y="883" type="line"/>
      <point x="1032" y="638" type="line"/>
      <point x="1032" y="608" type="line"/>
    </contour>
    <component base="aadeva"/>
  </outline>
</glyph>
<glyph name="audeva" format="1">
  <advance width="1254"/>
  <unicode hex="0914"/>
  <outline>
    <contour>
      <point x="1120" y="610" type="line"/>
      <point x="1120" y="638" type="line"/>
      <point x="1080" y="928" type="line"/>
      <point x="1076" y="928" type="line"/>
      <point x="991" y="906" type="line"/>
      <point x="991" y="902" type="line"/>
      <point x="1044" y="670" type="line"/>
      <point x="1040" y="670" type="line"/>
      <point x="796" y="873" type="line"/>
      <point x="792" y="873" type="line"/>
      <point x="727" y="811" type="line"/>
      <point x="727" y="807" type="line"/>
      <point x="1001" y="638" type="line"/>
      <point x="1001" y="610" type="line"/>
    </contour>
    <component base="aadeva"/>
  </outline>
</glyph>
<glyph name="kadeva" format="1">
  <advance width="880"/>
  <unicode hex="0915"/>
  <outline>
    <contour>
      <point x="235" y="86" type="curve" smooth="yes"/>
      <point x="302" y="86"/>
      <point x="368" y="134"/>
      <point x="418" y="220" type="curve"/>
      <point x="418" y="330" type="line"/>
      <point x="363" y="224"/>
      <point x="295" y="163"/>
      <point x="231" y="163" type="curve" smooth="yes"/>
      <point x="178" y="163"/>
      <point x="146" y="206"/>
      <point x="146" y="279" type="curve" smooth="yes"/>
      <point x="146" y="356"/>
      <point x="182" y="401"/>
      <point x="244" y="401" type="curve" smooth="yes"/>
      <point x="263" y="401"/>
      <point x="281" y="397"/>
      <point x="310" y="386" type="curve"/>
      <point x="310" y="460" type="line"/>
      <point x="286" y="472"/>
      <point x="265" y="477"/>
      <point x="240" y="477" type="curve" smooth="yes"/>
      <point x="141" y="477"/>
      <point x="65" y="395"/>
      <point x="65" y="287" type="curve" smooth="yes"/>
      <point x="65" y="177"/>
      <point x="143" y="86"/>
    </contour>
    <contour>
      <point x="710" y="83" type="line"/>
      <point x="784" y="161"/>
      <point x="815" y="212"/>
      <point x="815" y="280" type="curve" smooth="yes"/>
      <point x="815" y="389"/>
      <point x="737" y="479"/>
      <point x="645" y="479" type="curve" smooth="yes"/>
      <point x="577" y="479"/>
      <point x="511" y="431"/>
      <point x="462" y="345" type="curve"/>
      <point x="462" y="235" type="line"/>
      <point x="514" y="339"/>
      <point x="584" y="402"/>
      <point x="648" y="402" type="curve" smooth="yes"/>
      <point x="701" y="402"/>
      <point x="734" y="359"/>
      <point x="734" y="289" type="curve" smooth="yes"/>
      <point x="734" y="233"/>
      <point x="713" y="194"/>
      <point x="647" y="132" type="curve"/>
    </contour>
    <contour>
      <point x="396" y="0" type="line"/>
      <point x="484" y="0" type="line"/>
      <point x="484" y="580" type="line"/>
      <point x="902" y="580" type="line"/>
      <point x="902" y="638" type="line"/>
      <point x="-22" y="638" type="line"/>
      <point x="-22" y="580" type="line"/>
      <point x="396" y="580" type="line"/>
    </contour>
  </outline>
</glyph>
<glyph name="khadeva" format="1">
  <advance width="1034"/>
  <unicode hex="0916"/>
  <outline>
    <contour>
      <point x="537" y="-11" type="curve" smooth="yes"/>
      <point x="647" y="-11"/>
      <point x="783" y="45"/>
      <point x="868" y="148" type="curve"/>
      <point x="868" y="223" type="line"/>
      <point x="742" y="105"/>
      <point x="649" y="54"/>
      <point x="544" y="54" type="curve" smooth="yes"/>
      <point x="397" y="54"/>
      <point x="247" y="164"/>
      <point x="176" y="291" type="curve"/>
      <point x="182" y="260" type="line"/>
      <point x="291" y="265"/>
      <point x="374" y="346"/>
      <point x="374" y="449" type="curve" smooth="yes"/>
      <point x="374" y="498"/>
      <point x="355" y="545"/>
      <point x="320" y="580" type="curve"/>
      <point x="462" y="580" type="line"/>
      <point x="462" y="638" type="line"/>
      <point x="-22" y="638" type="line"/>
      <point x="-22" y="580" type="line"/>
      <point x="244" y="580" type="line"/>
      <point x="281" y="534"/>
      <point x="296" y="499"/>
      <point x="296" y="457" type="curve" smooth="yes"/>
      <point x="296" y="382"/>
      <point x="245" y="330"/>
      <point x="169" y="321" type="curve"/>
      <point x="199" y="309" type="line"/>
      <point x="126" y="425" type="line"/>
      <point x="92" y="425"/>
      <point x="67" y="391"/>
      <point x="67" y="357" type="curve" smooth="yes"/>
      <point x="67" y="331"/>
      <point x="85" y="293"/>
      <point x="107" y="258" type="curve" smooth="yes"/>
      <point x="194" y="119"/>
      <point x="370" y="-11"/>
    </contour>
    <contour>
      <point x="644" y="202" type="curve" smooth="yes"/>
      <point x="716" y="202"/>
      <point x="791" y="240"/>
      <point x="846" y="304" type="curve"/>
      <point x="846" y="408" type="line"/>
      <point x="783" y="319"/>
      <point x="708" y="269"/>
      <point x="638" y="269" type="curve" smooth="yes"/>
      <point x="580" y="269"/>
      <point x="543" y="303"/>
      <point x="543" y="355" type="curve" smooth="yes"/>
      <point x="543" y="413"/>
      <point x="588" y="449"/>
      <point x="661" y="449" type="curve" smooth="yes"/>
      <point x="685" y="449"/>
      <point x="704" y="445"/>
      <point x="727" y="434" type="curve"/>
      <point x="727" y="501" type="line"/>
      <point x="701" y="511"/>
      <point x="671" y="517"/>
      <point x="643" y="517" type="curve" smooth="yes"/>
      <point x="546" y="517"/>
      <point x="469" y="448"/>
      <point x="469" y="361" type="curve" smooth="yes"/>
      <point x="469" y="273"/>
      <point x="547" y="202"/>
    </contour>
    <contour>
      <point x="814" y="0" type="line"/>
      <point x="902" y="0" type="line"/>
      <point x="902" y="580" type="line"/>
      <point x="1056" y="580" type="line"/>
      <point x="1056" y="638" type="line"/>
      <point x="352" y="638" type="line"/>
      <point x="352" y="580" type="line"/>
      <point x="814" y="580" type="line"/>
    </contour>
  </outline>
</glyph>
<glyph name="gadeva" format="1">
  <advance width="704"/>
  <unicode hex="0917"/>
  <outline>
    <contour>
      <point x="484" y="0" type="line"/>
      <point x="572" y="0" type="line"/>
      <point x="572" y="580" type="line"/>
      <point x="726" y="580" type="line"/>
      <point x="726" y="638" type="line"/>
      <point x="-22" y="638" type="line"/>
      <point x="-22" y="580" type="line"/>
      <point x="484" y="580" type="line"/>
    </contour>
    <contour>
      <point x="220" y="177" type="line"/>
      <point x="242" y="180"/>
      <point x="276" y="194"/>
      <point x="286" y="209" type="curve"/>
      <point x="286" y="595" type="line"/>
      <point x="207" y="595" type="line"/>
      <point x="207" y="314" type="line"/>
      <point x="66" y="314" type="line"/>
      <point x="66" y="263" type="line"/>
    </contour>
  </outline>
</glyph>
<glyph name="ngadeva" format="1">
  <advance width="704"/>
  <unicode hex="0919"/>
  <outline>
    <contour>
      <point x="726" y="580" type="line"/>
      <point x="726" y="638" type="line"/>
      <point x="572" y="638" type="line"/>
      <point x="572" y="580" type="line"/>
    </contour>
    <contour>
      <point x="616" y="280" type="curve"/>
      <point x="643" y="288"/>
      <point x="674" y="316"/>
      <point x="682" y="348" type="curve"/>
      <point x="674" y="380"/>
      <point x="643" y="408"/>
      <point x="616" y="416" type="curve"/>
      <point x="589" y="408"/>
      <point x="558" y="380"/>
      <point x="550" y="348" type="curve"/>
      <point x="558" y="316"/>
      <point x="589" y="288"/>
    </contour>
    <component base="ddadeva"/>
  </outline>
</glyph>
<glyph name="cadeva" format="1">
  <advance width="748"/>
  <unicode hex="091A"/>
  <outline>
    <contour>
      <point x="333" y="79" type="curve" smooth="yes"/>
      <point x="432" y="79"/>
      <point x="521" y="155"/>
      <point x="577" y="284" type="curve"/>
      <point x="547" y="346" type="line"/>
      <point x="482" y="219"/>
      <point x="397" y="142"/>
      <point x="322" y="142" type="curve" smooth="yes"/>
      <point x="269" y="142"/>
      <point x="231" y="181"/>
      <point x="231" y="234" type="curve" smooth="yes"/>
      <point x="231" y="297"/>
      <point x="284" y="358"/>
      <point x="371" y="396" type="curve"/>
      <point x="323" y="429" type="line"/>
      <point x="220" y="395"/>
      <point x="157" y="325"/>
      <point x="157" y="244" type="curve" smooth="yes"/>
      <point x="157" y="153"/>
      <point x="235" y="79"/>
    </contour>
    <contour>
      <point x="528" y="0" type="line"/>
      <point x="616" y="0" type="line"/>
      <point x="616" y="580" type="line"/>
      <point x="770" y="580" type="line"/>
      <point x="770" y="638" type="line"/>
      <point x="-22" y="638" type="line"/>
      <point x="-22" y="580" type="line"/>
      <point x="528" y="580" type="line"/>
    </contour>
    <contour>
      <point x="44" y="396" type="line"/>
      <point x="440" y="396" type="line"/>
      <point x="440" y="464" type="line"/>
      <point x="44" y="464" type="line"/>
    </contour>
  </outline>
</glyph>
<glyph name="jadeva" format="1">
  <advance width="814"/>
  <unicode hex="091C"/>
  <outline>
    <contour>
      <point x="287" y="79" type="curve" smooth="yes"/>
      <point x="388" y="79"/>
      <point x="462" y="147"/>
      <point x="462" y="242" type="curve" smooth="yes"/>
      <point x="462" y="338"/>
      <point x="387" y="404"/>
      <point x="264" y="429" type="curve"/>
      <point x="258" y="396" type="line"/>
      <point x="329" y="381"/>
      <point x="383" y="322"/>
      <point x="383" y="258" type="curve" smooth="yes"/>
      <point x="383" y="196"/>
      <point x="331" y="151"/>
      <point x="264" y="151" type="curve" smooth="yes"/>
      <point x="191" y="151"/>
      <point x="133" y="204"/>
      <point x="73" y="320" type="curve"/>
      <point x="39" y="284" type="line"/>
      <point x="95" y="152"/>
      <point x="183" y="79"/>
    </contour>
    <contour>
      <point x="594" y="0" type="line"/>
      <point x="682" y="0" type="line"/>
      <point x="682" y="580" type="line"/>
      <point x="836" y="580" type="line"/>
      <point x="836" y="638" type="line"/>
      <point x="-22" y="638" type="line"/>
      <point x="-22" y="580" type="line"/>
      <point x="594" y="580" type="line"/>
    </contour>
    <contour>
      <point x="242" y="396" type="line"/>
      <point x="644" y="396" type="line"/>
      <point x="644" y="464" type="line"/>
      <point x="242" y="464" type="line"/>
    </contour>
  </outline>
</glyph>
<glyph name="jhadeva" format="1">
  <advance width="968"/>
  <unicode hex="091D"/>
  <outline>
    <contour>
      <point x="462" y="198" type="line"/>
      <point x="598" y="217"/>
      <point x="708" y="259"/>
      <point x="792" y="379" type="curve"/>
      <point x="792" y="444" type="line"/>
      <point x="748" y="444" type="line"/>
      <point x="701" y="341"/>
      <point x="568" y="272"/>
      <point x="462" y="257" type="curve"/>
    </contour>
    <component base="ideva"/>
    <component base="aasigndeva" xOffset="616"/>
  </outline>
</glyph>
<glyph name="nyadeva" format="1">
  <advance width="792"/>
  <unicode hex="091E"/>
  <outline>
    <contour>
      <point x="244" y="107" type="curve" smooth="yes"/>
      <point x="351" y="107"/>
      <point x="429" y="187"/>
      <point x="429" y="294" type="curve" smooth="yes"/>
      <point x="429" y="395"/>
      <point x="354" y="470"/>
      <point x="253" y="470" type="curve" smooth="yes"/>
      <point x="204" y="470"/>
      <point x="161" y="464"/>
      <point x="115" y="447" type="curve"/>
      <point x="138" y="379" type="line"/>
      <point x="185" y="394"/>
      <point x="229" y="399"/>
      <point x="278" y="399" type="curve" smooth="yes"/>
      <point x="321" y="399"/>
      <point x="344" y="358"/>
      <point x="344" y="312" type="curve" smooth="yes"/>
      <point x="344" y="237"/>
      <point x="300" y="174"/>
      <point x="229" y="174" type="curve" smooth="yes"/>
      <point x="172" y="174"/>
      <point x="125" y="198"/>
      <point x="75" y="225" type="curve"/>
      <point x="66" y="168" type="line"/>
      <point x="121" y="131"/>
      <point x="177" y="107"/>
    </contour>
    <contour>
      <point x="572" y="-20" type="line"/>
      <point x="660" y="-20" type="line"/>
      <point x="660" y="580" type="line"/>
      <point x="814" y="580" type="line"/>
      <point x="814" y="638" type="line"/>
      <point x="-22" y="638" type="line"/>
      <point x="-22" y="580" type="line"/>
      <point x="572" y="580" type="line"/>
    </contour>
    <contour>
      <point x="374" y="257" type="line"/>
      <point x="459" y="257"/>
      <point x="538" y="258"/>
      <point x="616" y="293" type="curve"/>
      <point x="616" y="371" type="line"/>
      <point x="541" y="325"/>
      <point x="462" y="317"/>
      <point x="374" y="317" type="curve"/>
    </contour>
  </outline>
</glyph>
<glyph name="ttadeva" format="1">
  <advance width="572"/>
  <unicode hex="091F"/>
  <outline>
    <contour>
      <point x="280" y="19" type="curve" smooth="yes"/>
      <point x="372" y="19"/>
      <point x="445" y="60"/>
      <point x="525" y="105" type="curve"/>
      <point x="493" y="174" type="line"/>
      <point x="417" y="126"/>
      <point x="345" y="87"/>
      <point x="255" y="87" type="curve" smooth="yes"/>
      <point x="183" y="87"/>
      <point x="148" y="160"/>
      <point x="148" y="240" type="curve" smooth="yes"/>
      <point x="148" y="312"/>
      <point x="191" y="372"/>
      <point x="259" y="372" type="curve" smooth="yes"/>
      <point x="418" y="372" type="line"/>
      <point x="418" y="580" type="line"/>
      <point x="594" y="580" type="line"/>
      <point x="594" y="638" type="line"/>
      <point x="-22" y="638" type="line"/>
      <point x="-22" y="580" type="line"/>
      <point x="330" y="580" type="line"/>
      <point x="330" y="436" type="line"/>
      <point x="224" y="436" type="line" smooth="yes"/>
      <point x="128" y="436"/>
      <point x="66" y="353"/>
      <point x="66" y="251" type="curve" smooth="yes"/>
      <point x="66" y="121"/>
      <point x="154" y="19"/>
    </contour>
  </outline>
</glyph>
